<?xml version="1.0" encoding="utf-8"?>
<!-- Generator: Adobe Illustrator 17.1.0, SVG Export Plug-In . SVG Version: 6.00 Build 0)  -->
<!DOCTYPE svg PUBLIC "-//W3C//DTD SVG 1.1//EN" "http://www.w3.org/Graphics/SVG/1.1/DTD/svg11.dtd">
<svg version="1.1" id="Layer_1" xmlns="http://www.w3.org/2000/svg" xmlns:xlink="http://www.w3.org/1999/xlink" x="0px" y="0px"
	 viewBox="508.5 18 100 100" enable-background="new 508.5 18 100 100" xml:space="preserve">
<g>
	
		<rect x="524.2" y="33.6" transform="matrix(-0.7071 0.7071 -0.7071 -0.7071 1001.5458 -278.8538)" fill="#0878FF" width="68.7" height="68.7"/>
	<path fill="#001840" d="M558.5,20.8L605.7,68l-47.2,47.2L511.4,68L558.5,20.8 M558.5,18l-50,50l50,50l50-50L558.5,18L558.5,18z"/>
</g>
<g>
	<g>
		<g>
			<path fill="#FFFFFF" d="M540.4,47.3l-7.1,7.1c-0.5,0.5-0.5,1.3-0.1,1.9l0.7,1.4l-0.6,0.6l-1.5-0.8c-1-0.5-1.6-0.1-1.9,0.2
				l-2.4,2.4c-0.3,0.3-0.4,0.6-0.4,1v0c0,0.4,0.1,0.7,0.4,1l5.9,5.9c0.3,0.3,0.6,0.4,1,0.4s0.7-0.1,1-0.4l2.4-2.4
				c0.3-0.3,0.7-0.9,0.2-1.9l-0.8-1.5l0.6-0.6l1.4,0.7c0.2,0.2,0.6,0.3,0.9,0.3c0.4,0,0.7-0.1,1-0.4l2.8-2.8c0.3-0.3,0.3-0.7,0-1
				c-0.3-0.3-0.7-0.3-1,0l-2.8,2.8c-0.1-0.1-0.1-0.1-0.2-0.1l-2-1c-0.3-0.1-0.6-0.1-0.8,0.1l-1.3,1.3c-0.2,0.2-0.3,0.5-0.1,0.8l1,2
				c0.1,0.2,0.1,0.2,0.1,0.3l-2.4,2.4l-5.9-5.9l2.4-2.4c0,0,0.1,0,0.2,0.1l2,1c0.3,0.1,0.6,0.1,0.8-0.1l1.3-1.3
				c0.2-0.2,0.3-0.5,0.1-0.8l-1-2c0-0.1-0.1-0.1-0.1-0.2l7.2-7.2c0,0,3.6-4.2,7.4-4.2c1.5,0,2.6,0,4.1,0.5c-5.8,1.8-8.1,5.2-8.2,5.4
				c-0.1,0.2-0.1,0.4-0.1,0.7l1.8,4.1c0.1,0.2,0.1,0.3,0.1,0.3l-1.7,1.7c-0.1,0.1-0.2,0.3-0.2,0.5c0,0.2,0.1,0.4,0.2,0.5L576,89
				c0.1,0.1,0.5,0.5,0.5,0.9c0,0.4-0.3,0.8-0.5,0.9l-0.7,0.7c-0.1,0.1-0.5,0.5-0.9,0.5c-0.4,0-0.8-0.3-0.9-0.5l-29.4-29.4
				c-0.3-0.3-0.7-0.3-1,0c-0.3,0.3-0.3,0.7,0,1l29.4,29.4c0.1,0.1,0.9,0.9,1.9,0.9c1.1,0,1.8-0.8,1.9-0.9l0.7-0.7
				c0.1-0.1,0.9-0.8,0.9-1.9c0-1.1-0.8-1.8-0.9-1.9l-30.7-30.7l1.3-1.2c0.5-0.5,0.5-1.1,0.2-1.9l-1.6-3.8c0.8-0.9,3.5-3.8,9.1-5
				c0.3-0.1,0.5-0.3,0.6-0.6c0-0.3-0.1-0.6-0.4-0.7c-2.9-1.5-4.5-1.5-6.6-1.5C544.3,42.6,540.5,47.2,540.4,47.3z"/>
		</g>
	</g>
	<g>
		<g>
			<path fill="#FFFFFF" d="M568.2,42.6c-2.1,0-3.7,0-6.6,1.5c-0.3,0.1-0.4,0.4-0.4,0.7c0,0.3,0.3,0.5,0.6,0.6c5.6,1.2,8.4,4.1,9.1,5
				l-1.6,3.8c-0.3,0.8-0.3,1.4,0.2,1.9l1.3,1.2L540.1,88c-0.1,0.1-0.9,0.8-0.9,1.9c0,1.1,0.9,1.9,0.9,1.9l0.7,0.7
				c0.1,0.1,0.8,0.9,1.9,0.9c1.1,0,1.8-0.8,1.9-0.9L574,63.1c0.3-0.3,0.3-0.7,0-1c-0.3-0.3-0.7-0.3-1,0l-29.4,29.4
				c-0.1,0.1-0.5,0.5-0.9,0.5c-0.4,0-0.8-0.3-0.9-0.5l-0.7-0.7c-0.2-0.1-0.5-0.5-0.5-0.9c0-0.4,0.3-0.8,0.5-0.9l31.2-31.2
				c0.1-0.1,0.2-0.3,0.2-0.5c0-0.2-0.1-0.4-0.2-0.5l-1.7-1.7c0,0,0-0.1,0.1-0.3l1.8-4.1c0.1-0.2,0.1-0.5-0.1-0.7
				c-0.1-0.2-2.4-3.6-8.2-5.4c1.5-0.5,2.6-0.5,4.1-0.5c3.8,0,7.3,4.2,7.4,4.2l7.2,7.2c-0.1,0.1-0.1,0.1-0.1,0.2l-1,2
				c-0.1,0.3-0.1,0.6,0.1,0.8l1.3,1.3c0.2,0.2,0.5,0.3,0.8,0.1l2-1c0.2-0.1,0.2-0.1,0.2-0.1l2.4,2.4l-5.9,5.9l-2.4-2.4
				c0,0,0-0.1,0.1-0.3l1-2c0.1-0.3,0.1-0.6-0.1-0.8l-1.3-1.3c-0.2-0.2-0.5-0.3-0.8-0.1l-2,1c-0.1,0-0.1,0.1-0.2,0.1l-2.8-2.8
				c-0.3-0.3-0.7-0.3-1,0c-0.3,0.3-0.3,0.7,0,1l2.8,2.8c0.3,0.3,0.6,0.4,1,0.4c0.3,0,0.6-0.1,0.9-0.3l1.4-0.7l0.6,0.6l-0.8,1.5
				c-0.5,1-0.1,1.6,0.2,1.9l2.4,2.4c0.3,0.3,0.6,0.4,1,0.4s0.7-0.1,1-0.4l5.9-5.9c0.3-0.3,0.4-0.6,0.4-1v0c0-0.4-0.1-0.7-0.4-1
				l-2.4-2.4c-0.3-0.3-0.9-0.7-1.9-0.2l-1.5,0.8l-0.6-0.6l0.7-1.4c0.5-0.5,0.4-1.4-0.1-1.9l-7.1-7.1
				C576.5,47.2,572.7,42.6,568.2,42.6z"/>
		</g>
	</g>
</g>
</svg>
