<?xml version="1.0" encoding="utf-8"?>
<!-- Generator: Adobe Illustrator 17.1.0, SVG Export Plug-In . SVG Version: 6.00 Build 0)  -->
<!DOCTYPE svg PUBLIC "-//W3C//DTD SVG 1.1//EN" "http://www.w3.org/Graphics/SVG/1.1/DTD/svg11.dtd">
<svg version="1.1" id="Layer_1" xmlns="http://www.w3.org/2000/svg" xmlns:xlink="http://www.w3.org/1999/xlink" x="0px" y="0px"
	 viewBox="508.5 18 100 100" enable-background="new 508.5 18 100 100" xml:space="preserve">
<g>
	
		<rect x="524.2" y="33.6" transform="matrix(-0.7071 0.7071 -0.7071 -0.7071 1001.5458 -278.8538)" fill="#0878FF" width="68.7" height="68.7"/>
	<path fill="#001840" d="M558.5,20.8L605.7,68l-47.2,47.2L511.4,68L558.5,20.8 M558.5,18l-50,50l50,50l50-50L558.5,18L558.5,18z"/>
</g>
<g transform="translate(1 1)">
	<g>
		<path fill="#FFFFFF" d="M576.3,77.8c-0.9-0.6-1.9-1-2.9-1c-3.9-2.5-6.4-4.4-7.9-5.9l-4.6-4.6l2.8-3.1c0.5,0.3,1.1,0.5,1.6,0.6
			c0.4,0.1,0.7,0.1,1,0.1c0.6,0,0.7,0,1.3,0.5c-0.3,0.2-0.4,0.6-0.4,0.9c0,0.4,0.1,0.8,0.4,1.1l2.5,2.5c0.4,0.4,0.9,0.6,1.5,0.6
			s1.1-0.2,1.5-0.7l5-5c0.4-0.4,0.6-0.9,0.6-1.5s-0.2-1.1-0.6-1.5l-2.5-2.5c-0.3-0.3-0.6-0.4-1-0.4c-0.4,0-0.7,0.2-1,0.4
			c-0.6-0.5-0.6-0.6-0.6-1.2c0-0.3,0-0.6-0.1-1.1c-0.1-1-0.6-2-1.4-2.8l-2.5-2.5c-1.5-1.5-2.2-2.2-4.1-3c-4.1-1.9-8.3-1.6-14.4,1.2
			c-0.4,0.1-0.5,0.4-0.4,0.8c0.1,0.4,0.4,0.6,0.7,0.6h0.9c3.1,0,4.7,0,7.6,2.8c1.2,1.2,1.3,3.1,0.2,4.5c-0.1,0-0.3,0.1-0.4,0.2
			l-3.1,3.5l-2.4-2.4c-2.6-2.6-4.4-5.1-5.9-7.8c-0.1-1.4-0.6-2.7-1.6-3.7c-1.2-1.2-2.9-1.8-4.6-1.6c-0.2,0.1-0.4,0.2-0.5,0.4
			c-0.1,0.2-0.1,0.5,0,0.7l2,3.5c-0.4,0.9-1.4,1.5-2.4,1.4l-2.1-3.4c-0.1-0.2-0.4-0.4-0.6-0.4c-0.2-0.1-0.4,0.1-0.6,0.3
			c-1.7,2.5-1.1,5.9,1.5,7.7c0.9,0.6,1.9,1,2.9,1c0,0,0,0,0,0c2.8,1.4,5.2,3.3,7.9,5.9l2.6,2.5l-15,16.8c-0.6,0.6-0.8,1.3-0.8,2.1
			s0.3,1.5,0.8,2.1l1,1c0.6,0.5,1.3,0.8,2,0.8s1.5-0.3,2.1-0.8l15-16.8l4.4,4.4c1.5,1.5,3.4,4.1,5.9,7.9c0.1,1.4,0.6,2.6,1.6,3.6
			c1.1,1.1,2.5,1.6,4,1.6c0.2,0,0.4,0,0.6,0c0.2,0,0.4-0.1,0.6-0.4c0.1-0.2,0.1-0.5,0-0.7l-2.1-3.5c0.5-0.9,1.4-1.5,2.5-1.4l2,3.4
			c0.1,0.2,0.4,0.4,0.6,0.4c0.3-0.1,0.5-0.1,0.6-0.4C579.5,83,578.8,79.6,576.3,77.8z M560.2,51.9c-2.3-2.2-4-2.9-5.9-3.1
			c4-1.3,7-1.2,10,0.1c1.7,0.7,2.3,1.3,3.8,2.8l2.5,2.5c0.6,0.6,0.9,1.3,1,2c0.1,0.4,0.1,0.6,0.1,0.8c0,0.8,0.1,1.3,0.9,2.2
			c0.3,0.3,0.7,0.4,1.1,0.4c0.4,0,0.8-0.1,1-0.4l2.5,2.5c0.1,0.1,0.2,0.3,0.2,0.5s-0.1,0.4-0.2,0.5l-5,5c-0.3,0.3-0.7,0.3-1,0
			l-2.5-2.5c0.3-0.2,0.4-0.6,0.4-1c0-0.4-0.1-0.8-0.4-1.1c-0.8-0.8-1.4-0.9-2.2-0.9c-0.2,0-0.5,0-0.8-0.1c-0.8-0.1-1.4-0.4-2-1l-3-3
			C562,56.3,561.9,53.6,560.2,51.9z M538,50.2l1.5,2.5c0.1,0.2,0.4,0.4,0.6,0.4h0.4c1.6,0.1,3.1-0.8,3.8-2.2l0.1-0.4
			c0.1-0.2,0.1-0.4,0-0.6l-1.6-2.7c0.8,0.1,1.6,0.6,2.3,1.2c0.7,0.8,1.2,1.8,1.2,2.9c0,0.1,0,0.1,0,0.2c0,0.3,0,0.6-0.1,1
			c-0.3,1-0.9,1.9-1.8,2.5c-1.4,0.9-3.3,0.9-4.7-0.1C538.1,53.9,537.5,51.9,538,50.2z M550.6,62c-2.1-2.2-4.2-3.9-6.5-5.2
			c0.4-0.1,0.8-0.4,1.1-0.6c1.1-0.7,1.8-1.6,2.2-2.8c1.3,2.3,3,4.4,5.2,6.5l2.4,2.4l-1.9,2.1L550.6,62z M541.2,86.3
			c-0.6,0.6-1.5,0.6-2.1,0.1l-1-0.9c-0.3-0.3-0.4-0.6-0.4-1c0-0.4,0.1-0.8,0.5-1.1l0.4-0.4l1,1c0.1,0.1,0.3,0.2,0.5,0.2
			c0.2,0,0.4-0.1,0.5-0.2c0.3-0.3,0.3-0.7,0-1l-1.1-1.1l0.9-1l1.1,1.1c0.1,0.1,0.3,0.2,0.5,0.2c0.2,0,0.4-0.1,0.5-0.2
			c0.3-0.3,0.3-0.7,0-1l-1.2-1.2l18.2-20.4l3,3l-2.9,3.3c-0.1,0-0.2,0.1-0.2,0.2l-2.8,3.2c-0.1,0.1-0.1,0.2-0.2,0.3L541.2,86.3z
			 M558.2,69.5l1.9-2.2l4.6,4.6c1.3,1.3,3.5,3,6.7,5.2c-0.4,0.1-0.8,0.4-1.3,0.6c-0.9,0.5-1.5,1.3-1.9,2.2c0,0,0,0,0,0
			c0,0.1-0.1,0.1-0.1,0.2c0,0.1-0.1,0.1-0.1,0.2c0,0.1,0,0.1-0.1,0.2c0,0,0,0,0,0c0,0.1,0,0.1-0.1,0.2c-0.4-0.6-0.8-1.1-1.2-1.7
			l0.9-0.9c0.3-0.3,0.3-0.7,0-1c-0.3-0.3-0.7-0.3-1,0l-0.8,0.8c-0.3-0.4-0.6-0.8-0.9-1.1l0.7-0.7c0.3-0.3,0.3-0.7,0-1
			c-0.3-0.3-0.7-0.3-1,0l-0.5,0.5c-0.5-0.6-1-1.2-1.4-1.6L558.2,69.5z M577.1,83.6l-1.5-2.5c-0.1-0.2-0.4-0.4-0.6-0.4h-0.4
			c-1.6-0.1-3.1,0.8-3.8,2.2l-0.1,0.4c-0.1,0.2-0.1,0.4,0,0.6l1.6,2.7c-0.8-0.1-1.6-0.6-2.3-1.2c-0.7-0.8-1.2-1.8-1.2-2.8
			c0-0.1,0-0.1,0-0.2c0-0.9,0.3-1.7,0.8-2.4c0.3-0.4,0.7-0.8,1.1-1.1c0.7-0.5,1.5-0.7,2.3-0.7s1.7,0.3,2.4,0.8
			C577,80,577.6,81.9,577.1,83.6z"/>
	</g>
</g>
</svg>
