<?xml version="1.0" encoding="utf-8"?>
<!-- Generator: Adobe Illustrator 17.1.0, SVG Export Plug-In . SVG Version: 6.00 Build 0)  -->
<!DOCTYPE svg PUBLIC "-//W3C//DTD SVG 1.1//EN" "http://www.w3.org/Graphics/SVG/1.1/DTD/svg11.dtd">
<svg version="1.1" id="Layer_1" xmlns="http://www.w3.org/2000/svg" xmlns:xlink="http://www.w3.org/1999/xlink" x="0px" y="0px"
	 viewBox="508.5 18 100 100" enable-background="new 508.5 18 100 100" xml:space="preserve">
<g>
	
		<rect x="524.2" y="33.6" transform="matrix(-0.7071 0.7071 -0.7071 -0.7071 1001.5458 -278.8538)" fill="#0878FF" width="68.7" height="68.7"/>
	<path fill="#001840" d="M558.5,20.8L605.7,68l-47.2,47.2L511.4,68L558.5,20.8 M558.5,18l-50,50l50,50l50-50L558.5,18L558.5,18z"/>
</g>
<g>
	<g>
		<path fill="#FFFFFF" d="M544.5,73.1c-2.2,0-4.1,1.8-4.1,4.1c0,2.2,1.8,4.1,4.1,4.1c2.2,0,4.1-1.8,4.1-4.1
			C548.6,74.9,546.8,73.1,544.5,73.1z M544.5,79.6c-1.4,0-2.5-1.1-2.5-2.5c0-1.4,1.1-2.5,2.5-2.5c1.4,0,2.5,1.1,2.5,2.5
			C547,78.5,545.9,79.6,544.5,79.6z"/>
	</g>
</g>
<g>
	<g>
		<path fill="#FFFFFF" d="M572.9,73.1c-2.2,0-4.1,1.8-4.1,4.1c0,2.2,1.8,4.1,4.1,4.1c2.2,0,4.1-1.8,4.1-4.1
			C577,74.9,575.2,73.1,572.9,73.1z M572.9,79.6c-1.4,0-2.5-1.1-2.5-2.5c0-1.4,1.1-2.5,2.5-2.5c1.4,0,2.5,1.1,2.5,2.5
			C575.4,78.5,574.3,79.6,572.9,79.6z"/>
	</g>
</g>
<g>
	<g>
		<path fill="#FFFFFF" d="M579.5,58C579.5,58,579.5,58,579.5,58c-0.5-0.6-1.7-2-3.8-2c-0.8,0-12.9,0-13.4,0c-0.4,0-0.7,0.2-0.8,0.6
			l-4.3-8.5c-0.3-0.6-0.9-1-1.5-1.1c-8.8-1-20.1,4.8-24.4,12.3c-0.3,0.6-0.4,1.3-0.1,1.9l5.4,10.7h-2.4c-1.5,0-2.8,1.2-2.8,2.8v0.5
			c0,1.5,1.2,2.8,2.8,2.8h2c0.4,4.2,3.9,7.5,8.2,7.5c4.3,0,7.8-3.3,8.2-7.5c1.2,0,10.8,0,12,0c0.4,4.2,3.9,7.5,8.2,7.5
			c2.5,0,4.8-1.1,6.4-3c0.3-0.3,0.2-0.9-0.1-1.1c-0.3-0.3-0.8-0.2-1.1,0.1c-1.3,1.5-3.1,2.4-5.1,2.4c-3.7,0-6.6-3-6.6-6.6
			c0-3.7,3-6.6,6.6-6.6c4.6,0,7.8,4.5,6.3,8.9c-0.1,0.4,0.1,0.9,0.5,1c0.4,0.1,0.9-0.1,1-0.5c0.2-0.6,0.4-1.3,0.4-2h2.1
			c1.5,0,2.8-1.2,2.8-2.8v-7.5C586,67.3,586.4,67.9,579.5,58z M550.4,71.4c4.2-1.8,8.3-4.7,11.1-8.2v8.8h-10.6v0
			C550.7,71.7,550.6,71.6,550.4,71.4z M544.1,50.7l1.6,3.1c0.2,0.4,0.7,0.6,1.1,0.4c0.4-0.2,0.6-0.7,0.4-1.1l-1.5-2.9
			c3.1-1.1,6.6-1.8,9.9-1.5c0.1,0,0.2,0.1,0.3,0.2c6.1,12.1,5.8,11.3,5.6,11.5c-1.5,2.6-4,5.1-7,7.1l-6.1-12
			c-0.2-0.4-0.7-0.6-1.1-0.4c-0.4,0.2-0.6,0.7-0.4,1.1l6.1,12.1c-1.1,0.6-2.1,1.1-3,1.5l-8.9-17.6C542.1,51.6,543.1,51.1,544.1,50.7
			z M532.7,60.5c-0.1-0.1-0.1-0.2,0-0.3c1.5-2.6,4-5.1,7-7.1l8.4,16.7c-3.3-1.6-7.3-0.8-9.8,1.9C538.3,71.7,532.7,60.5,532.7,60.5z
			 M536.3,76.4h-2c-0.6,0-1.2-0.5-1.2-1.2v-0.5c0-0.6,0.5-1.2,1.2-1.2h2.8C536.6,74.5,536.4,75.5,536.3,76.4z M544.5,83.8
			c-5.7,0-8.8-6.8-4.9-11.1c4.1-4.5,11.6-1.6,11.6,4.5C551.2,80.8,548.2,83.8,544.5,83.8z M561.5,76.4h-8.7
			c-0.1-0.9-0.4-1.9-0.8-2.8h9.5V76.4z M567.9,57.6c8.5,0,8.2-0.1,8.9,0.2c0.7,0.3,1.2,0.8,1.4,1.1l4,5.8h-13.1
			c-0.6,0-1.2-0.5-1.2-1.2L567.9,57.6L567.9,57.6z M584.4,75.2c0,0.6-0.5,1.2-1.2,1.2h-2.1c-0.1-1.1-0.5-2.3-1.1-3.4
			c-4-6.8-14.6-4.6-15.3,3.4h-1.6c0-0.2,0-18.6,0-18.7h3.2v5.9c0,1.5,1.2,2.8,2.8,2.8h14.2l1.1,1.6L584.4,75.2L584.4,75.2z"/>
	</g>
</g>
</svg>
