<?xml version="1.0" encoding="utf-8"?>
<!-- Generator: Adobe Illustrator 17.1.0, SVG Export Plug-In . SVG Version: 6.00 Build 0)  -->
<!DOCTYPE svg PUBLIC "-//W3C//DTD SVG 1.1//EN" "http://www.w3.org/Graphics/SVG/1.1/DTD/svg11.dtd">
<svg version="1.1" id="Layer_1" xmlns="http://www.w3.org/2000/svg" xmlns:xlink="http://www.w3.org/1999/xlink" x="0px" y="0px"
	 viewBox="508.5 18 100 100" enable-background="new 508.5 18 100 100" xml:space="preserve">
<g>
	
		<rect x="524.2" y="33.6" transform="matrix(-0.7071 0.7071 -0.7071 -0.7071 1001.5458 -278.8538)" fill="#0878FF" width="68.7" height="68.7"/>
	<path fill="#001840" d="M558.5,20.8L605.7,68l-47.2,47.2L511.4,68L558.5,20.8 M558.5,18l-50,50l50,50l50-50L558.5,18L558.5,18z"/>
</g>
<g>
	<g>
		<g>
			<path fill="#FFFFFF" d="M577.9,82.8L577.9,82.8l0.1-4.2c0-0.1,0-2.2-0.7-4.4l-2.3-5.3h-1.8h-1.8l-2.3,5.3
				c-0.7,2.2-0.7,4.3-0.7,4.4V80h-2.1c-1.1,0-2.1-0.9-2.1-2.1V75c3.3-1.9,5.5-5.5,5.5-9.6v-0.1c1.2-0.3,2.1-1.4,2.1-2.7
				c0-1.2-0.5-2-0.7-2.4c0-0.1,0-0.3,0-0.4v-1.4c0-6.9-5.6-12.5-12.5-12.5c-6.9,0-12.5,5.6-12.5,12.5v1.4c0,0.1,0,0.3,0,0.4
				c-0.3,0.3-0.7,1.1-0.7,2.4c0,1.3,0.9,2.4,2.1,2.7v0.1c0,4.1,2.2,7.7,5.5,9.6v2.9c0,1.1-0.9,2.1-2.1,2.1h-3.5v-1
				c1.4-0.8,2.1-2.2,2.1-3.9c0-1.7-1.1-3.7-3.3-4.1l-0.8-0.2v3.6H544v-3.6l-0.8,0.2c-2.2,0.5-3.3,2.5-3.3,4.1c0,1.7,0.7,3.1,2.1,3.9
				v1.7c-2.9,1.3-4.9,4.2-4.9,7.6V89h1.4v-0.7c0-3.6,2.7-6.6,6.2-6.9V89h1.4v-7.6h2.1V89h1.4v-7.6h1.4c0.3,0,0.6,0,0.8-0.1
				c0.6,3.2,3.4,5.7,6.8,5.7c3.4,0,6.2-2.4,6.8-5.7c0.3,0.1,0.5,0.1,0.8,0.1h1.4V89h1.4v-7.6h2.1V89h1.4v-7.6
				c3.5,0.3,6.2,3.3,6.2,6.9V89h1.4v-0.7C580,86.2,579.2,84.2,577.9,82.8z M546.4,78l-0.4,0.2V80h-0.7c-0.7,0-1.4,0.1-2.1,0.3v-2.1
				l-0.4-0.2c-1.1-0.6-1.7-1.5-1.7-2.8c0-0.9,0.5-1.9,1.4-2.5v3.1h4.2v-3.1c0.9,0.6,1.4,1.6,1.4,2.5C548.1,76.5,547.6,77.4,546.4,78
				z M569.6,62.1c0.2-0.1,0.4-0.3,0.5-0.4c0.1,0.3,0.2,0.6,0.2,1c0,0.5-0.3,1-0.7,1.2V62.1z M557.8,47.4v4.8h1.4v-4.8
				c5.7,0.4,10.2,5,10.4,10.7c-2.5-1.3-7.6-1.7-11.1-1.7c-3.4,0-8.6,0.4-11.1,1.7C547.6,52.4,552.2,47.8,557.8,47.4z M547.4,63.8
				c-0.4-0.2-0.7-0.7-0.7-1.2c0-0.4,0.1-0.7,0.2-1c0.2,0.1,0.3,0.3,0.5,0.4V63.8z M547.4,59.9c0.1-0.7,4.2-2.1,11.1-2.1
				c6.9,0,11,1.4,11.1,2.1c0,1.4-4.2,2.8-11.1,2.8C551.6,62.6,547.4,61.2,547.4,59.9z M548.8,65.4v-2.7c3.1,1.2,7.8,1.3,9.7,1.3
				c1.9,0,6.7-0.1,9.7-1.3v2.7c0,5.4-4.4,9.7-9.7,9.7S548.8,70.8,548.8,65.4z M558.5,85.5c-2.8,0-5.2-2.1-5.5-4.9
				c0.8-0.6,1.3-1.6,1.3-2.7v-2.2c1.3,0.5,2.7,0.8,4.2,0.8c1.5,0,2.9-0.3,4.2-0.8v2.2c0,1.1,0.5,2.1,1.3,2.7
				C563.7,83.4,561.4,85.5,558.5,85.5z M571.6,80h-1.9v-1.4c0,0,0-2,0.6-3.9l1.9-4.4h0.2v6.4c-0.8,0.3-1.4,1.1-1.4,2
				C571,79.1,571.2,79.6,571.6,80z M573.1,79.3c-0.4,0-0.7-0.3-0.7-0.7c0-0.4,0.3-0.7,0.7-0.7c0.4,0,0.7,0.3,0.7,0.7
				C573.8,79,573.5,79.3,573.1,79.3z M576.6,81.6c-0.7-0.5-1.5-0.9-2.4-1.2c0.6-0.4,1-1,1-1.8c0-0.9-0.6-1.7-1.4-2v-6.4h0.2l1.9,4.4
				c0.6,1.9,0.7,3.9,0.7,3.9V81.6L576.6,81.6z"/>
			<polygon fill="#FFFFFF" points="559.2,66.1 565.5,66.1 565.5,64.7 557.8,64.7 557.8,71.7 559.2,71.7 			"/>
			<rect x="549.5" y="55" fill="#FFFFFF" width="1.4" height="1.4"/>
			<rect x="552.3" y="54.3" fill="#FFFFFF" width="1.4" height="1.4"/>
		</g>
	</g>
</g>
</svg>
