<?xml version="1.0" encoding="utf-8"?>
<!-- Generator: Adobe Illustrator 17.1.0, SVG Export Plug-In . SVG Version: 6.00 Build 0)  -->
<!DOCTYPE svg PUBLIC "-//W3C//DTD SVG 1.1//EN" "http://www.w3.org/Graphics/SVG/1.1/DTD/svg11.dtd">
<svg version="1.1" id="Layer_1" xmlns="http://www.w3.org/2000/svg" xmlns:xlink="http://www.w3.org/1999/xlink" x="0px" y="0px"
	 viewBox="508.5 18 100 100" enable-background="new 508.5 18 100 100" xml:space="preserve">
<g>
	
		<rect x="524.2" y="33.6" transform="matrix(-0.7071 0.7071 -0.7071 -0.7071 1001.5458 -278.8538)" fill="#0878FF" width="68.7" height="68.7"/>
	<path fill="#001840" d="M558.5,20.8L605.7,68l-47.2,47.2L511.4,68L558.5,20.8 M558.5,18l-50,50l50,50l50-50L558.5,18L558.5,18z"/>
</g>
<g transform="translate(1 1)">
	<g>
		<path fill="#FFFFFF" d="M579,60.1h-5.4H569v-5.4c0-0.5-0.3-0.8-0.8-0.8h-10.7h-4.6v-5.4c0-0.5-0.3-0.8-0.8-0.8h-10.7h-5.4
			c-0.5,0-0.8,0.3-0.8,0.8v6.1v6.1V67v6.1v6.1v6.1c0,0.5,0.3,0.8,0.8,0.8h10.7h10.7h10.7H579c0.5,0,0.8-0.3,0.8-0.8v-6.1v-6.1V67
			v-6.1C579.8,60.4,579.5,60.1,579,60.1z M568.3,78.5h-4.6v-4.6h4.6h4.6v4.6H568.3z M557.5,78.5h-4.6v-4.6h4.6h4.6v4.6H557.5z
			 M546.8,78.5h-4.6v-4.6h4.6h4.6v4.6H546.8z M536.8,78.5v-4.6h3.8v4.6H536.8z M541.4,55.5h4.6v4.6h-4.6h-4.6v-4.6H541.4z
			 M557.5,61.6h4.6v4.6h-4.6h-4.6v-4.6C552.9,61.6,557.5,61.6,557.5,61.6z M573.6,67.8h4.6v4.6h-4.6H569v-4.6H573.6z M567.5,72.4
			h-4.6h-4.6v-4.6h4.6h4.6V72.4z M552.2,72.4h-4.6v-4.6h4.6h4.6v4.6H552.2z M541.4,72.4h-4.6v-4.6h4.6h4.6v4.6H541.4z M536.8,61.6
			h3.8v4.6h-3.8C536.8,66.2,536.8,61.6,536.8,61.6z M551.4,66.2h-4.6h-4.6v-4.6h4.6h4.6L551.4,66.2L551.4,66.2z M574.4,73.9h3.8v4.6
			h-3.8V73.9z M578.2,66.2h-3.8v-4.6h3.8V66.2z M572.9,66.2h-4.6h-4.6v-4.6h4.6h4.6V66.2z M567.5,60.1h-4.6h-4.6v-4.6h9.2
			C567.5,55.5,567.5,60.1,567.5,60.1z M556.8,60.1h-4.6h-4.6v-4.6h4.6h4.6V60.1z M551.4,54h-4.6h-4.6v-4.6h9.2L551.4,54L551.4,54z
			 M536.8,49.4h3.8V54h-3.8C536.8,54,536.8,49.4,536.8,49.4z M536.8,80h4.6h4.6v4.6h-9.2V80z M547.6,80h4.6h4.6v4.6h-9.2V80z
			 M558.3,80h4.6h4.6v4.6h-9.2V80z M578.2,84.6H569V80h4.6h4.6L578.2,84.6L578.2,84.6z"/>
	</g>
</g>
</svg>
