<?xml version="1.0" encoding="utf-8"?>
<!-- Generator: Adobe Illustrator 17.1.0, SVG Export Plug-In . SVG Version: 6.00 Build 0)  -->
<!DOCTYPE svg PUBLIC "-//W3C//DTD SVG 1.1//EN" "http://www.w3.org/Graphics/SVG/1.1/DTD/svg11.dtd">
<svg version="1.1" id="Layer_1" xmlns="http://www.w3.org/2000/svg" xmlns:xlink="http://www.w3.org/1999/xlink" x="0px" y="0px"
	 viewBox="508.5 18 100 100" enable-background="new 508.5 18 100 100" xml:space="preserve">
<g>
	
		<rect x="524.2" y="33.6" transform="matrix(-0.7071 0.7071 -0.7071 -0.7071 1001.5458 -278.8538)" fill="#0878FF" width="68.7" height="68.7"/>
	<path fill="#001840" d="M558.5,20.8L605.7,68l-47.2,47.2L511.4,68L558.5,20.8 M558.5,18l-50,50l50,50l50-50L558.5,18L558.5,18z"/>
</g>
<g>
	<g id="iconos_44_">
		<path fill="#FFFFFF" d="M568.2,78.3l-10-5.3c0.3,0.8,1.1,1.3,2,1.9c0.4,0.3,0.9,0.6,1.4,1c0.4,0.4,1,0.9,0.9,1.5
			c-0.1,0.7-1,1.1-1.9,1.4c-1.1,0.4-5,1.6-6.7,2l-0.7,0.2c-1.7,0.5-3.7,1-5.7,1.3c-1.2,0.1-2.5,0.9-3.5,1.5
			c-0.9,0.5-2.4,1.1-2.5,1.1h-0.2c-0.3,0-0.7,0-1.1-0.1l-1.7,2.8L568.2,78.3z"/>
		<path fill="#FFFFFF" d="M577.9,48.8c-1.1-1.6-3.4-2-5-0.9l-10.2,7.2c-1.5,1-1.9,3-1.1,4.5l-2.8,2c-0.2,0.2-0.3,0.4-0.3,0.7v8.1
			l-1.2,1.1c0.4,0.2,0.7,0.6,0.8,1.1c0,0.1,0.1,0.2,0.1,0.3l1.7-1.6c0.2-0.2,0.3-0.4,0.3-0.6v-8l2.5-1.8c1.2,1,3,1.1,4.4,0.2
			l10.2-7.2c1.6-1.1,2-3.4,0.9-5L577.9,48.8z"/>
		<path fill="#FFFFFF" d="M548.4,69.8c-0.9,0.5-1.7,1.8-1.7,2.6c0,0.1,0,0.2,0,0.3c-0.1,0.5-0.4,0.9-0.8,1.3
			c-0.6,0.5-1.3,0.9-1.8,1.2c-3.3,1.5-4.8,2.8-5.5,4.8c-0.2,0.9-0.5,2.7-0.2,3.3c0.3,0.6,0.8,0.8,1.4,0.9c0.2,0,0.4,0,0.7,0h0.2
			c0.2,0,0.7-0.2,0.7-0.2s0.8-0.4,1.5-0.8c1.1-0.7,2.4-1.5,3.7-1.6c1.9-0.2,3.9-0.8,5.5-1.2l0.6-0.2c1.8-0.5,5.7-1.6,6.6-2
			c0.6-0.2,1.4-0.6,1.5-0.8c0,0,0-0.3-0.6-0.8c-0.4-0.4-0.9-0.7-1.3-1c-1.2-0.8-2.2-1.5-2.4-2.7c-0.1-0.4-0.3-0.6-0.6-0.7
			c-0.2-0.1-0.4-0.2-0.6-0.2c0,0,0,0,0,0c-0.6-0.2-1.3-0.5-2-1.1c0,0-0.1-0.1-0.1-0.1c-0.7-0.7-1.6-1.1-2.4-1.3
			c-0.2,0-0.4-0.1-0.7-0.1c-0.5,0-1,0.1-1.4,0.3C548.5,69.7,548.5,69.7,548.4,69.8z"/>
	</g>
</g>
</svg>
