<?xml version="1.0" encoding="utf-8"?>
<!-- Generator: Adobe Illustrator 17.1.0, SVG Export Plug-In . SVG Version: 6.00 Build 0)  -->
<!DOCTYPE svg PUBLIC "-//W3C//DTD SVG 1.1//EN" "http://www.w3.org/Graphics/SVG/1.1/DTD/svg11.dtd">
<svg version="1.1" id="Layer_1" xmlns="http://www.w3.org/2000/svg" xmlns:xlink="http://www.w3.org/1999/xlink" x="0px" y="0px"
	 viewBox="508.5 18 100 100" enable-background="new 508.5 18 100 100" xml:space="preserve">
<g>
	
		<rect x="524.2" y="33.6" transform="matrix(-0.7071 0.7071 -0.7071 -0.7071 1001.5458 -278.8538)" fill="#0878FF" width="68.7" height="68.7"/>
	<path fill="#001840" d="M558.5,20.8L605.7,68l-47.2,47.2L511.4,68L558.5,20.8 M558.5,18l-50,50l50,50l50-50L558.5,18L558.5,18z"/>
</g>
<g>
	<g>
		<path fill="#FFFFFF" d="M577.8,51.5c0.4,0,0.7-0.3,0.7-0.7v-2.1c0-0.4-0.3-0.7-0.7-0.7H547c-0.4,0-0.7,0.3-0.7,0.7v30.8
			c0,0.4,0.3,0.7,0.7,0.7h30.8c0.4,0,0.7-0.3,0.7-0.7V53.1c0-0.4-0.3-0.7-0.7-0.7c-0.4,0-0.7,0.3-0.7,0.7v11.7h-2.7
			c-0.4,0-0.7,0.3-0.7,0.7s0.3,0.7,0.7,0.7h2.7v12.7h-19.5v-3.3c0-0.4-0.3-0.7-0.7-0.7c-0.4,0-0.7,0.3-0.7,0.7v3.3h-8.6V49.4h8.6
			v21.3c0,0.4,0.3,0.7,0.7,0.7c0.4,0,0.7-0.3,0.7-0.7v-4.5h12.1c0.4,0,0.7-0.3,0.7-0.7c0-0.4-0.3-0.7-0.7-0.7h-12.1V49.4h19.5v1.5
			C577.2,51.2,577.5,51.5,577.8,51.5z"/>
	</g>
</g>
<g>
	<g>
		<path fill="#FFFFFF" d="M544.3,51.9l-2.2-3.6c-0.1-0.2-0.3-0.3-0.6-0.3c-0.2,0-0.5,0.1-0.6,0.3l-2.2,3.6c-0.1,0.2-0.1,0.5,0,0.7
			s0.3,0.4,0.6,0.4h1.6v2.8c0,0.4,0.3,0.7,0.7,0.7c0.4,0,0.7-0.3,0.7-0.7V53h1.6c0.2,0,0.5-0.1,0.6-0.4
			C544.4,52.4,544.4,52.1,544.3,51.9z M540.4,51.6l1-1.6l1,1.6H540.4z"/>
	</g>
</g>
<g>
	<g>
		<path fill="#FFFFFF" d="M544.3,75.6c-0.1-0.2-0.3-0.4-0.6-0.4h-1.6V57.6c0-0.4-0.3-0.7-0.7-0.7s-0.7,0.3-0.7,0.7v17.6h-1.6
			c-0.2,0-0.5,0.1-0.6,0.4c-0.1,0.2-0.1,0.5,0,0.7l2.2,3.6c0.1,0.2,0.3,0.3,0.6,0.3c0.2,0,0.5-0.1,0.6-0.3l2.2-3.6
			C544.4,76.1,544.4,75.8,544.3,75.6z M541.5,78.2l-1-1.6h2L541.5,78.2z"/>
	</g>
</g>
<g>
	<g>
		<path fill="#FFFFFF" d="M578.2,84.5l-3.6-2.2c-0.2-0.1-0.5-0.1-0.7,0c-0.2,0.1-0.4,0.3-0.4,0.6v1.6h-22.2v-1.6
			c0-0.2-0.1-0.5-0.4-0.6c-0.2-0.1-0.5-0.1-0.7,0l-3.6,2.2c-0.2,0.1-0.3,0.3-0.3,0.6s0.1,0.5,0.3,0.6l3.6,2.2
			c0.1,0.1,0.2,0.1,0.4,0.1c0.1,0,0.2,0,0.3-0.1c0.2-0.1,0.4-0.3,0.4-0.6v-1.6h22.2v1.6c0,0.2,0.1,0.5,0.4,0.6
			c0.1,0.1,0.2,0.1,0.3,0.1c0.1,0,0.3,0,0.4-0.1l3.6-2.2c0.2-0.1,0.3-0.3,0.3-0.6C578.5,84.8,578.4,84.6,578.2,84.5z M549.9,86.1
			l-1.6-1l1.6-1V86.1z M574.9,86.1v-2l1.6,1L574.9,86.1z"/>
	</g>
</g>
</svg>
