<?xml version="1.0" encoding="utf-8"?>
<!-- Generator: Adobe Illustrator 17.1.0, SVG Export Plug-In . SVG Version: 6.00 Build 0)  -->
<!DOCTYPE svg PUBLIC "-//W3C//DTD SVG 1.1//EN" "http://www.w3.org/Graphics/SVG/1.1/DTD/svg11.dtd">
<svg version="1.1" id="Layer_1" xmlns="http://www.w3.org/2000/svg" xmlns:xlink="http://www.w3.org/1999/xlink" x="0px" y="0px"
	 viewBox="508.5 18 100 100" enable-background="new 508.5 18 100 100" xml:space="preserve">
<g>
	
		<rect x="524.2" y="33.6" transform="matrix(-0.7071 0.7071 -0.7071 -0.7071 1001.5458 -278.8538)" fill="#0878FF" width="68.7" height="68.7"/>
	<path fill="#001840" d="M558.5,20.8L605.7,68l-47.2,47.2L511.4,68L558.5,20.8 M558.5,18l-50,50l50,50l50-50L558.5,18L558.5,18z"/>
</g>
<path fill="#FFFFFF" d="M557.1,75.5c-0.4,0-0.7-0.3-0.7-0.7v-5c0-1.6,1.3-2.8,2.8-2.8c5.9-0.5,14.9-1.3,15.5-1.4
	c1.3-0.3,2.3-1.5,2.3-2.8v-2.8c0-1.6-1.3-2.8-2.8-2.8c-0.4,0-0.7-0.3-0.7-0.7s0.3-0.7,0.7-0.7c2.3,0,4.3,1.9,4.3,4.3v2.8
	c0,2.1-1.4,3.8-3.4,4.3c-0.6,0.1-13.2,1.2-15.7,1.4c-0.9,0-1.5,0.6-1.5,1.4v5C557.8,75.3,557.5,75.5,557.1,75.5"/>
<path fill="#FFFFFF" d="M562.1,74.8h-9.9l0.7,3.5h1.4v11.4c0,1.6,1.3,2.8,2.8,2.8s2.8-1.3,2.8-2.8V78.4h1.4L562.1,74.8z"/>
<path fill="#FFFFFF" d="M540.8,57.1v2.8c0,0.8,0.6,1.4,1.4,1.4h30.5c0.8,0,1.4-0.6,1.4-1.4v-7.1c0-0.8-0.6-1.4-1.4-1.4h-30.5
	c-0.8,0-1.4,0.6-1.4,1.4v2.8V57.1z"/>
<path fill="#FFFFFF" d="M539.4,55.7c-0.4,0-0.7,0.3-0.7,0.7s0.3,0.7,0.7,0.7h1.4v-1.4H539.4z"/>
<g>
	<path fill="#FFFFFF" d="M543.6,59.2c-0.1,0-0.4-0.1-0.4-0.1c-0.3-0.3-0.4-0.7-0.1-1l3.5-4.3c0.3-0.3,0.7-0.4,1-0.1
		c0.3,0.3,0.4,0.7,0.1,1l-3.5,4.3C544,59.1,543.8,59.2,543.6,59.2"/>
	<path fill="#FFFFFF" d="M548.6,59.2c-0.1,0-0.4-0.1-0.4-0.1c-0.3-0.3-0.4-0.7-0.1-1l3.5-4.3c0.3-0.3,0.7-0.4,1-0.1
		c0.3,0.3,0.4,0.7,0.1,1l-3.5,4.3C549,59.1,548.8,59.2,548.6,59.2"/>
	<path fill="#FFFFFF" d="M553.6,59.2c-0.1,0-0.4-0.1-0.4-0.1c-0.3-0.3-0.4-0.7-0.1-1l3.5-4.3c0.3-0.3,0.7-0.4,1-0.1
		c0.3,0.3,0.4,0.7,0.1,1l-3.5,4.3C554,59.1,553.8,59.2,553.6,59.2"/>
	<path fill="#FFFFFF" d="M558.5,59.2c-0.1,0-0.4-0.1-0.4-0.1c-0.3-0.3-0.4-0.7-0.1-1l3.5-4.3c0.3-0.3,0.7-0.4,1-0.1
		c0.3,0.3,0.4,0.7,0.1,1l-3.5,4.3C559,59.1,558.7,59.2,558.5,59.2"/>
	<path fill="#FFFFFF" d="M563.5,59.2c-0.1,0-0.4-0.1-0.4-0.1c-0.3-0.3-0.4-0.7-0.1-1l3.5-4.3c0.3-0.3,0.7-0.4,1-0.1
		c0.3,0.3,0.4,0.7,0.1,1l-3.5,4.3C563.9,59.1,563.7,59.2,563.5,59.2"/>
	<path fill="#FFFFFF" d="M567.8,59.2c-0.1,0-0.4-0.1-0.4-0.1c-0.3-0.3-0.4-0.7-0.1-1l3.5-4.3c0.3-0.3,0.7-0.4,1-0.1
		c0.3,0.3,0.4,0.7,0.1,1l-3.5,4.3C568.2,59.1,568,59.2,567.8,59.2"/>
</g>
<path fill="#FFFFFF" d="M550.7,61.4h-8.5v5c0,1.2,0.9,2.1,2.1,2.1s2.1-0.9,2.1-2.1V72c0,1.2,0.9,2.1,2.1,2.1s2.1-0.9,2.1-2.1v-7.5
	c0,1,0.8,1.8,1.8,1.8s1.8-0.8,1.8-1.8v-3.2H550.7z"/>
<g>
	<path fill="#FFFFFF" d="M556.4,85.5h-2.1v1.4h2.1c0.4,0,0.7-0.3,0.7-0.7S556.8,85.5,556.4,85.5"/>
	<path fill="#FFFFFF" d="M557.1,89c0-0.4-0.3-0.7-0.7-0.7h-2.1v1.4h2.1C556.8,89.7,557.1,89.5,557.1,89"/>
</g>
</svg>
