<?xml version="1.0" encoding="utf-8"?>
<!-- Generator: Adobe Illustrator 17.1.0, SVG Export Plug-In . SVG Version: 6.00 Build 0)  -->
<!DOCTYPE svg PUBLIC "-//W3C//DTD SVG 1.1//EN" "http://www.w3.org/Graphics/SVG/1.1/DTD/svg11.dtd">
<svg version="1.1" id="Layer_1" xmlns="http://www.w3.org/2000/svg" xmlns:xlink="http://www.w3.org/1999/xlink" x="0px" y="0px"
	 viewBox="508.5 18 100 100" enable-background="new 508.5 18 100 100" xml:space="preserve">
<g>
	
		<rect x="524.2" y="33.6" transform="matrix(-0.7071 0.7071 -0.7071 -0.7071 1001.5458 -278.8538)" fill="#0878FF" width="68.7" height="68.7"/>
	<path fill="#001840" d="M558.5,20.8L605.7,68l-47.2,47.2L511.4,68L558.5,20.8 M558.5,18l-50,50l50,50l50-50L558.5,18L558.5,18z"/>
</g>
<g>
	<g>
		<path fill="#FFFFFF" d="M574.6,47.5h-32.1c-2.5,0-4.5,2-4.5,4.5V84c0,2.5,2,4.5,4.5,4.5h32.1c2.5,0,4.5-2,4.5-4.5V52
			C579,49.5,577,47.5,574.6,47.5z M540.7,52c0-1,0.8-1.8,1.8-1.8h14.7v5.9l-10.6,10.6h-5.9V52z M557.2,85.8h-14.7
			c-1,0-1.8-0.8-1.8-1.8V69.3h5.9l10.6,10.6C557.2,79.9,557.2,85.8,557.2,85.8z M549.1,68l9.4-9.4L568,68l-9.4,9.4L549.1,68z
			 M576.3,84c0,1-0.8,1.8-1.8,1.8h-14.7v-5.9l10.6-10.6h5.9V84z M576.3,66.7h-5.9l-10.6-10.6v-5.9h14.7c1,0,1.8,0.8,1.8,1.8V66.7z"
			/>
	</g>
</g>
</svg>
