<?xml version="1.0" encoding="utf-8"?>
<!-- Generator: Adobe Illustrator 17.1.0, SVG Export Plug-In . SVG Version: 6.00 Build 0)  -->
<!DOCTYPE svg PUBLIC "-//W3C//DTD SVG 1.1//EN" "http://www.w3.org/Graphics/SVG/1.1/DTD/svg11.dtd">
<svg version="1.1" id="Layer_1" xmlns="http://www.w3.org/2000/svg" xmlns:xlink="http://www.w3.org/1999/xlink" x="0px" y="0px"
	 viewBox="508.5 18 100 100" enable-background="new 508.5 18 100 100" xml:space="preserve">
<g>
	
		<rect x="524.2" y="33.6" transform="matrix(-0.7071 0.7071 -0.7071 -0.7071 1001.5458 -278.8538)" fill="#0878FF" width="68.7" height="68.7"/>
	<path fill="#001840" d="M558.5,20.8L605.7,68l-47.2,47.2L511.4,68L558.5,20.8 M558.5,18l-50,50l50,50l50-50L558.5,18L558.5,18z"/>
</g>
<g>
	<g>
		<g>
			<path fill="#FFFFFF" d="M583.6,71.2l-14.1-14.1l7.3-7.3c0.2-0.2,0.3-0.5,0.3-0.8c0-0.3-0.1-0.6-0.3-0.8l-6.8-6.7
				c-0.4-0.4-1.2-0.4-1.6,0l-5.9,5.9l-5.9-5.9c-0.2-0.2-0.5-0.3-0.8-0.3s-0.6,0.1-0.8,0.3l-14.9,14.9l-6.8,6.8
				c-0.4,0.4-0.4,1.2,0,1.6l14.1,14.1l-7.3,7.3c-0.2,0.2-0.3,0.5-0.3,0.8s0.1,0.6,0.3,0.8l6.8,6.8c0.2,0.2,0.5,0.3,0.8,0.3
				c0.3,0,0.6-0.1,0.8-0.3l6-6l5.9,5.9c0.2,0.2,0.5,0.3,0.8,0.3c0.3,0,0.6-0.1,0.8-0.3l14.8-14.8l6.8-6.8
				C584.1,72.4,584.1,71.6,583.6,71.2z M563.4,49.8C563.4,49.8,563.4,49.8,563.4,49.8l5.9-5.9l5.2,5.1l-7.3,7.3c0,0,0,0,0,0l-6,6
				l-5.2-5.2L563.4,49.8z M567.8,72.1l-5.1,5.1l-6-6l-7.3-7.3l5.1-5.1l6,6L567.8,72.1z M555.8,43.9L561,49l-3.5,3.5l-3.9,3.9
				l-5.9,5.9l-5.1-5.1L555.8,43.9z M535.8,63.9l1.8-1.8l8.6,8.6c0.2,0.2,0.5,0.3,0.8,0.3s0.6-0.1,0.8-0.3c0.4-0.4,0.4-1.2,0-1.6
				l-8.6-8.6l1.8-1.8l5.9,5.9c0,0,0,0,0,0l7.3,7.3l-1.8,1.8l-3.4,3.4L535.8,63.9z M553.7,86.1C553.7,86.1,553.7,86.1,553.7,86.1
				l-6,6l-5.2-5.2l9.8-9.8l3.5-3.5l4.8,4.8l0.4,0.4l-3.5,3.5L553.7,86.1z M561.2,92l-5.1-5.1l7.3-7.3l5.9-5.9l5.1,5.1L561.2,92z
				 M576.1,77.2l-5.9-5.9l-7.4-7.4l1.7-1.7l8.7,8.7c0.2,0.2,0.5,0.3,0.8,0.3s0.6-0.1,0.8-0.3c0.4-0.4,0.4-1.2,0-1.6l-8.7-8.7
				l1.9-1.9L581.2,72L576.1,77.2z"/>
		</g>
	</g>
	<g>
		<g>
			<path fill="#FFFFFF" d="M550.5,72.1c0-0.1,0-0.1-0.1-0.2c0-0.1-0.1-0.1-0.1-0.2c0-0.1-0.1-0.1-0.1-0.2c-0.1-0.1-0.1-0.1-0.2-0.1
				c-0.1,0-0.1-0.1-0.2-0.1c-0.1,0-0.1,0-0.2-0.1c-0.1,0-0.3,0-0.4,0c-0.1,0-0.1,0-0.2,0.1s-0.1,0.1-0.2,0.1c-0.1,0-0.1,0.1-0.2,0.1
				c-0.1,0.1-0.1,0.1-0.1,0.2c0,0.1-0.1,0.1-0.1,0.2c0,0.1,0,0.1-0.1,0.2c0,0.1,0,0.1,0,0.2c0,0.1,0,0.1,0,0.2c0,0.1,0,0.1,0.1,0.2
				c0,0.1,0.1,0.1,0.1,0.2c0,0.1,0.1,0.1,0.1,0.2c0.1,0.1,0.1,0.1,0.2,0.1c0.1,0,0.1,0.1,0.2,0.1c0.1,0,0.1,0,0.2,0.1
				c0.1,0,0.1,0,0.2,0c0.1,0,0.1,0,0.2,0c0.1,0,0.1,0,0.2-0.1s0.1-0.1,0.2-0.1c0.1,0,0.1-0.1,0.2-0.1c0.1-0.1,0.1-0.1,0.1-0.2
				c0-0.1,0.1-0.1,0.1-0.2c0-0.1,0-0.1,0.1-0.2c0-0.1,0-0.1,0-0.2C550.5,72.3,550.5,72.2,550.5,72.1z"/>
		</g>
	</g>
	<g>
		<g>
			<path fill="#FFFFFF" d="M577.6,72.3c0-0.1,0-0.1-0.1-0.2c0-0.1-0.1-0.1-0.1-0.2c0-0.1-0.1-0.1-0.1-0.2c-0.1-0.1-0.1-0.1-0.2-0.1
				c-0.1,0-0.1-0.1-0.2-0.1c-0.1,0-0.1,0-0.2-0.1c-0.1,0-0.3,0-0.4,0c-0.1,0-0.1,0-0.2,0.1c-0.1,0-0.1,0.1-0.2,0.1
				c-0.1,0-0.1,0.1-0.2,0.1c-0.1,0.1-0.1,0.1-0.1,0.2c0,0.1-0.1,0.1-0.1,0.2c0,0.1,0,0.1-0.1,0.2c0,0.1,0,0.1,0,0.2
				c0,0.1,0,0.1,0,0.2c0,0.1,0,0.1,0.1,0.2c0,0.1,0.1,0.1,0.1,0.2c0,0.1,0.1,0.1,0.1,0.2c0.1,0.1,0.1,0.1,0.2,0.1
				c0.1,0,0.1,0.1,0.2,0.1c0.1,0,0.1,0,0.2,0.1c0.1,0,0.1,0,0.2,0c0.1,0,0.1,0,0.2,0c0.1,0,0.1,0,0.2-0.1c0.1,0,0.1-0.1,0.2-0.1
				c0.1,0,0.1-0.1,0.2-0.1c0.2-0.2,0.3-0.5,0.3-0.8C577.6,72.4,577.6,72.4,577.6,72.3z"/>
		</g>
	</g>
</g>
</svg>
