<?xml version="1.0" encoding="utf-8"?>
<!-- Generator: Adobe Illustrator 17.1.0, SVG Export Plug-In . SVG Version: 6.00 Build 0)  -->
<!DOCTYPE svg PUBLIC "-//W3C//DTD SVG 1.1//EN" "http://www.w3.org/Graphics/SVG/1.1/DTD/svg11.dtd">
<svg version="1.1" id="Layer_1" xmlns="http://www.w3.org/2000/svg" xmlns:xlink="http://www.w3.org/1999/xlink" x="0px" y="0px"
	 viewBox="508.5 18 100 100" enable-background="new 508.5 18 100 100" xml:space="preserve">
<g>
	
		<rect x="524.2" y="33.6" transform="matrix(-0.7071 0.7071 -0.7071 -0.7071 1001.5458 -278.8538)" fill="#0878FF" width="68.7" height="68.7"/>
	<path fill="#001840" d="M558.5,20.8L605.7,68l-47.2,47.2L511.4,68L558.5,20.8 M558.5,18l-50,50l50,50l50-50L558.5,18L558.5,18z"/>
</g>
<g>
	<g>
		<g>
			<path fill="#FFFFFF" d="M560.6,67.1c-0.1-0.2-0.3-0.3-0.6-0.3h-1.9l1.1-2.7c0.1-0.4,0-0.8-0.4-0.9c-0.4-0.1-0.8,0-0.9,0.4
				l-1.5,3.7c-0.1,0.2-0.1,0.5,0.1,0.6c0.1,0.2,0.3,0.3,0.6,0.3h1.9l-1.1,2.7c-0.1,0.4,0,0.8,0.4,0.9c0.1,0,0.2,0,0.3,0
				c0.3,0,0.5-0.2,0.6-0.4l1.5-3.7C560.7,67.5,560.7,67.3,560.6,67.1z"/>
		</g>
	</g>
	<g>
		<g>
			<path fill="#FFFFFF" d="M578.3,47.9c-2.4-2.5-5.7-3.9-9.2-3.9c-3.5-0.1-6.8,1.3-9.3,3.8c-2.6,2.6-4.1,6.1-4.1,9.8v2.7h-2.3
				c-1.2,0-2.2,1-2.2,2.2v10.3c0,1.2,1,2.2,2.2,2.2h2.3v3c0,2.1-0.9,4.1-2.4,5.5c-1.6,1.4-3.6,2.1-5.7,1.9c-3.8-0.4-6.7-3.7-6.7-7.6
				c0-0.4-0.3-0.7-0.7-0.7s-0.7,0.3-0.7,0.7c0,2.2,0.8,4.4,2.3,6c1.5,1.7,3.5,2.7,5.7,3c0.3,0,0.6,0,0.9,0c2.2,0,4.3-0.8,5.9-2.3
				c1.8-1.7,2.9-4,2.9-6.5v-3h3v2.7c0,3.3-1.3,6.5-3.7,8.8c-2.3,2.2-5.2,3.4-8.3,3.4c-3.1-0.1-6-1.3-8.2-3.5
				c-2.2-2.2-3.4-5.2-3.4-8.3v-9.6c0,0,0,0,0,0h2.9c0,0,0,0,0,0v6.4c0,0.4,0.3,0.7,0.7,0.7s0.7-0.3,0.7-0.7v-6.4
				c0-0.8-0.6-1.4-1.4-1.4h-0.8v-3.7c0-0.4-0.3-0.7-0.7-0.7c-0.4,0-0.7,0.3-0.7,0.7v3.7h-0.8c-0.8,0-1.4,0.6-1.4,1.4v9.6
				c0,3.5,1.4,6.8,3.8,9.3c2.4,2.5,5.7,3.9,9.2,3.9c0.1,0,0.1,0,0.2,0c3.4,0,6.6-1.3,9.1-3.8c2.6-2.6,4.1-6.1,4.1-9.8v-2.7h2.3
				c1.2,0,2.2-1,2.2-2.2V62.3c0-1.2-1-2.2-2.2-2.2h-2.3v-3c0-2.1,0.9-4.1,2.4-5.5c1.6-1.4,3.6-2.1,5.7-1.9c3.8,0.4,6.7,3.7,6.7,7.6
				c0,0.4,0.3,0.7,0.7,0.7c0.4,0,0.7-0.3,0.7-0.7c0-2.2-0.8-4.4-2.3-6c-1.5-1.7-3.5-2.7-5.7-3c-2.5-0.2-4.9,0.6-6.8,2.3
				c-1.8,1.7-2.9,4-2.9,6.5v3h-3v-2.7c0-3.3,1.3-6.5,3.7-8.8c2.3-2.2,5.2-3.4,8.3-3.4c3.1,0.1,6,1.3,8.2,3.5
				c2.2,2.2,3.4,5.2,3.4,8.3v9.6c0,0,0,0,0,0h-2.9c0,0,0,0,0,0v-6.4c0-0.4-0.3-0.7-0.7-0.7s-0.7,0.3-0.7,0.7v6.4
				c0,0.8,0.6,1.4,1.4,1.4h0.8v3.7c0,0.4,0.3,0.7,0.7,0.7s0.7-0.3,0.7-0.7v-3.7h0.8c0.8,0,1.4-0.6,1.4-1.4v-9.6
				C582.1,53.7,580.7,50.4,578.3,47.9z M563.7,61.6c0.4,0,0.8,0.4,0.8,0.8v10.3c0,0.4-0.4,0.8-0.8,0.8h-10.3c-0.4,0-0.8-0.4-0.8-0.8
				V62.3c0-0.4,0.4-0.8,0.8-0.8H563.7z"/>
		</g>
	</g>
	<g>
		<g>
			<path fill="#FFFFFF" d="M537,60.6l-0.7-1.5c-0.2-0.3-0.6-0.5-0.9-0.3c-0.3,0.2-0.5,0.6-0.3,0.9l0.7,1.5c0.1,0.2,0.4,0.4,0.6,0.4
				c0.1,0,0.2,0,0.3-0.1C537.1,61.3,537.2,60.9,537,60.6z"/>
		</g>
	</g>
	<g>
		<g>
			<path fill="#FFFFFF" d="M540.4,58.8c-0.3-0.2-0.8,0-0.9,0.3l-0.7,1.5c-0.2,0.3,0,0.8,0.3,0.9c0.1,0,0.2,0.1,0.3,0.1
				c0.3,0,0.5-0.1,0.6-0.4l0.7-1.5C540.9,59.4,540.7,58.9,540.4,58.8z"/>
		</g>
	</g>
	<g>
		<g>
			<path fill="#FFFFFF" d="M582,75.3l-0.7-1.5c-0.2-0.3-0.6-0.5-0.9-0.3c-0.3,0.2-0.5,0.6-0.3,0.9l0.7,1.5c0.1,0.2,0.4,0.4,0.6,0.4
				c0.1,0,0.2,0,0.3-0.1C582,76.1,582.2,75.6,582,75.3z"/>
		</g>
	</g>
	<g>
		<g>
			<path fill="#FFFFFF" d="M578,73.5c-0.3-0.2-0.8,0-0.9,0.3l-0.7,1.5c-0.2,0.3,0,0.8,0.3,0.9c0.1,0,0.2,0.1,0.3,0.1
				c0.3,0,0.5-0.1,0.6-0.4l0.7-1.5C578.5,74.1,578.3,73.7,578,73.5z"/>
		</g>
	</g>
</g>
</svg>
