<?xml version="1.0" encoding="utf-8"?>
<!-- Generator: Adobe Illustrator 17.1.0, SVG Export Plug-In . SVG Version: 6.00 Build 0)  -->
<!DOCTYPE svg PUBLIC "-//W3C//DTD SVG 1.1//EN" "http://www.w3.org/Graphics/SVG/1.1/DTD/svg11.dtd">
<svg version="1.1" id="Layer_1" xmlns="http://www.w3.org/2000/svg" xmlns:xlink="http://www.w3.org/1999/xlink" x="0px" y="0px"
	 viewBox="508.5 18 100 100" enable-background="new 508.5 18 100 100" xml:space="preserve">
<g>
	
		<rect x="524.2" y="33.6" transform="matrix(-0.7071 0.7071 -0.7071 -0.7071 1001.5458 -278.8538)" fill="#0878FF" width="68.7" height="68.7"/>
	<path fill="#001840" d="M558.5,20.8L605.7,68l-47.2,47.2L511.4,68L558.5,20.8 M558.5,18l-50,50l50,50l50-50L558.5,18L558.5,18z"/>
</g>
<g>
	<g>
		<g>
			<path fill="#FFFFFF" d="M576.7,54.4h-2.9v-1.1c0-0.5-0.4-1-1-1h-10c-0.5,0-1,0.4-1,1v1.1h-10.6c-6.5,0-11.8,5.3-11.8,11.8v10.5
				c0,0.5,0.4,1,1,1h10.3c0.5,0,1-0.4,1-1v-8c0-1.1,0.9-2.1,2.1-2.1h8.2v1.1c0,0.5,0.4,1,1,1h10c0.5,0,1-0.4,1-1v-1.1h2.9
				c0.5,0,1-0.4,1-1V55.4C577.6,54.9,577.2,54.4,576.7,54.4z M561.9,64.7h-8.2v0c-2.2,0-4,1.8-4,4v7.1h-8.3v-9.6
				c0-5.4,4.4-9.9,9.9-9.9h10.6V64.7z M571.8,55.4v10.3v1.1h-8v-1.1V55.4v-1.1h8V55.4z M575.7,64.7h-2v-8.3h2V64.7z"/>
			<path fill="#FFFFFF" d="M554.7,59.8h2.2c0.5,0,1-0.4,1-1s-0.4-1-1-1h-2.2c-0.5,0-1,0.4-1,1S554.1,59.8,554.7,59.8z"/>
			<path fill="#FFFFFF" d="M542.8,66.5c0,0.5,0.4,1,1,1c0.5,0,1-0.4,1-1c0-3.7,3-6.7,6.7-6.7c0.5,0,1-0.4,1-1s-0.4-1-1-1
				C546.7,57.8,542.8,61.7,542.8,66.5z"/>
			<path fill="#FFFFFF" d="M561.3,46.2h5.6v3.4c0,0.5,0.4,1,1,1c0.5,0,1-0.4,1-1v-3.4h5.6c0.5,0,1-0.4,1-1s-0.4-1-1-1h-13.2
				c-0.5,0-1,0.4-1,1S560.8,46.2,561.3,46.2z"/>
			<path fill="#FFFFFF" d="M545,81.5c-0.3,0-0.6,0.2-0.8,0.5c-0.5,0.8-3.1,5-3.1,6.9c0,2.2,1.8,3.9,3.9,3.9s3.9-1.8,3.9-3.9
				c0-1.8-2.6-6-3.1-6.9C545.6,81.7,545.3,81.5,545,81.5z M545,90.8c-1.1,0-2-0.9-2-2c0-0.7,0.9-2.6,2-4.5c1.1,1.9,2,3.8,2,4.5
				C547,90,546.1,90.8,545,90.8z"/>
		</g>
	</g>
</g>
</svg>
