<?xml version="1.0" encoding="utf-8"?>
<!-- Generator: Adobe Illustrator 17.1.0, SVG Export Plug-In . SVG Version: 6.00 Build 0)  -->
<!DOCTYPE svg PUBLIC "-//W3C//DTD SVG 1.1//EN" "http://www.w3.org/Graphics/SVG/1.1/DTD/svg11.dtd">
<svg version="1.1" id="Layer_1" xmlns="http://www.w3.org/2000/svg" xmlns:xlink="http://www.w3.org/1999/xlink" x="0px" y="0px"
	 viewBox="232.3 43 122.3 50" enable-background="new 232.3 43 122.3 50" xml:space="preserve">
<polygon fill="#0878FF" points="232.3,67.9 257.5,93 329.5,93 354.6,68.1 329.5,43 257.5,43 "/>
<polygon fill="#FFFFFF" points="257.5,81.4 243.2,67.1 257.3,52.9 "/>
<g>
	<path fill="#FFFFFF" d="M264.9,61.1h2.7v5.2h4.6v-5.2h2.6v13.7h-2.6v-6h-4.6v6h-2.7V61.1z"/>
	<path fill="#FFFFFF" d="M282.1,61.1h2.7l5.3,13.7h-2.7l-1.1-2.8h-5.6l-1.1,2.8h-2.7L282.1,61.1z M283.4,64.7l-1.8,4.7h3.7
		L283.4,64.7z"/>
	<path fill="#FFFFFF" d="M292.7,71.2c0.7,1,1.5,1.4,2.4,1.4c0.6,0,1.1-0.2,1.5-0.5s0.6-0.8,0.6-1.4c0-0.6-0.2-1-0.6-1.4
		c-0.4-0.4-1.1-0.6-2.3-0.6h-0.6v-2.3h0.6c0.7,0,1.2-0.2,1.6-0.5c0.4-0.3,0.5-0.7,0.5-1.3c0-0.5-0.2-0.9-0.5-1.2s-0.7-0.4-1.2-0.4
		c-0.6,0-1.2,0.3-1.8,0.9l-1.5-1.7c0.8-0.7,1.5-1.2,2.1-1.3c0.6-0.1,1.1-0.2,1.5-0.2c1.1,0,2.1,0.3,2.8,1c0.8,0.7,1.1,1.5,1.1,2.6
		c0,0.5-0.1,1-0.3,1.4c-0.2,0.5-0.6,1-1.4,1.5c1.6,0.7,2.4,1.9,2.4,3.7c0,1.3-0.4,2.3-1.3,3.1c-0.9,0.8-2,1.2-3.3,1.2
		c-0.8,0-1.6-0.2-2.3-0.5c-0.7-0.3-1.4-1-2.2-2L292.7,71.2z"/>
	<path fill="#FFFFFF" d="M306.5,61.1h2.7l5.3,13.7h-2.7l-1.1-2.8H305l-1.1,2.8h-2.7L306.5,61.1z M307.8,64.7l-1.8,4.7h3.7
		L307.8,64.7z"/>
	<path fill="#FFFFFF" d="M320.9,61.1h2.6l4.4,11.3h1.5v4.5H327v-2.1h-9.5v2.1H315v-4.5h1.5L320.9,61.1z M322.2,64.7l-3,7.6h6
		L322.2,64.7z"/>
</g>
</svg>
