<?xml version="1.0" encoding="utf-8"?>
<!-- Generator: Adobe Illustrator 17.1.0, SVG Export Plug-In . SVG Version: 6.00 Build 0)  -->
<!DOCTYPE svg PUBLIC "-//W3C//DTD SVG 1.1//EN" "http://www.w3.org/Graphics/SVG/1.1/DTD/svg11.dtd">
<svg version="1.1" id="Layer_1" xmlns="http://www.w3.org/2000/svg" xmlns:xlink="http://www.w3.org/1999/xlink" x="0px" y="0px"
	 viewBox="0 0 315.4 71" enable-background="new 0 0 315.4 71" xml:space="preserve">
<polygon fill="#0878FF" points="315.4,35.7 279.6,0 35.6,0 0,35.4 35.6,71 279.6,71 "/>
<g>
	<path fill="#FFFFFF" d="M50.5,25.9c2.7,0,5,1,6.9,2.9c1.9,1.9,2.9,4.3,2.9,7.1c0,2.7-0.9,5.1-2.8,7c-1.9,1.9-4.2,2.9-6.9,2.9
		c-2.8,0-5.2-1-7-2.9c-1.9-2-2.8-4.3-2.8-7c0-1.8,0.4-3.5,1.3-5c0.9-1.5,2.1-2.7,3.6-3.6C47,26.3,48.7,25.9,50.5,25.9z M50.4,29.4
		c-1.7,0-3.2,0.6-4.4,1.8c-1.2,1.2-1.8,2.8-1.8,4.6c0,2.1,0.7,3.7,2.2,4.9c1.2,0.9,2.5,1.4,4,1.4c1.7,0,3.1-0.6,4.3-1.8
		c1.2-1.2,1.8-2.7,1.8-4.5c0-1.8-0.6-3.3-1.8-4.6C53.6,30,52.1,29.4,50.4,29.4z"/>
	<path fill="#FFFFFF" d="M80.9,29.7L78.4,32c-1.7-1.8-3.6-2.7-5.8-2.7c-1.8,0-3.3,0.6-4.5,1.8c-1.2,1.2-1.8,2.7-1.8,4.6
		c0,1.3,0.3,2.4,0.8,3.3s1.3,1.7,2.3,2.3c1,0.6,2.1,0.8,3.3,0.8c1,0,2-0.2,2.9-0.6c0.9-0.4,1.8-1.1,2.8-2.1l2.4,2.5
		c-1.4,1.4-2.7,2.3-3.9,2.8c-1.2,0.5-2.7,0.8-4.2,0.8c-2.9,0-5.3-0.9-7.2-2.8s-2.8-4.2-2.8-7.1c0-1.9,0.4-3.5,1.3-5s2.1-2.6,3.6-3.5
		c1.6-0.9,3.3-1.3,5.1-1.3c1.6,0,3,0.3,4.5,1S79.9,28.4,80.9,29.7z"/>
	<path fill="#FFFFFF" d="M82.2,26.3h10.4v3.5h-3.4v15.3h-3.6V29.9h-3.3V26.3z"/>
	<path fill="#FFFFFF" d="M100.8,26.3h3.6l7.2,18.8H108l-1.5-3.9h-7.7l-1.5,3.9h-3.7L100.8,26.3z M102.6,31.3l-2.5,6.5h5L102.6,31.3z
		"/>
	<path fill="#FFFFFF" d="M114.4,45.2V26.3h3c1.7,0,3,0.1,3.8,0.3c1.1,0.3,2,0.9,2.7,1.7c0.7,0.8,1,1.8,1,2.9c0,0.7-0.2,1.4-0.5,2
		c-0.3,0.6-0.8,1.1-1.5,1.6c1.1,0.5,2,1.2,2.5,2c0.5,0.8,0.8,1.8,0.8,2.9c0,1.1-0.3,2-0.8,2.9s-1.3,1.5-2.1,2
		c-0.9,0.4-2.1,0.6-3.6,0.6H114.4z M118,29.8v4h0.8c0.9,0,1.5-0.2,1.9-0.6s0.6-0.9,0.6-1.5c0-0.6-0.2-1.1-0.6-1.4
		c-0.4-0.3-1-0.5-1.8-0.5H118z M118,36.9v4.8h0.9c1.5,0,2.5-0.2,3-0.6c0.5-0.4,0.8-0.9,0.8-1.6c0-0.8-0.3-1.5-0.9-1.9
		c-0.6-0.5-1.6-0.7-3-0.7H118z"/>
	<path fill="#FFFFFF" d="M143.4,26.3v18.8h-3.6V33.4l-7,11.8h-3.1V26.3h3.6v12.2l7.1-12.2H143.4z"/>
	<path fill="#FFFFFF" d="M145.8,26.3h10.4v3.5h-3.4v15.3h-3.6V29.9h-3.3V26.3z"/>
	<path fill="#FFFFFF" d="M158.7,45.2V26.3h3.6v7.1h0.8c1.5,0,2.7,0.2,3.7,0.5s1.9,1,2.6,2c0.7,1,1.1,2.1,1.1,3.5
		c0,1.3-0.3,2.4-0.9,3.3s-1.3,1.5-2.2,1.9c-0.8,0.4-2,0.6-3.4,0.6H158.7z M162.3,36.6v5.1h0.9c1.5,0,2.5-0.2,3-0.6
		c0.5-0.4,0.8-1,0.8-1.9c0-1.8-1.3-2.7-3.9-2.7H162.3z"/>
	<path fill="#FFFFFF" d="M181.8,40.3c1,1.3,2.1,2,3.3,2c0.8,0,1.5-0.2,2.1-0.7s0.8-1.1,0.8-1.9c0-0.8-0.3-1.4-0.8-1.9
		c-0.5-0.5-1.6-0.8-3.2-0.8h-0.8v-3.2h0.8c0.9,0,1.7-0.2,2.2-0.7c0.5-0.4,0.7-1,0.7-1.8c0-0.7-0.2-1.2-0.6-1.6
		c-0.4-0.4-1-0.6-1.6-0.6c-0.8,0-1.6,0.4-2.5,1.2l-2.1-2.4c1.1-1,2.1-1.6,2.8-1.8c0.8-0.2,1.5-0.3,2.1-0.3c1.5,0,2.8,0.4,3.9,1.3
		c1,0.9,1.6,2.1,1.6,3.6c0,0.7-0.1,1.3-0.4,2c-0.2,0.6-0.9,1.3-2,2c2.2,1,3.3,2.7,3.3,5c0,1.8-0.6,3.2-1.8,4.2
		c-1.2,1.1-2.7,1.6-4.5,1.6c-1.2,0-2.2-0.2-3.1-0.6s-1.9-1.3-3-2.7L181.8,40.3z"/>
	<path fill="#FFFFFF" d="M200.7,26.3h3.6l7.2,18.8h-3.7l-1.5-3.9h-7.7l-1.5,3.9h-3.7L200.7,26.3z M202.5,31.3l-2.5,6.5h5L202.5,31.3
		z"/>
	<path fill="#FFFFFF" d="M225.4,26.3v18.8h-3.6v-7.6h-0.9l-3.8,7.6h-3.9l4.3-8.2c-2.5-0.7-3.7-2.4-3.7-4.9c0-0.9,0.1-1.7,0.4-2.4
		c0.3-0.7,0.6-1.3,1.1-1.7c0.5-0.5,1-0.8,1.7-1.1c0.6-0.2,1.1-0.4,1.5-0.4c0.4,0,1.4-0.1,3.1-0.1H225.4z M221.8,34.1v-4.3h-1
		c-0.9,0-1.5,0.1-1.9,0.2s-0.7,0.3-1,0.7c-0.2,0.4-0.4,0.8-0.4,1.3c0,0.8,0.2,1.3,0.7,1.6s1.3,0.5,2.4,0.5H221.8z"/>
	<path fill="#FFFFFF" d="M229.7,45.2V26.3h3c1.7,0,3,0.1,3.8,0.3c1.1,0.3,2,0.9,2.7,1.7c0.7,0.8,1,1.8,1,2.9c0,0.7-0.2,1.4-0.5,2
		c-0.3,0.6-0.8,1.1-1.5,1.6c1.1,0.5,2,1.2,2.5,2c0.5,0.8,0.8,1.8,0.8,2.9c0,1.1-0.3,2-0.8,2.9s-1.3,1.5-2.1,2
		c-0.9,0.4-2.1,0.6-3.6,0.6H229.7z M233.3,29.8v4h0.8c0.9,0,1.5-0.2,1.9-0.6s0.6-0.9,0.6-1.5c0-0.6-0.2-1.1-0.6-1.4
		c-0.4-0.3-1-0.5-1.8-0.5H233.3z M233.3,36.9v4.8h0.9c1.5,0,2.5-0.2,3-0.6c0.5-0.4,0.8-0.9,0.8-1.6c0-0.8-0.3-1.5-0.9-1.9
		c-0.6-0.5-1.6-0.7-3-0.7H233.3z"/>
	<path fill="#FFFFFF" d="M245,26.3h3.6v6.5l5.1-6.5h4.3l-6.6,8.4l7.2,10.4h-4.3l-5.8-8.4v8.4H245V26.3z"/>
	<path fill="#FFFFFF" d="M266.5,40.9l-6.7-14.5h4l4.4,10.5l3.6-10.5h3.7l-5,13.5c-0.9,2.3-1.8,3.8-2.8,4.6s-2.1,1.2-3.2,1.2
		c-1.9,0-3.6-0.9-5.2-2.7l2.4-2.4c0.9,1.1,1.9,1.6,2.8,1.6c0.4,0,0.7-0.1,1-0.3S266.1,41.3,266.5,40.9z"/>
</g>
</svg>
