<?xml version="1.0" encoding="utf-8"?>
<!-- Generator: Adobe Illustrator 21.1.0, SVG Export Plug-In . SVG Version: 6.00 Build 0)  -->
<svg version="1.1" id="Layer_1" xmlns="http://www.w3.org/2000/svg" xmlns:xlink="http://www.w3.org/1999/xlink" x="0px" y="0px"
	 viewBox="0 0 315.4 71" style="enable-background:new 0 0 315.4 71;" xml:space="preserve">
<style type="text/css">
	.st0{fill:#0878FF;}
	.st1{fill:#FFFFFF;}
</style>
<polygon class="st0" points="315.4,35.7 279.6,0 35.6,0 0,35.4 35.6,71 279.6,71 "/>
<g>
	<path class="st1" d="M44.3,26.6c2.5,0,4.7,0.9,6.6,2.8c1.8,1.8,2.7,4.1,2.7,6.7c0,2.6-0.9,4.8-2.7,6.7c-1.8,1.8-4,2.7-6.6,2.7
		c-2.7,0-4.9-0.9-6.7-2.8C35.9,40.8,35,38.6,35,36c0-1.7,0.4-3.3,1.2-4.7c0.8-1.4,2-2.6,3.4-3.4C41.1,27,42.7,26.6,44.3,26.6z
		 M44.3,29.9c-1.7,0-3.1,0.6-4.2,1.7c-1.1,1.2-1.7,2.6-1.7,4.4c0,2,0.7,3.6,2.1,4.7c1.1,0.9,2.4,1.4,3.8,1.4c1.6,0,3-0.6,4.1-1.8
		s1.7-2.6,1.7-4.3c0-1.7-0.6-3.2-1.7-4.3C47.3,30.5,45.9,29.9,44.3,29.9z"/>
	<path class="st1" d="M55.1,27H65v3.4h-3.3V45h-3.5V30.4h-3.2V27z"/>
	<path class="st1" d="M67.3,27h12.9v18h-3.5V30.2h-6V45h-3.5V27z"/>
	<path class="st1" d="M84.3,27H88c2,0,3.4,0.2,4.2,0.5c0.9,0.4,1.5,0.9,2.1,1.8c0.5,0.8,0.8,1.8,0.8,2.9c0,1.3-0.3,2.3-1,3.1
		c-0.7,0.8-1.5,1.4-2.7,1.7c-0.7,0.2-1.9,0.3-3.6,0.3V45h-3.4V27z M87.8,34h1.1c0.9,0,1.4-0.1,1.8-0.2c0.3-0.1,0.6-0.3,0.8-0.6
		c0.2-0.3,0.3-0.6,0.3-1c0-0.7-0.3-1.2-0.8-1.5c-0.4-0.2-1.1-0.4-2.2-0.4h-1V34z"/>
	<path class="st1" d="M103.8,27h3.5l6.9,18h-3.6l-1.4-3.7h-7.3l-1.5,3.7h-3.6L103.8,27z M105.6,31.8l-2.4,6.2h4.8L105.6,31.8z"/>
	<path class="st1" d="M116.8,45V27h2.8c1.6,0,2.8,0.1,3.6,0.3c1.1,0.3,1.9,0.8,2.6,1.6c0.6,0.8,1,1.7,1,2.7c0,0.7-0.1,1.3-0.4,1.9
		c-0.3,0.6-0.8,1.1-1.4,1.6c1.1,0.5,1.9,1.2,2.4,1.9c0.5,0.8,0.8,1.7,0.8,2.7c0,1-0.3,1.9-0.8,2.8s-1.2,1.5-2,1.9
		c-0.8,0.4-2,0.6-3.4,0.6H116.8z M120.3,30.3v3.8h0.7c0.8,0,1.5-0.2,1.9-0.5c0.4-0.3,0.6-0.8,0.6-1.4c0-0.6-0.2-1-0.6-1.3
		c-0.4-0.3-1-0.5-1.8-0.5H120.3z M120.3,37.1v4.6h0.9c1.4,0,2.4-0.2,2.9-0.5c0.5-0.4,0.7-0.9,0.7-1.6c0-0.8-0.3-1.4-0.9-1.8
		c-0.6-0.4-1.5-0.7-2.9-0.7H120.3z"/>
	<path class="st1" d="M144.4,27v18H141V33.7L134.3,45h-3V27h3.4v11.6l6.8-11.6H144.4z"/>
	<path class="st1" d="M146.8,27h9.9v3.4h-3.3V45h-3.5V30.4h-3.2V27z"/>
	<path class="st1" d="M159,45V27h3.4v6.8h0.7c1.4,0,2.6,0.2,3.6,0.5c0.9,0.3,1.8,1,2.5,1.9c0.7,0.9,1,2,1,3.3c0,1.2-0.3,2.3-0.9,3.1
		c-0.6,0.9-1.3,1.5-2.1,1.8c-0.8,0.4-1.9,0.5-3.2,0.5H159z M162.4,36.9v4.9h0.9c1.4,0,2.4-0.2,2.8-0.5s0.7-0.9,0.7-1.8
		c0-1.7-1.2-2.6-3.7-2.6H162.4z"/>
	<path class="st1" d="M181.1,40.3c0.9,1.3,2,1.9,3.2,1.9c0.8,0,1.5-0.2,2-0.7c0.5-0.5,0.7-1.1,0.7-1.8c0-0.7-0.2-1.4-0.7-1.8
		s-1.5-0.7-3-0.7h-0.7v-3.1h0.7c0.9,0,1.6-0.2,2.1-0.6s0.7-1,0.7-1.7c0-0.6-0.2-1.2-0.6-1.5c-0.4-0.4-0.9-0.6-1.6-0.6
		c-0.8,0-1.6,0.4-2.4,1.1l-2-2.2c1.1-1,2-1.6,2.7-1.8c0.7-0.2,1.4-0.3,2-0.3c1.5,0,2.7,0.4,3.7,1.3c1,0.9,1.5,2,1.5,3.5
		c0,0.6-0.1,1.3-0.3,1.9s-0.8,1.3-1.9,1.9c2.1,0.9,3.2,2.5,3.2,4.8c0,1.7-0.6,3-1.7,4c-1.1,1-2.6,1.5-4.3,1.5c-1.1,0-2.1-0.2-3-0.6
		c-0.9-0.4-1.8-1.3-2.9-2.6L181.1,40.3z"/>
	<path class="st1" d="M199,27h3.5l6.9,18h-3.6l-1.4-3.7h-7.3l-1.5,3.7h-3.6L199,27z M200.8,31.8l-2.4,6.2h4.8L200.8,31.8z"/>
	<path class="st1" d="M212,27H225v18h-3.5V30.2h-6V45H212V27z"/>
	<path class="st1" d="M229.1,27h3.6c2,0,3.4,0.2,4.2,0.5c0.9,0.4,1.5,0.9,2.1,1.8c0.5,0.8,0.8,1.8,0.8,2.9c0,1.3-0.3,2.3-1,3.1
		s-1.5,1.4-2.7,1.7c-0.7,0.2-1.9,0.3-3.6,0.3V45h-3.4V27z M232.5,34h1.1c0.9,0,1.4-0.1,1.8-0.2s0.6-0.3,0.8-0.6s0.3-0.6,0.3-1
		c0-0.7-0.3-1.2-0.8-1.5c-0.4-0.2-1.1-0.4-2.2-0.4h-1V34z"/>
	<path class="st1" d="M251.5,26.6c2.5,0,4.7,0.9,6.6,2.8c1.8,1.8,2.7,4.1,2.7,6.7c0,2.6-0.9,4.8-2.7,6.7s-4,2.7-6.6,2.7
		c-2.7,0-4.9-0.9-6.7-2.8s-2.7-4.1-2.7-6.6c0-1.7,0.4-3.3,1.2-4.7c0.8-1.4,2-2.6,3.4-3.4C248.3,27,249.9,26.6,251.5,26.6z
		 M251.5,29.9c-1.7,0-3.1,0.6-4.2,1.7c-1.1,1.2-1.7,2.6-1.7,4.4c0,2,0.7,3.6,2.1,4.7c1.1,0.9,2.4,1.4,3.8,1.4c1.6,0,3-0.6,4.1-1.8
		s1.7-2.6,1.7-4.3c0-1.7-0.6-3.2-1.7-4.3C254.5,30.5,253.2,29.9,251.5,29.9z"/>
	<path class="st1" d="M280.6,30.2l-2.4,2.3c-1.6-1.7-3.5-2.6-5.5-2.6c-1.7,0-3.2,0.6-4.3,1.8c-1.2,1.2-1.8,2.6-1.8,4.3
		c0,1.2,0.3,2.3,0.8,3.2s1.3,1.7,2.2,2.2c1,0.5,2,0.8,3.2,0.8c1,0,1.9-0.2,2.7-0.6c0.8-0.4,1.7-1,2.7-2l2.3,2.4
		c-1.3,1.3-2.6,2.2-3.8,2.7c-1.2,0.5-2.5,0.8-4,0.8c-2.8,0-5.1-0.9-6.9-2.7c-1.8-1.8-2.7-4-2.7-6.8c0-1.8,0.4-3.4,1.2-4.8
		c0.8-1.4,2-2.5,3.5-3.4c1.5-0.8,3.1-1.3,4.9-1.3c1.5,0,2.9,0.3,4.3,0.9C278.4,28.1,279.6,29,280.6,30.2z"/>
</g>
</svg>
