<?xml version="1.0" encoding="utf-8"?>
<!-- Generator: Adobe Illustrator 17.1.0, SVG Export Plug-In . SVG Version: 6.00 Build 0)  -->
<!DOCTYPE svg PUBLIC "-//W3C//DTD SVG 1.1//EN" "http://www.w3.org/Graphics/SVG/1.1/DTD/svg11.dtd">
<svg version="1.1" id="Layer_1" xmlns="http://www.w3.org/2000/svg" xmlns:xlink="http://www.w3.org/1999/xlink" x="0px" y="0px"
	 viewBox="0 0 334.4 71" enable-background="new 0 0 334.4 71" xml:space="preserve">
<polygon fill="#0878FF" points="334.4,35.7 298.6,0 35.6,0 0,35.4 35.6,71 298.6,71 "/>
<g>
	<path fill="#FFFFFF" d="M34.8,26.3h13.5v18.8h-3.6V29.7h-6.3v15.5h-3.6V26.3z"/>
	<path fill="#FFFFFF" d="M52.7,26.3H63v3.5h-6.7v3.4H63v3.4h-6.7v5H63v3.5H52.7V26.3z"/>
	<path fill="#FFFFFF" d="M66.3,26.3h3.8c2.1,0,3.5,0.2,4.5,0.6s1.6,1,2.2,1.8s0.8,1.9,0.8,3.1c0,1.3-0.3,2.4-1,3.3
		c-0.7,0.9-1.6,1.5-2.8,1.8c-0.7,0.2-2,0.3-3.8,0.3v8h-3.6V26.3z M69.9,33.7H71c0.9,0,1.5-0.1,1.9-0.2c0.4-0.1,0.6-0.3,0.8-0.6
		s0.3-0.7,0.3-1.1c0-0.7-0.3-1.3-0.8-1.6c-0.4-0.2-1.2-0.4-2.3-0.4h-1V33.7z"/>
	<path fill="#FFFFFF" d="M81,26.3h10.3v3.5h-6.7v3.4h6.7v3.4h-6.7v5h6.7v3.5H81V26.3z"/>
	<path fill="#FFFFFF" d="M108.3,26.3v18.8h-3.6V33.4l-7,11.8h-3.1V26.3h3.6v12.2l7.1-12.2H108.3z M96.4,21.3h2.8
		c0.2,0.4,0.5,0.6,0.9,0.8c0.4,0.2,0.9,0.3,1.5,0.3c0.6,0,1.1-0.1,1.6-0.3c0.3-0.1,0.6-0.4,0.8-0.7h2.8c-0.2,1.1-0.7,2-1.6,2.6
		c-0.9,0.7-2.1,1-3.7,1c-1.1,0-1.9-0.1-2.7-0.4c-0.7-0.3-1.3-0.7-1.7-1.3S96.5,22,96.4,21.3z"/>
	<path fill="#FFFFFF" d="M110.8,26.3h10.4v3.5h-3.4v15.3h-3.6V29.9h-3.3V26.3z"/>
	<path fill="#FFFFFF" d="M137.4,26.3v18.8h-3.6V33.4l-7,11.8h-3.1V26.3h3.6v12.2l7.1-12.2H137.4z"/>
	<path fill="#FFFFFF" d="M149,45.2V26.3h3c1.7,0,3,0.1,3.8,0.3c1.1,0.3,2,0.9,2.7,1.7c0.7,0.8,1,1.8,1,2.9c0,0.7-0.2,1.4-0.5,2
		c-0.3,0.6-0.8,1.1-1.5,1.6c1.1,0.5,2,1.2,2.5,2c0.5,0.8,0.8,1.8,0.8,2.9c0,1.1-0.3,2-0.8,2.9s-1.3,1.5-2.1,2
		c-0.9,0.4-2.1,0.6-3.6,0.6H149z M152.6,29.8v4h0.8c0.9,0,1.5-0.2,1.9-0.6s0.6-0.9,0.6-1.5c0-0.6-0.2-1.1-0.6-1.4
		c-0.4-0.3-1-0.5-1.8-0.5H152.6z M152.6,36.9v4.8h0.9c1.5,0,2.5-0.2,3-0.6c0.5-0.4,0.8-0.9,0.8-1.6c0-0.8-0.3-1.5-0.9-1.9
		c-0.6-0.5-1.6-0.7-3-0.7H152.6z"/>
	<path fill="#FFFFFF" d="M171.6,26.3h9.3v3.5h-5.8v15.3h-3.6V26.3z"/>
	<path fill="#FFFFFF" d="M189.5,26.3h3.6l7.2,18.8h-3.7l-1.5-3.9h-7.7l-1.5,3.9h-3.7L189.5,26.3z M191.3,31.3l-2.5,6.5h5L191.3,31.3
		z"/>
	<path fill="#FFFFFF" d="M215.3,45.2l-5.2-13.9l-5.3,13.9H201l7.3-18.8h3.6l7.2,18.8H215.3z"/>
	<path fill="#FFFFFF" d="M221.3,26.3h10.3v3.5h-6.7v3.4h6.7v3.4h-6.7v5h6.7v3.5h-10.3V26.3z"/>
	<path fill="#FFFFFF" d="M234.9,26.3h3.8c2.1,0,3.5,0.2,4.5,0.6s1.6,1,2.2,1.8s0.8,1.9,0.8,3.1c0,1.3-0.3,2.4-1,3.3
		c-0.7,0.9-1.6,1.5-2.8,1.8c-0.7,0.2-2,0.3-3.8,0.3v8h-3.6V26.3z M238.5,33.7h1.1c0.9,0,1.5-0.1,1.9-0.2c0.4-0.1,0.6-0.3,0.8-0.6
		s0.3-0.7,0.3-1.1c0-0.7-0.3-1.3-0.8-1.6c-0.4-0.2-1.2-0.4-2.3-0.4h-1V33.7z"/>
	<path fill="#FFFFFF" d="M249.6,26.3h10.3v3.5h-6.7v3.4h6.7v3.4h-6.7v5h6.7v3.5h-10.3V26.3z"/>
	<path fill="#FFFFFF" d="M266.8,33.5h2.4c1.1-2.9,2.5-4.8,4.3-5.9c1.7-1.1,3.5-1.6,5.4-1.6c2.6,0,4.9,1,6.8,2.8s2.9,4.3,2.9,7.1
		c0,2.7-0.9,5.1-2.8,7c-1.9,1.9-4.2,2.9-6.9,2.9c-2.4,0-4.6-0.8-6.5-2.4c-1.9-1.6-3-3.7-3.2-6.4h-2.4v8.2h-3.6V26.3h3.6V33.5z
		 M285.1,35.8c0-1.7-0.6-3.2-1.8-4.5c-1.2-1.3-2.6-1.9-4.4-1.9c-1.7,0-3.1,0.6-4.4,1.8s-1.8,2.7-1.8,4.7c0,1.9,0.6,3.4,1.9,4.6
		c1.2,1.2,2.7,1.8,4.4,1.8c1.7,0,3.1-0.6,4.3-1.9C284.5,39.1,285.1,37.6,285.1,35.8z"/>
</g>
<polygon fill="#FFFFFF" points="298.6,16.5 318.9,36.8 298.8,56.9 "/>
</svg>
