<?xml version="1.0" encoding="utf-8"?>
<!-- Generator: Adobe Illustrator 17.1.0, SVG Export Plug-In . SVG Version: 6.00 Build 0)  -->
<!DOCTYPE svg PUBLIC "-//W3C//DTD SVG 1.1//EN" "http://www.w3.org/Graphics/SVG/1.1/DTD/svg11.dtd">
<svg version="1.1" id="Layer_1" xmlns="http://www.w3.org/2000/svg" xmlns:xlink="http://www.w3.org/1999/xlink" x="0px" y="0px"
	 viewBox="0 0 363.4 71" enable-background="new 0 0 363.4 71" xml:space="preserve">
<polygon fill="#0878FF" points="363.4,35.7 327.6,0 35.6,0 0,35.4 35.6,71 327.6,71 "/>
<g>
	<path fill="#FFFFFF" d="M53.9,29.7L51.4,32c-1.7-1.8-3.6-2.7-5.8-2.7c-1.8,0-3.3,0.6-4.5,1.8c-1.2,1.2-1.8,2.7-1.8,4.6
		c0,1.3,0.3,2.4,0.8,3.3s1.3,1.7,2.3,2.3c1,0.6,2.1,0.8,3.3,0.8c1,0,2-0.2,2.9-0.6c0.9-0.4,1.8-1.1,2.8-2.1l2.4,2.5
		c-1.4,1.4-2.7,2.3-3.9,2.8c-1.2,0.5-2.7,0.8-4.2,0.8c-2.9,0-5.3-0.9-7.2-2.8s-2.8-4.2-2.8-7.1c0-1.9,0.4-3.5,1.3-5s2.1-2.6,3.6-3.5
		c1.6-0.9,3.3-1.3,5.1-1.3c1.6,0,3,0.3,4.5,1S52.9,28.4,53.9,29.7z"/>
	<path fill="#FFFFFF" d="M57.1,26.3h3.6v6.5l5.1-6.5h4.3l-6.6,8.4l7.2,10.4h-4.3l-5.8-8.4v8.4h-3.6V26.3z"/>
	<path fill="#FFFFFF" d="M79.1,26.3h3.6L90,45.2h-3.7l-1.5-3.9h-7.7l-1.5,3.9h-3.7L79.1,26.3z M80.9,31.3l-2.5,6.5h5L80.9,31.3z"/>
	<path fill="#FFFFFF" d="M101,36.9h-1.2c-1.7,0-3-0.1-3.8-0.3c-0.8-0.2-1.6-0.6-2.4-1.1c-0.8-0.6-1.3-1.3-1.6-2.1
		c-0.3-0.8-0.5-1.9-0.5-3.3v-3.7h3.6V30c0,1.3,0.2,2.2,0.7,2.7c0.5,0.5,1.4,0.8,2.9,0.8h2.2v-7.1h3.6v18.8H101V36.9z"/>
	<path fill="#FFFFFF" d="M114.6,26.3h3.6l7.2,18.8h-3.7l-1.5-3.9h-7.7l-1.5,3.9h-3.7L114.6,26.3z M116.5,31.3l-2.5,6.5h5L116.5,31.3
		z"/>
	<path fill="#FFFFFF" d="M126.4,26.3h10.4v3.5h-3.4v15.3h-3.6V29.9h-3.3V26.3z"/>
	<path fill="#FFFFFF" d="M139.3,45.2V26.3h3.6v7.1h0.8c1.5,0,2.7,0.2,3.7,0.5s1.9,1,2.6,2c0.7,1,1.1,2.1,1.1,3.5
		c0,1.3-0.3,2.4-0.9,3.3s-1.3,1.5-2.2,1.9c-0.8,0.4-2,0.6-3.4,0.6H139.3z M142.9,36.6v5.1h0.9c1.5,0,2.5-0.2,3-0.6
		c0.5-0.4,0.8-1,0.8-1.9c0-1.8-1.3-2.7-3.9-2.7H142.9z"/>
	<path fill="#FFFFFF" d="M161.5,26.3h13.5v18.8h-3.6V29.7h-6.3v15.5h-3.6V26.3z"/>
	<path fill="#FFFFFF" d="M179.4,26.3h3.8c2.1,0,3.5,0.2,4.5,0.6s1.6,1,2.2,1.8s0.8,1.9,0.8,3.1c0,1.3-0.3,2.4-1,3.3
		c-0.7,0.9-1.6,1.5-2.8,1.8c-0.7,0.2-2,0.3-3.8,0.3v8h-3.6V26.3z M183,33.7h1.1c0.9,0,1.5-0.1,1.9-0.2c0.4-0.1,0.6-0.3,0.8-0.6
		s0.3-0.7,0.3-1.1c0-0.7-0.3-1.3-0.8-1.6c-0.4-0.2-1.2-0.4-2.3-0.4h-1V33.7z"/>
	<path fill="#FFFFFF" d="M199.8,26.3h3.6l7.2,18.8H207l-1.5-3.9h-7.7l-1.5,3.9h-3.7L199.8,26.3z M201.7,31.3l-2.5,6.5h5L201.7,31.3z
		"/>
	<path fill="#FFFFFF" d="M227.2,26.3v18.8h-3.6V33.4l-7,11.8h-3.1V26.3h3.6v12.2l7.1-12.2H227.2z M215.2,21.3h2.8
		c0.2,0.4,0.5,0.6,0.9,0.8c0.4,0.2,0.9,0.3,1.5,0.3c0.6,0,1.1-0.1,1.6-0.3c0.3-0.1,0.6-0.4,0.8-0.7h2.8c-0.2,1.1-0.7,2-1.6,2.6
		c-0.9,0.7-2.1,1-3.7,1c-1.1,0-1.9-0.1-2.7-0.4c-0.7-0.3-1.3-0.7-1.7-1.3S215.3,22,215.2,21.3z"/>
	<path fill="#FFFFFF" d="M248.8,29.7l-2.5,2.4c-1.7-1.8-3.6-2.7-5.8-2.7c-1.8,0-3.3,0.6-4.5,1.8c-1.2,1.2-1.8,2.7-1.8,4.6
		c0,1.3,0.3,2.4,0.8,3.3s1.3,1.7,2.3,2.3c1,0.6,2.1,0.8,3.3,0.8c1,0,2-0.2,2.9-0.6c0.9-0.4,1.8-1.1,2.8-2.1l2.4,2.5
		c-1.4,1.4-2.7,2.3-3.9,2.8c-1.2,0.5-2.7,0.8-4.2,0.8c-2.9,0-5.3-0.9-7.2-2.8s-2.8-4.2-2.8-7.1c0-1.9,0.4-3.5,1.3-5s2.1-2.6,3.6-3.5
		c1.6-0.9,3.3-1.3,5.1-1.3c1.6,0,3,0.3,4.5,1S247.8,28.4,248.8,29.7z"/>
	<path fill="#FFFFFF" d="M264.1,45.2l-5.2-13.9l-5.3,13.9h-3.8l7.3-18.8h3.6l7.2,18.8H264.1z"/>
	<path fill="#FFFFFF" d="M283.9,26.3v18.8h-3.6V33.4l-7,11.8h-3.1V26.3h3.6v12.2l7.1-12.2H283.9z"/>
	<path fill="#FFFFFF" d="M305.5,29.7L303,32c-1.7-1.8-3.6-2.7-5.8-2.7c-1.8,0-3.3,0.6-4.5,1.8c-1.2,1.2-1.8,2.7-1.8,4.6
		c0,1.3,0.3,2.4,0.8,3.3s1.3,1.7,2.3,2.3c1,0.6,2.1,0.8,3.3,0.8c1,0,2-0.2,2.9-0.6c0.9-0.4,1.8-1.1,2.8-2.1l2.4,2.5
		c-1.4,1.4-2.7,2.3-3.9,2.8c-1.2,0.5-2.7,0.8-4.2,0.8c-2.9,0-5.3-0.9-7.2-2.8s-2.8-4.2-2.8-7.1c0-1.9,0.4-3.5,1.3-5s2.1-2.6,3.6-3.5
		c1.6-0.9,3.3-1.3,5.1-1.3c1.6,0,3,0.3,4.5,1S304.4,28.4,305.5,29.7z"/>
	<path fill="#FFFFFF" d="M306.8,26.3h10.4v3.5h-3.4v15.3h-3.6V29.9h-3.3V26.3z"/>
</g>
<polygon fill="#FFFFFF" points="327.6,16.5 347.9,36.8 327.8,56.9 "/>
</svg>
