<?xml version="1.0" encoding="utf-8"?>
<!-- Generator: Adobe Illustrator 17.1.0, SVG Export Plug-In . SVG Version: 6.00 Build 0)  -->
<!DOCTYPE svg PUBLIC "-//W3C//DTD SVG 1.1//EN" "http://www.w3.org/Graphics/SVG/1.1/DTD/svg11.dtd">
<svg version="1.1" id="Layer_1" xmlns="http://www.w3.org/2000/svg" xmlns:xlink="http://www.w3.org/1999/xlink" x="0px" y="0px"
	 viewBox="0 0 410.4 71" enable-background="new 0 0 410.4 71" xml:space="preserve">
<polygon fill="#0878FF" points="410.4,35.7 374.6,0 35.6,0 0,35.4 35.6,71 374.6,71 "/>
<g>
	<path fill="#FFFFFF" d="M53.8,40.3c1,1.3,2.1,2,3.3,2c0.8,0,1.5-0.2,2.1-0.7s0.8-1.1,0.8-1.9c0-0.8-0.3-1.4-0.8-1.9
		c-0.5-0.5-1.6-0.8-3.2-0.8h-0.8v-3.2h0.8c0.9,0,1.7-0.2,2.2-0.7c0.5-0.4,0.7-1,0.7-1.8c0-0.7-0.2-1.2-0.6-1.6
		c-0.4-0.4-1-0.6-1.6-0.6c-0.8,0-1.6,0.4-2.5,1.2L52.1,28c1.1-1,2.1-1.6,2.8-1.8c0.8-0.2,1.5-0.3,2.1-0.3c1.5,0,2.8,0.4,3.9,1.3
		c1,0.9,1.6,2.1,1.6,3.6c0,0.7-0.1,1.3-0.4,2c-0.2,0.6-0.9,1.3-2,2c2.2,1,3.3,2.7,3.3,5c0,1.8-0.6,3.2-1.8,4.2
		c-1.2,1.1-2.7,1.6-4.5,1.6c-1.2,0-2.2-0.2-3.1-0.6s-1.9-1.3-3-2.7L53.8,40.3z"/>
	<path fill="#FFFFFF" d="M72.7,26.3h3.6l7.2,18.8h-3.7l-1.5-3.9h-7.7l-1.5,3.9h-3.7L72.7,26.3z M74.5,31.3L72,37.8h5L74.5,31.3z"/>
	<path fill="#FFFFFF" d="M86.3,26.3H90v6.5l5.1-6.5h4.3l-6.6,8.4l7.2,10.4h-4.3L90,36.8v8.4h-3.6V26.3z"/>
	<path fill="#FFFFFF" d="M108.3,26.3h3.6l7.2,18.8h-3.7l-1.5-3.9h-7.7l-1.5,3.9h-3.7L108.3,26.3z M110.2,31.3l-2.5,6.5h5L110.2,31.3
		z"/>
	<path fill="#FFFFFF" d="M122.9,40.3c1,1.3,2.1,2,3.3,2c0.8,0,1.5-0.2,2.1-0.7s0.8-1.1,0.8-1.9c0-0.8-0.3-1.4-0.8-1.9
		c-0.5-0.5-1.6-0.8-3.2-0.8h-0.8v-3.2h0.8c0.9,0,1.7-0.2,2.2-0.7c0.5-0.4,0.7-1,0.7-1.8c0-0.7-0.2-1.2-0.6-1.6
		c-0.4-0.4-1-0.6-1.6-0.6c-0.8,0-1.6,0.4-2.5,1.2l-2.1-2.4c1.1-1,2.1-1.6,2.8-1.8c0.8-0.2,1.5-0.3,2.1-0.3c1.5,0,2.8,0.4,3.9,1.3
		c1,0.9,1.6,2.1,1.6,3.6c0,0.7-0.1,1.3-0.4,2c-0.2,0.6-0.9,1.3-2,2c2.2,1,3.3,2.7,3.3,5c0,1.8-0.6,3.2-1.8,4.2
		c-1.2,1.1-2.7,1.6-4.5,1.6c-1.2,0-2.2-0.2-3.1-0.6s-1.9-1.3-3-2.7L122.9,40.3z"/>
	<path fill="#FFFFFF" d="M141.7,26.3h3.6l7.2,18.8h-3.7l-1.5-3.9h-7.7l-1.5,3.9h-3.7L141.7,26.3z M143.6,31.3l-2.5,6.5h5L143.6,31.3
		z"/>
	<path fill="#FFFFFF" d="M153.5,26.3h10.4v3.5h-3.4v15.3h-3.6V29.9h-3.3V26.3z"/>
	<path fill="#FFFFFF" d="M166.4,45.2V26.3h3.6v7.1h0.8c1.5,0,2.7,0.2,3.7,0.5s1.9,1,2.6,2c0.7,1,1.1,2.1,1.1,3.5
		c0,1.3-0.3,2.4-0.9,3.3s-1.3,1.5-2.2,1.9c-0.8,0.4-2,0.6-3.4,0.6H166.4z M170,36.6v5.1h0.9c1.5,0,2.5-0.2,3-0.6
		c0.5-0.4,0.8-1,0.8-1.9c0-1.8-1.3-2.7-3.9-2.7H170z"/>
	<path fill="#FFFFFF" d="M189.5,40.3c1,1.3,2.1,2,3.3,2c0.8,0,1.5-0.2,2.1-0.7s0.8-1.1,0.8-1.9c0-0.8-0.3-1.4-0.8-1.9
		c-0.5-0.5-1.6-0.8-3.2-0.8H191v-3.2h0.8c0.9,0,1.7-0.2,2.2-0.7c0.5-0.4,0.7-1,0.7-1.8c0-0.7-0.2-1.2-0.6-1.6
		c-0.4-0.4-1-0.6-1.6-0.6c-0.8,0-1.6,0.4-2.5,1.2l-2.1-2.4c1.1-1,2.1-1.6,2.8-1.8c0.8-0.2,1.5-0.3,2.1-0.3c1.5,0,2.8,0.4,3.9,1.3
		c1,0.9,1.6,2.1,1.6,3.6c0,0.7-0.1,1.3-0.4,2c-0.2,0.6-0.9,1.3-2,2c2.2,1,3.3,2.7,3.3,5c0,1.8-0.6,3.2-1.8,4.2
		c-1.2,1.1-2.7,1.6-4.5,1.6c-1.2,0-2.2-0.2-3.1-0.6s-1.9-1.3-3-2.7L189.5,40.3z"/>
	<path fill="#FFFFFF" d="M202.6,45.2V26.3h3c1.7,0,3,0.1,3.8,0.3c1.1,0.3,2,0.9,2.7,1.7c0.7,0.8,1,1.8,1,2.9c0,0.7-0.2,1.4-0.5,2
		c-0.3,0.6-0.8,1.1-1.5,1.6c1.1,0.5,2,1.2,2.5,2c0.5,0.8,0.8,1.8,0.8,2.9c0,1.1-0.3,2-0.8,2.9s-1.3,1.5-2.1,2
		c-0.9,0.4-2.1,0.6-3.6,0.6H202.6z M206.2,29.8v4h0.8c0.9,0,1.5-0.2,1.9-0.6s0.6-0.9,0.6-1.5c0-0.6-0.2-1.1-0.6-1.4
		c-0.4-0.3-1-0.5-1.8-0.5H206.2z M206.2,36.9v4.8h0.9c1.5,0,2.5-0.2,3-0.6c0.5-0.4,0.8-0.9,0.8-1.6c0-0.8-0.3-1.5-0.9-1.9
		c-0.6-0.5-1.6-0.7-3-0.7H206.2z"/>
	<path fill="#FFFFFF" d="M226.7,25.9c2.7,0,5,1,6.9,2.9c1.9,1.9,2.9,4.3,2.9,7.1c0,2.7-0.9,5.1-2.8,7c-1.9,1.9-4.2,2.9-6.9,2.9
		c-2.8,0-5.2-1-7-2.9c-1.9-2-2.8-4.3-2.8-7c0-1.8,0.4-3.5,1.3-5c0.9-1.5,2.1-2.7,3.6-3.6C223.3,26.3,225,25.9,226.7,25.9z
		 M226.7,29.4c-1.7,0-3.2,0.6-4.4,1.8c-1.2,1.2-1.8,2.8-1.8,4.6c0,2.1,0.7,3.7,2.2,4.9c1.2,0.9,2.5,1.4,4,1.4c1.7,0,3.1-0.6,4.3-1.8
		c1.2-1.2,1.8-2.7,1.8-4.5c0-1.8-0.6-3.3-1.8-4.6C229.9,30,228.4,29.4,226.7,29.4z"/>
	<path fill="#FFFFFF" d="M239.9,26.3h3.6v7.1h6.3v-7.1h3.6v18.8h-3.6v-8.3h-6.3v8.3h-3.6V26.3z"/>
	<path fill="#FFFFFF" d="M266.6,25.9c2.7,0,5,1,6.9,2.9c1.9,1.9,2.9,4.3,2.9,7.1c0,2.7-0.9,5.1-2.8,7c-1.9,1.9-4.2,2.9-6.9,2.9
		c-2.8,0-5.2-1-7-2.9c-1.9-2-2.8-4.3-2.8-7c0-1.8,0.4-3.5,1.3-5c0.9-1.5,2.1-2.7,3.6-3.6C263.2,26.3,264.9,25.9,266.6,25.9z
		 M266.6,29.4c-1.7,0-3.2,0.6-4.4,1.8c-1.2,1.2-1.8,2.8-1.8,4.6c0,2.1,0.7,3.7,2.2,4.9c1.2,0.9,2.5,1.4,4,1.4c1.7,0,3.1-0.6,4.3-1.8
		c1.2-1.2,1.8-2.7,1.8-4.5c0-1.8-0.6-3.3-1.8-4.6C269.8,30,268.3,29.4,266.6,29.4z"/>
	<path fill="#FFFFFF" d="M279.8,26.3h3.6v6.5l5.1-6.5h4.3l-6.6,8.4l7.2,10.4h-4.3l-5.8-8.4v8.4h-3.6V26.3z"/>
</g>
<g>
	<g>
		<path fill="#FFFFFF" d="M310.8,48c-0.7-0.5-1-1.3-1-2.2l0-10.7c0-0.5,0.1-1.1,0.3-1.6c0.2-0.6,0.5-1.1,0.8-1.5
			c0,0,0.1-0.1,0.2-0.3c0.1-0.1,0.3-0.3,0.5-0.5c0.5-0.5,1.4-1.3,2.7-2.2c1.3-1,3.1-1.9,5.5-2.9c2.3-1,5.2-1.8,8.7-2.5
			c3.5-0.7,7.6-1.1,12.4-1c3.7,0,7.1,0.2,10,0.6c2.9,0.5,5.5,1,7.7,1.7c2.2,0.7,4.1,1.4,5.6,2.2c1.5,0.8,2.8,1.5,3.8,2.3
			c1,0.7,1.7,1.3,2.2,1.8c0.5,0.5,0.7,0.8,0.8,0.8c0.3,0.4,0.6,0.9,0.8,1.5s0.3,1.1,0.3,1.6v10.7c0,0.8-0.2,1.4-0.7,1.9
			c-0.3,0.3-0.8,0.6-1.2,0.6c-0.5,0.1-0.9,0-1.4-0.1l-12.5-3.9c-0.7-0.2-1.2-0.6-1.6-1.2s-0.6-1.3-0.6-2v-4c0-0.1,0-0.2-0.1-0.4
			c-0.1-0.2-0.2-0.3-0.2-0.4c-0.7-0.5-1.6-0.9-2.7-1.2c-1-0.3-2.3-0.6-3.9-0.9c-1.6-0.3-3.6-0.4-6.1-0.3c-2.4,0-4.5,0.1-6.1,0.3
			c-1.6,0.3-2.9,0.5-3.9,0.8c-1,0.3-1.6,0.6-2,0.9l-0.6,0.4c-0.1,0.1-0.1,0.2-0.2,0.3c-0.1,0.2-0.1,0.3-0.1,0.4l0,4.6
			c-0.1,0.9-0.4,1.7-1.1,2.3c-0.5,0.5-0.9,0.7-1.3,0.8l0,0l-12.4,3.2C312.2,48.6,311.4,48.5,310.8,48z"/>
	</g>
</g>
</svg>
