<?xml version="1.0" encoding="utf-8"?>
<!-- Generator: Adobe Illustrator 17.1.0, SVG Export Plug-In . SVG Version: 6.00 Build 0)  -->
<!DOCTYPE svg PUBLIC "-//W3C//DTD SVG 1.1//EN" "http://www.w3.org/Graphics/SVG/1.1/DTD/svg11.dtd">
<svg version="1.1" id="Layer_1" xmlns="http://www.w3.org/2000/svg" xmlns:xlink="http://www.w3.org/1999/xlink" x="0px" y="0px"
	 viewBox="0 0 464.4 71" enable-background="new 0 0 464.4 71" xml:space="preserve">
<polygon fill="#0878FF" points="464.4,35.7 428.6,0 35.6,0 0,35.4 35.6,71 428.6,71 "/>
<g>
	<path fill="#FFFFFF" d="M43.8,40.3c1,1.3,2.1,2,3.3,2c0.8,0,1.5-0.2,2.1-0.7s0.8-1.1,0.8-1.9c0-0.8-0.3-1.4-0.8-1.9
		c-0.5-0.5-1.6-0.8-3.2-0.8h-0.8v-3.2h0.8c0.9,0,1.7-0.2,2.2-0.7c0.5-0.4,0.7-1,0.7-1.8c0-0.7-0.2-1.2-0.6-1.6
		c-0.4-0.4-1-0.6-1.6-0.6c-0.8,0-1.6,0.4-2.5,1.2L42.1,28c1.1-1,2.1-1.6,2.8-1.8c0.8-0.2,1.5-0.3,2.1-0.3c1.5,0,2.8,0.4,3.9,1.3
		c1,0.9,1.6,2.1,1.6,3.6c0,0.7-0.1,1.3-0.4,2c-0.2,0.6-0.9,1.3-2,2c2.2,1,3.3,2.7,3.3,5c0,1.8-0.6,3.2-1.8,4.2
		c-1.2,1.1-2.7,1.6-4.5,1.6c-1.2,0-2.2-0.2-3.1-0.6s-1.9-1.3-3-2.7L43.8,40.3z"/>
	<path fill="#FFFFFF" d="M62.7,26.3h3.6l7.2,18.8h-3.7l-1.5-3.9h-7.7l-1.5,3.9h-3.7L62.7,26.3z M64.5,31.3L62,37.8h5L64.5,31.3z"/>
	<path fill="#FFFFFF" d="M76.3,26.3h13.5v18.8h-3.6V29.7H80v15.5h-3.6V26.3z"/>
	<path fill="#FFFFFF" d="M94.2,26.3H98c2.1,0,3.5,0.2,4.5,0.6s1.6,1,2.2,1.8s0.8,1.9,0.8,3.1c0,1.3-0.3,2.4-1,3.3
		c-0.7,0.9-1.6,1.5-2.8,1.8c-0.7,0.2-2,0.3-3.8,0.3v8h-3.6V26.3z M97.7,33.7h1.1c0.9,0,1.5-0.1,1.9-0.2c0.4-0.1,0.6-0.3,0.8-0.6
		s0.3-0.7,0.3-1.1c0-0.7-0.3-1.3-0.8-1.6c-0.4-0.2-1.2-0.4-2.3-0.4h-1V33.7z"/>
	<path fill="#FFFFFF" d="M117.7,25.9c2.7,0,5,1,6.9,2.9c1.9,1.9,2.9,4.3,2.9,7.1c0,2.7-0.9,5.1-2.8,7c-1.9,1.9-4.2,2.9-6.9,2.9
		c-2.8,0-5.2-1-7-2.9c-1.9-2-2.8-4.3-2.8-7c0-1.8,0.4-3.5,1.3-5c0.9-1.5,2.1-2.7,3.6-3.6C114.3,26.3,116,25.9,117.7,25.9z
		 M117.7,29.4c-1.7,0-3.2,0.6-4.4,1.8c-1.2,1.2-1.8,2.8-1.8,4.6c0,2.1,0.7,3.7,2.2,4.9c1.2,0.9,2.5,1.4,4,1.4c1.7,0,3.1-0.6,4.3-1.8
		c1.2-1.2,1.8-2.7,1.8-4.5c0-1.8-0.6-3.3-1.8-4.6C120.9,30,119.4,29.4,117.7,29.4z"/>
	<path fill="#FFFFFF" d="M148.2,29.7l-2.5,2.4c-1.7-1.8-3.6-2.7-5.8-2.7c-1.8,0-3.3,0.6-4.5,1.8c-1.2,1.2-1.8,2.7-1.8,4.6
		c0,1.3,0.3,2.4,0.8,3.3s1.3,1.7,2.3,2.3c1,0.6,2.1,0.8,3.3,0.8c1,0,2-0.2,2.9-0.6c0.9-0.4,1.8-1.1,2.8-2.1l2.4,2.5
		c-1.4,1.4-2.7,2.3-3.9,2.8c-1.2,0.5-2.7,0.8-4.2,0.8c-2.9,0-5.3-0.9-7.2-2.8s-2.8-4.2-2.8-7.1c0-1.9,0.4-3.5,1.3-5s2.1-2.6,3.6-3.5
		c1.6-0.9,3.3-1.3,5.1-1.3c1.6,0,3,0.3,4.5,1S147.2,28.4,148.2,29.7z"/>
	<path fill="#FFFFFF" d="M158.7,26.3h3.6v7.1h6.3v-7.1h3.6v18.8h-3.6v-8.3h-6.3v8.3h-3.6V26.3z"/>
	<path fill="#FFFFFF" d="M182.3,26.3h3.6l7.2,18.8h-3.7l-1.5-3.9h-7.7l-1.5,3.9H175L182.3,26.3z M184.1,31.3l-2.5,6.5h5L184.1,31.3z
		"/>
	<path fill="#FFFFFF" d="M203.3,26.3h3.6v6.5l5.1-6.5h4.3l-6.6,8.4l7.2,10.4h-4.3l-5.8-8.4v8.4h-3.6V26.3z"/>
	<path fill="#FFFFFF" d="M228.4,25.9c2.7,0,5,1,6.9,2.9c1.9,1.9,2.9,4.3,2.9,7.1c0,2.7-0.9,5.1-2.8,7c-1.9,1.9-4.2,2.9-6.9,2.9
		c-2.8,0-5.2-1-7-2.9c-1.9-2-2.8-4.3-2.8-7c0-1.8,0.4-3.5,1.3-5c0.9-1.5,2.1-2.7,3.6-3.6C225,26.3,226.6,25.9,228.4,25.9z
		 M228.4,29.4c-1.7,0-3.2,0.6-4.4,1.8c-1.2,1.2-1.8,2.8-1.8,4.6c0,2.1,0.7,3.7,2.2,4.9c1.2,0.9,2.5,1.4,4,1.4c1.7,0,3.1-0.6,4.3-1.8
		c1.2-1.2,1.8-2.7,1.8-4.5c0-1.8-0.6-3.3-1.8-4.6C231.6,30,230.1,29.4,228.4,29.4z"/>
	<path fill="#FFFFFF" d="M241.5,26.3h3.6v7.1h6.3v-7.1h3.6v18.8h-3.6v-8.3h-6.3v8.3h-3.6V26.3z"/>
	<path fill="#FFFFFF" d="M276.7,29.7l-2.5,2.4c-1.7-1.8-3.6-2.7-5.8-2.7c-1.8,0-3.3,0.6-4.5,1.8c-1.2,1.2-1.8,2.7-1.8,4.6
		c0,1.3,0.3,2.4,0.8,3.3s1.3,1.7,2.3,2.3c1,0.6,2.1,0.8,3.3,0.8c1,0,2-0.2,2.9-0.6c0.9-0.4,1.8-1.1,2.8-2.1l2.4,2.5
		c-1.4,1.4-2.7,2.3-3.9,2.8c-1.2,0.5-2.7,0.8-4.2,0.8c-2.9,0-5.3-0.9-7.2-2.8s-2.8-4.2-2.8-7.1c0-1.9,0.4-3.5,1.3-5s2.1-2.6,3.6-3.5
		c1.6-0.9,3.3-1.3,5.1-1.3c1.6,0,3,0.3,4.5,1S275.6,28.4,276.7,29.7z"/>
	<path fill="#FFFFFF" d="M285.1,40.9l-6.7-14.5h4l4.4,10.5l3.6-10.5h3.7l-5,13.5c-0.9,2.3-1.8,3.8-2.8,4.6s-2.1,1.2-3.2,1.2
		c-1.9,0-3.6-0.9-5.2-2.7l2.4-2.4c0.9,1.1,1.9,1.6,2.8,1.6c0.4,0,0.7-0.1,1-0.3S284.7,41.3,285.1,40.9z"/>
	<path fill="#FFFFFF" d="M308.8,45.2l-5.2-13.9l-5.3,13.9h-3.8l7.3-18.8h3.6l7.2,18.8H308.8z"/>
	<path fill="#FFFFFF" d="M314.8,45.2V26.3h3.6v7.1h0.8c1.5,0,2.7,0.2,3.7,0.5s1.9,1,2.6,2c0.7,1,1.1,2.1,1.1,3.5
		c0,1.3-0.3,2.4-0.9,3.3s-1.3,1.5-2.2,1.9c-0.8,0.4-2,0.6-3.4,0.6H314.8z M318.4,36.6v5.1h0.9c1.5,0,2.5-0.2,3-0.6
		c0.5-0.4,0.8-1,0.8-1.9c0-1.8-1.3-2.7-3.9-2.7H318.4z"/>
	<path fill="#FFFFFF" d="M327.9,26.3h10.4v3.5h-3.4v15.3h-3.6V29.9h-3.3V26.3z"/>
	<path fill="#FFFFFF" d="M346.5,26.3h3.6l7.2,18.8h-3.7l-1.5-3.9h-7.7l-1.5,3.9h-3.7L346.5,26.3z M348.3,31.3l-2.5,6.5h5L348.3,31.3
		z"/>
	<path fill="#FFFFFF" d="M360.1,45.2V26.3h3.6V42h6.3V26.3h3.6V42h3.8v6h-3.4v-2.8H360.1z"/>
	<path fill="#FFFFFF" d="M393.5,26.3v18.8h-3.6V33.4l-7,11.8h-3.1V26.3h3.6v12.2l7.1-12.2H393.5z"/>
	<path fill="#FFFFFF" d="M401.4,33.5h2.4c1.1-2.9,2.5-4.8,4.3-5.9c1.7-1.1,3.5-1.6,5.4-1.6c2.6,0,4.9,1,6.8,2.8s2.9,4.3,2.9,7.1
		c0,2.7-0.9,5.1-2.8,7c-1.9,1.9-4.2,2.9-6.9,2.9c-2.4,0-4.6-0.8-6.5-2.4c-1.9-1.6-3-3.7-3.2-6.4h-2.4v8.2h-3.6V26.3h3.6V33.5z
		 M419.7,35.8c0-1.7-0.6-3.2-1.8-4.5c-1.2-1.3-2.6-1.9-4.4-1.9c-1.7,0-3.1,0.6-4.4,1.8s-1.8,2.7-1.8,4.7c0,1.9,0.6,3.4,1.9,4.6
		c1.2,1.2,2.7,1.8,4.4,1.8c1.7,0,3.1-0.6,4.3-1.9C419.1,39.1,419.7,37.6,419.7,35.8z"/>
</g>
</svg>
