<?xml version="1.0" encoding="utf-8"?>
<!-- Generator: Adobe Illustrator 21.1.0, SVG Export Plug-In . SVG Version: 6.00 Build 0)  -->
<svg version="1.1" id="Layer_1" xmlns="http://www.w3.org/2000/svg" xmlns:xlink="http://www.w3.org/1999/xlink" x="0px" y="0px"
	 viewBox="0 0 171 171" style="enable-background:new 0 0 171 171;" xml:space="preserve">
<style type="text/css">
	.st0{fill:#0068FF;}
	.st1{fill:#001840;}
	.st2{fill:#6EB0FF;}
	.st3{fill:#FFFFFF;}
	.st4{fill:#57ABFF;}
</style>
<g>
	
		<rect x="26.4" y="26.4" transform="matrix(0.7071 -0.7071 0.7071 0.7071 -35.4153 85.5)" class="st0" width="118.2" height="118.2"/>
	<path class="st1" d="M85.5,3.3l82.2,82.2l-82.2,82.2L3.3,85.5L85.5,3.3 M85.5,0.5l-85,85l85,85l85-85L85.5,0.5L85.5,0.5z"/>
</g>
<path class="st2" d="M60.7,64.2v4.7c0,3.6,2.9,6.5,6.5,6.5h13.1c-0.7,3.9-0.9,8.1-0.9,12c0,3.5,2.8,6.6,6.3,6.6c0.1,0,0.3,0,0.4,0
	c3.5-0.1,6.3-3.1,6.3-6.6c0-3.8-0.2-8-0.9-12h13.1c3.6,0,6.5-2.9,6.5-6.5v-4.7H60.7z"/>
<path class="st0" d="M88.7,85.6c0-1.6-1.2-2.8-2.8-2.8c-1.6,0-2.8,1.2-2.8,2.8c0,1.6,1.2,2.8,2.8,2.8S88.7,87.2,88.7,85.6"/>
<path class="st3" d="M109.2,39.9c1,0,1.9,0.8,1.9,1.9v14H60.7v-14c0-1,0.8-1.9,1.9-1.9H109.2z"/>
<path class="st4" d="M59.8,64.2H112v-8.4H59.8V64.2z"/>
<g>
	<path class="st2" d="M106.4,53c0.6,0,0.9-0.4,0.9-0.9V39.9h-1.9V52C105.5,52.6,105.9,53,106.4,53"/>
	<path class="st2" d="M102.7,50.2c0.6,0,0.9-0.4,0.9-0.9v-9.3h-1.9v9.3C101.8,49.8,102.1,50.2,102.7,50.2"/>
	<path class="st2" d="M99,53c0.6,0,0.9-0.4,0.9-0.9V39.9H98V52C98,52.6,98.4,53,99,53"/>
	<path class="st2" d="M95.2,50.2c0.6,0,0.9-0.4,0.9-0.9v-9.3h-1.9v9.3C94.3,49.8,94.7,50.2,95.2,50.2"/>
	<path class="st2" d="M91.5,53c0.6,0,0.9-0.4,0.9-0.9V39.9h-1.9V52C90.6,52.6,90.9,53,91.5,53"/>
	<path class="st2" d="M87.8,50.2c0.6,0,0.9-0.4,0.9-0.9v-9.3h-1.9v9.3C86.8,49.8,87.2,50.2,87.8,50.2"/>
	<path class="st2" d="M84,53c0.6,0,0.9-0.4,0.9-0.9V39.9h-1.9V52C83.1,52.6,83.5,53,84,53"/>
	<path class="st2" d="M80.3,50.2c0.6,0,0.9-0.4,0.9-0.9v-9.3h-1.9v9.3C79.4,49.8,79.7,50.2,80.3,50.2"/>
	<path class="st2" d="M76.6,53c0.6,0,0.9-0.4,0.9-0.9V39.9h-1.9V52C75.6,52.6,76,53,76.6,53"/>
	<path class="st2" d="M72.8,50.2c0.6,0,0.9-0.4,0.9-0.9v-9.3h-1.9v9.3C71.9,49.8,72.3,50.2,72.8,50.2"/>
	<path class="st2" d="M69.1,53c0.6,0,0.9-0.4,0.9-0.9V39.9h-1.9V52C68.2,52.6,68.6,53,69.1,53"/>
	<path class="st2" d="M65.4,50.2c0.6,0,0.9-0.4,0.9-0.9v-9.3h-1.9v9.3C64.4,49.8,64.8,50.2,65.4,50.2"/>
</g>
<g>
	<path class="st0" d="M67.2,67.9c0-0.6-0.4-0.9-0.9-0.9h-5.6v1.9h5.6C66.9,68.8,67.2,68.5,67.2,67.9"/>
	<path class="st0" d="M64.4,70.7h-2.8c-0.2,0-0.5,0.1-0.6,0.2c0.2,0.6,0.5,1.1,0.8,1.7h2.5c0.6,0,0.9-0.4,0.9-0.9S65,70.7,64.4,70.7
		"/>
</g>
<g>
	<g>
		<path class="st3" d="M72.1,114.3c0.7,0.4,1.2,1,1.5,1.6c0.4,0.7,0.5,1.4,0.5,2.1c0,0.8-0.2,1.6-0.6,2.3c-0.4,0.7-1,1.2-1.7,1.6
			c-0.7,0.4-1.6,0.5-2.7,0.5c-1.2,0-2.1-0.2-2.8-0.5c-0.7-0.3-1.2-0.9-1.6-1.6c-0.4-0.7-0.6-1.5-0.6-2.4c0-0.8,0.2-1.4,0.5-2.1
			c0.3-0.6,0.8-1.2,1.5-1.7c-0.4-0.4-0.8-0.9-1-1.4c-0.2-0.5-0.3-1-0.3-1.6c0-0.7,0.2-1.4,0.5-2c0.4-0.6,0.9-1.1,1.5-1.4
			c0.7-0.3,1.4-0.5,2.3-0.5c0.8,0,1.6,0.2,2.2,0.5s1.1,0.8,1.5,1.5c0.4,0.6,0.6,1.3,0.6,2c0,0.5-0.1,1-0.3,1.4
			C73,113.2,72.6,113.7,72.1,114.3z M69.2,115.7c-0.7,0-1.2,0.2-1.7,0.6s-0.7,0.9-0.7,1.4c0,0.6,0.2,1.1,0.6,1.5s1,0.6,1.7,0.6
			c0.7,0,1.3-0.2,1.7-0.6s0.6-0.9,0.6-1.5s-0.2-1.1-0.6-1.5C70.4,115.9,69.8,115.7,69.2,115.7z M69.1,110c-0.4,0-0.8,0.1-1.1,0.4
			c-0.3,0.3-0.4,0.7-0.4,1.1c0,0.5,0.2,0.8,0.5,1.2c0.3,0.3,0.7,0.5,1.1,0.5c0.5,0,0.8-0.2,1.1-0.5c0.3-0.3,0.4-0.7,0.4-1.2
			c0-0.5-0.2-0.8-0.5-1.1C70,110.1,69.6,110,69.1,110z"/>
		<path class="st3" d="M81.4,107.3h2.7v9.3h1.3v2.5h-1.3v3h-2.7v-3h-6.3v-2.5L81.4,107.3z M81.5,116.6v-4.8l-3.3,4.8H81.5z"/>
		<path class="st3" d="M89.3,107.7h6.7v2.5h-4.7l-0.6,2.6c0.2,0,0.3-0.1,0.5-0.1c0.2,0,0.3,0,0.4,0c1.3,0,2.4,0.4,3.3,1.3
			s1.3,2,1.3,3.4c0,1.4-0.5,2.6-1.4,3.5s-2.1,1.4-3.5,1.4c-1.2,0-2.3-0.3-3.2-1s-1.5-1.7-1.7-2.9h2.9c0.2,0.4,0.5,0.8,0.9,1
			c0.4,0.2,0.8,0.3,1.2,0.3c0.6,0,1.1-0.2,1.5-0.7c0.4-0.4,0.6-1,0.6-1.7c0-0.7-0.2-1.2-0.6-1.6c-0.4-0.4-0.9-0.6-1.4-0.6
			c-0.3,0-0.6,0.1-0.9,0.2s-0.6,0.4-0.9,0.7l-2.2-0.5L89.3,107.7z"/>
		<path class="st3" d="M100.6,107.7h6.7v2.5h-4.7l-0.6,2.6c0.2,0,0.3-0.1,0.5-0.1c0.2,0,0.3,0,0.4,0c1.3,0,2.4,0.4,3.3,1.3
			s1.3,2,1.3,3.4c0,1.4-0.5,2.6-1.4,3.5s-2.1,1.4-3.5,1.4c-1.2,0-2.3-0.3-3.2-1s-1.5-1.7-1.7-2.9h2.9c0.2,0.4,0.5,0.8,0.9,1
			c0.4,0.2,0.8,0.3,1.2,0.3c0.6,0,1.1-0.2,1.5-0.7c0.4-0.4,0.6-1,0.6-1.7c0-0.7-0.2-1.2-0.6-1.6c-0.4-0.4-0.9-0.6-1.4-0.6
			c-0.3,0-0.6,0.1-0.9,0.2s-0.6,0.4-0.9,0.7l-2.2-0.5L100.6,107.7z"/>
		<path class="st3" d="M76.8,131.7h2.7l3.3,10l3.4-10h2.7l2.4,14.4h-2.6L87,137l-3.1,9.1h-2.4l-3-9.1l-1.6,9.1h-2.7L76.8,131.7z"/>
		<path class="st3" d="M93.8,133.7h-1.6c0-0.9,0.3-1.6,0.9-2.1c0.5-0.5,1.2-0.8,2-0.8c0.5,0,1,0.1,1.3,0.3c0.4,0.2,0.7,0.5,0.9,0.9
			c0.2,0.4,0.4,0.8,0.4,1.2c0,0.5-0.1,1-0.4,1.6c-0.3,0.6-0.8,1.3-1.6,2l-0.9,1h3v1.5H92v-0.8l2.6-2.6c0.6-0.6,1-1.1,1.3-1.5
			c0.2-0.4,0.3-0.7,0.3-1c0-0.3-0.1-0.6-0.3-0.8c-0.2-0.2-0.5-0.3-0.8-0.3c-0.3,0-0.6,0.1-0.9,0.4C93.9,133,93.8,133.3,93.8,133.7z"
			/>
	</g>
</g>
</svg>
