<?xml version="1.0" encoding="utf-8"?>
<!-- Generator: Adobe Illustrator 21.1.0, SVG Export Plug-In . SVG Version: 6.00 Build 0)  -->
<svg version="1.1" id="Layer_1" xmlns="http://www.w3.org/2000/svg" xmlns:xlink="http://www.w3.org/1999/xlink" x="0px" y="0px"
	 viewBox="0 0 171 171" style="enable-background:new 0 0 171 171;" xml:space="preserve">
<style type="text/css">
	.st0{fill:#0068FF;}
	.st1{fill:#001840;}
	.st2{fill:#6EB0FF;}
	.st3{fill:#FFFFFF;}
</style>
<g>
	
		<rect x="26.4" y="26.4" transform="matrix(0.7071 -0.7071 0.7071 0.7071 -35.4153 85.5)" class="st0" width="118.2" height="118.2"/>
	<path class="st1" d="M85.5,3.3l82.2,82.2l-82.2,82.2L3.3,85.5L85.5,3.3 M85.5,0.5l-85,85l85,85l85-85L85.5,0.5L85.5,0.5z"/>
</g>
<path class="st2" d="M97.2,42.4l-11.2,8l-11.2-8l11.2-8L97.2,42.4z"/>
<g>
	<path class="st3" d="M113.1,53.6l-11.2,8l-11.2-8l11.2-8L113.1,53.6z"/>
	<path class="st3" d="M81.2,53.6l-11.2,8l-11.2-8l11.2-8L81.2,53.6z"/>
</g>
<g>
	<path class="st2" d="M97.2,64.7l-11.2,8l-11.2-8l11.2-8L97.2,64.7z"/>
	<path class="st2" d="M97.2,87.1l-11.2,8l-11.2-8l11.2-8L97.2,87.1z"/>
	<path class="st2" d="M129.1,64.7l-11.2,8l-11.2-8l11.2-8L129.1,64.7z"/>
</g>
<path class="st3" d="M113.1,75.9l-11.2,8l-11.2-8l11.2-8L113.1,75.9z"/>
<path class="st2" d="M65.3,64.7l-11.2,8l-11.2-8l11.2-8L65.3,64.7z"/>
<path class="st3" d="M81.2,75.9l-11.2,8l-11.2-8l11.2-8L81.2,75.9z"/>
<g>
	<g>
		<path class="st3" d="M70.2,107.3h2.7v9.3h1.3v2.5h-1.3v3h-2.7v-3H64v-2.5L70.2,107.3z M70.3,116.6v-4.8l-3.3,4.8H70.3z"/>
		<path class="st3" d="M78.6,111.2H76c0.1-1.1,0.5-1.9,1.1-2.6c0.9-0.9,2-1.3,3.3-1.3c1.2,0,2.2,0.4,3,1.1c0.8,0.8,1.2,1.6,1.2,2.7
			c0,0.6-0.2,1.2-0.5,1.8c-0.3,0.5-0.9,1-1.5,1.3c0.9,0.3,1.6,0.7,2,1.4c0.5,0.6,0.7,1.4,0.7,2.3c0,1.3-0.5,2.4-1.4,3.3
			c-1,0.9-2.2,1.3-3.6,1.3c-1.4,0-2.5-0.4-3.4-1.3c-0.9-0.8-1.4-2-1.4-3.4h2.7c0.1,0.7,0.4,1.3,0.8,1.7s0.9,0.5,1.5,0.5
			c0.6,0,1.2-0.2,1.6-0.6s0.6-0.9,0.6-1.5c0-0.7-0.3-1.2-0.9-1.7s-1.4-0.7-2.5-0.7v-2.3c0.7-0.1,1.1-0.2,1.5-0.3
			c0.3-0.2,0.6-0.4,0.8-0.6c0.2-0.3,0.3-0.6,0.3-0.9c0-0.4-0.1-0.7-0.4-1c-0.3-0.3-0.6-0.4-1.1-0.4c-0.4,0-0.7,0.1-1.1,0.4
			C78.9,110.5,78.7,110.8,78.6,111.2z"/>
		<path class="st3" d="M94.6,114.3c0.7,0.4,1.2,1,1.5,1.6c0.4,0.7,0.5,1.4,0.5,2.1c0,0.8-0.2,1.6-0.6,2.3c-0.4,0.7-1,1.2-1.7,1.6
			c-0.7,0.4-1.6,0.5-2.7,0.5c-1.2,0-2.1-0.2-2.8-0.5c-0.7-0.3-1.2-0.9-1.6-1.6c-0.4-0.7-0.6-1.5-0.6-2.4c0-0.8,0.2-1.4,0.5-2.1
			c0.3-0.6,0.8-1.2,1.5-1.7c-0.4-0.4-0.8-0.9-1-1.4c-0.2-0.5-0.3-1-0.3-1.6c0-0.7,0.2-1.4,0.5-2c0.4-0.6,0.9-1.1,1.5-1.4
			c0.7-0.3,1.4-0.5,2.3-0.5c0.8,0,1.6,0.2,2.2,0.5s1.1,0.8,1.5,1.5c0.4,0.6,0.6,1.3,0.6,2c0,0.5-0.1,1-0.3,1.4
			C95.4,113.2,95.1,113.7,94.6,114.3z M91.6,115.7c-0.7,0-1.2,0.2-1.7,0.6s-0.7,0.9-0.7,1.4c0,0.6,0.2,1.1,0.6,1.5s1,0.6,1.7,0.6
			c0.7,0,1.3-0.2,1.7-0.6s0.6-0.9,0.6-1.5s-0.2-1.1-0.6-1.5S92.3,115.7,91.6,115.7z M91.5,110c-0.4,0-0.8,0.1-1.1,0.4
			c-0.3,0.3-0.4,0.7-0.4,1.1c0,0.5,0.2,0.8,0.5,1.2c0.3,0.3,0.7,0.5,1.1,0.5c0.5,0,0.8-0.2,1.1-0.5c0.3-0.3,0.4-0.7,0.4-1.2
			c0-0.5-0.2-0.8-0.4-1.1C92.4,110.1,92,110,91.5,110z"/>
		<path class="st3" d="M102.8,107.3c1.1,0,2,0.3,2.7,0.8c0.8,0.5,1.3,1.3,1.8,2.4c0.4,1.1,0.6,2.5,0.6,4.4c0,1.9-0.2,3.4-0.6,4.5
			c-0.4,1.1-1,1.8-1.7,2.3s-1.6,0.7-2.7,0.7c-1.1,0-2-0.3-2.7-0.8s-1.3-1.3-1.7-2.3c-0.4-1-0.6-2.5-0.6-4.4c0-2.6,0.4-4.6,1.2-5.7
			C99.9,108,101.2,107.3,102.8,107.3z M102.9,109.9c-0.5,0-0.9,0.1-1.2,0.4s-0.6,0.8-0.8,1.5c-0.2,0.7-0.3,1.8-0.3,3.2
			c0,1.8,0.2,3.1,0.6,3.8s1,1,1.7,1c0.7,0,1.2-0.3,1.6-1c0.5-0.8,0.7-2.1,0.7-4c0-1.9-0.2-3.2-0.6-3.9
			C104.1,110.3,103.5,109.9,102.9,109.9z"/>
		<path class="st3" d="M76.8,131.7h2.7l3.3,10l3.4-10h2.7l2.4,14.4h-2.6L87,137l-3.1,9.1h-2.4l-3-9.1l-1.6,9.1h-2.7L76.8,131.7z"/>
		<path class="st3" d="M93.8,133.7h-1.6c0-0.9,0.3-1.6,0.9-2.1c0.5-0.5,1.2-0.8,2-0.8c0.5,0,1,0.1,1.3,0.3c0.4,0.2,0.7,0.5,0.9,0.9
			c0.2,0.4,0.4,0.8,0.4,1.2c0,0.5-0.1,1-0.4,1.6c-0.3,0.6-0.8,1.3-1.6,2l-0.9,1h3v1.5H92v-0.8l2.6-2.6c0.6-0.6,1-1.1,1.3-1.5
			c0.2-0.4,0.3-0.7,0.3-1c0-0.3-0.1-0.6-0.3-0.8c-0.2-0.2-0.5-0.3-0.8-0.3c-0.3,0-0.6,0.1-0.9,0.4C93.9,133,93.8,133.3,93.8,133.7z"
			/>
	</g>
</g>
</svg>
