<?xml version="1.0" encoding="utf-8"?>
<!-- Generator: Adobe Illustrator 21.1.0, SVG Export Plug-In . SVG Version: 6.00 Build 0)  -->
<svg version="1.1" id="Layer_1" xmlns="http://www.w3.org/2000/svg" xmlns:xlink="http://www.w3.org/1999/xlink" x="0px" y="0px"
	 viewBox="0 0 171 171" style="enable-background:new 0 0 171 171;" xml:space="preserve">
<style type="text/css">
	.st0{fill:#0068FF;}
	.st1{fill:#001840;}
	.st2{fill:#6EB0FF;}
	.st3{fill:#FFFFFF;}
	.st4{fill:#57ABFF;}
</style>
<g>
	<rect x="25.9" y="25.9" transform="matrix(0.7071 -0.7071 0.7071 0.7071 -35.2082 85)" class="st0" width="118.2" height="118.2"/>
	<path class="st1" d="M85,2.8L167.2,85L85,167.2L2.8,85L85,2.8 M85,0L0,85l85,85l85-85L85,0L85,0z"/>
</g>
<path class="st2" d="M77.3,57.8l6-6.6L65.4,33.3c-1.1-1.1-2.8-1.1-3.9,0l-2.4,2.4c-1.1,1.1-1.1,2.8,0,3.9L77.3,57.8z"/>
<path class="st3" d="M105.5,83.5l4.3,0.5l-0.6-4.4l-3.9-2.7l-2.5,2.6L105.5,83.5z"/>
<path class="st3" d="M86.6,63.3l16.3,16.3l2.5-2.5L89.1,60.8L86.6,63.3z"/>
<path class="st0" d="M77.8,52.9c-0.3,0-0.4-0.1-0.6-0.3L62.1,37.5c-0.4-0.4-0.4-0.9,0-1.2s0.9-0.4,1.2,0l15.1,15.1
	c0.4,0.4,0.4,0.9,0,1.2C78.2,52.8,78.1,52.9,77.8,52.9"/>
<path class="st3" d="M86.6,47.3c2-2,2.3-5.2,0.2-7.4c-4.2-4.2-6.6-3.7-11.3-3.7c7.1-3.1,12.3-3.8,17.4-1.4c2.2,1,3.1,1.9,4.9,3.6
	l3.2,3.2c0.8,0.8,1.3,1.9,1.5,2.9c0.3,1.7-0.2,2,1,3.3c0.4,0.4,0.9,0.4,1.2,0c0.4-0.4,0.9-0.4,1.2,0l3.1,3.1c0.7,0.7,0.7,1.8,0,2.5
	l-6.3,6.3c-0.7,0.7-1.8,0.7-2.5,0l-2.9-3c-0.4-0.4-0.4-0.9,0-1.2s0.4-1,0-1.3c-1.2-1.2-1.6-0.8-3.3-1c-1.2-0.2-2.1-0.7-2.9-1.5
	L86.6,47.3"/>
<path class="st2" d="M86.6,47.3L59.1,78.1C58,79.2,57.9,81,59,82l1.2,1.2c1.1,1.1,2.8,1,3.8-0.1l27.6-30.9L86.6,47.3z"/>
<path class="st4" d="M82.2,62.7l2.5,2.5l6.3-6.3L88.2,56L82.2,62.7z"/>
<g>
	<g>
		<path class="st3" d="M71.7,112.3H69c0.1-1.6,0.6-2.8,1.5-3.7c0.9-0.9,2.1-1.3,3.5-1.3c0.9,0,1.6,0.2,2.3,0.6
			c0.7,0.4,1.2,0.9,1.6,1.6c0.4,0.7,0.6,1.4,0.6,2.1c0,0.9-0.2,1.8-0.7,2.8c-0.5,1-1.4,2.1-2.7,3.5l-1.6,1.7h5.1v2.5h-10v-1.3
			l4.5-4.5c1.1-1.1,1.8-2,2.1-2.6c0.4-0.7,0.5-1.3,0.5-1.8c0-0.6-0.2-1-0.6-1.4c-0.4-0.4-0.8-0.5-1.4-0.5c-0.6,0-1.1,0.2-1.5,0.7
			C71.9,111,71.7,111.6,71.7,112.3z"/>
		<path class="st3" d="M85,107.3c1,0,2,0.3,2.7,0.8s1.3,1.3,1.8,2.4c0.4,1.1,0.6,2.5,0.6,4.4c0,1.9-0.2,3.4-0.6,4.5
			c-0.4,1.1-1,1.8-1.7,2.3c-0.7,0.5-1.6,0.7-2.7,0.7s-2-0.3-2.7-0.8c-0.7-0.5-1.3-1.3-1.7-2.3c-0.4-1-0.6-2.5-0.6-4.4
			c0-2.6,0.4-4.6,1.2-5.7C82.1,108,83.3,107.3,85,107.3z M85,109.9c-0.5,0-0.9,0.1-1.2,0.4c-0.4,0.3-0.6,0.8-0.8,1.5
			c-0.2,0.7-0.3,1.8-0.3,3.2c0,1.8,0.2,3.1,0.6,3.8c0.4,0.7,1,1,1.7,1c0.7,0,1.2-0.3,1.6-1c0.5-0.8,0.7-2.1,0.7-4
			c0-1.9-0.2-3.2-0.6-3.9C86.2,110.3,85.7,109.9,85,109.9z"/>
		<path class="st3" d="M97.3,107.3h2.7v9.3h1.3v2.5H100v3h-2.7v-3H91v-2.5L97.3,107.3z M97.3,116.6v-4.8l-3.3,4.8H97.3z"/>
		<path class="st3" d="M76.6,143.6v-11.9h2.8v11.9h3.9v-11.9H86v14.4H70v-14.4h2.8v11.9H76.6z"/>
		<path class="st3" d="M87.9,131.7h8v2.7h-2.6v11.7h-2.8v-11.7h-2.6V131.7z"/>
		<path class="st3" d="M98.9,143.3c0.4,0,0.8,0.1,1.1,0.4c0.3,0.3,0.4,0.7,0.4,1.1s-0.1,0.8-0.4,1.1c-0.3,0.3-0.7,0.5-1.1,0.5
			c-0.4,0-0.8-0.1-1.1-0.5c-0.3-0.3-0.4-0.7-0.4-1.1s0.1-0.8,0.4-1.1C98.1,143.5,98.5,143.3,98.9,143.3z"/>
	</g>
</g>
</svg>
