<?xml version="1.0" encoding="utf-8"?>
<!-- Generator: Adobe Illustrator 21.1.0, SVG Export Plug-In . SVG Version: 6.00 Build 0)  -->
<svg version="1.1" id="Layer_1" xmlns="http://www.w3.org/2000/svg" xmlns:xlink="http://www.w3.org/1999/xlink" x="0px" y="0px"
	 viewBox="0 0 171 171" style="enable-background:new 0 0 171 171;" xml:space="preserve">
<style type="text/css">
	.st0{fill:#0068FF;}
	.st1{fill:#001840;}
	.st2{fill:#FFFFFF;}
	.st3{fill:#6EB0FF;}
	.st4{fill:#57ABFF;}
</style>
<g>
	
		<rect x="26.4" y="26.4" transform="matrix(0.7071 -0.7071 0.7071 0.7071 -35.4153 85.5)" class="st0" width="118.2" height="118.2"/>
	<path class="st1" d="M85.5,3.3l82.2,82.2l-82.2,82.2L3.3,85.5L85.5,3.3 M85.5,0.5l-85,85l85,85l85-85L85.5,0.5L85.5,0.5z"/>
</g>
<g transform="translate(-1)">
	<path class="st2" d="M72,45.5v4.7c0,8.2,6.2,16.8,14,16.8s14-8.6,14-16.8v-4.7H72z"/>
	<path class="st3" d="M89.7,28.7v-0.9c0-1-0.8-1.9-1.9-1.9h-3.7c-1,0-1.9,0.8-1.9,1.9v0.9c-7,1.7-12.1,7.5-12.1,14.9v1.9h31.7v-1.9
		C101.9,36.2,96.7,30.4,89.7,28.7"/>
	<g>
		<path class="st2" d="M89.7,33.4c-0.6,0-0.9-0.4-0.9-0.9v-2.8c0-0.6,0.4-0.9,0.9-0.9c0.6,0,0.9,0.4,0.9,0.9v2.8
			C90.7,33,90.3,33.4,89.7,33.4"/>
		<path class="st2" d="M82.3,33.4c-0.6,0-0.9-0.4-0.9-0.9v-2.8c0-0.6,0.4-0.9,0.9-0.9s0.9,0.4,0.9,0.9v2.8
			C83.2,33,82.8,33.4,82.3,33.4"/>
		<path class="st4" d="M103.7,46.4H68.3c-0.6,0-0.9-0.4-0.9-0.9c0-0.6,0.4-0.9,0.9-0.9h35.4c0.6,0,0.9,0.4,0.9,0.9
			C104.7,46,104.3,46.4,103.7,46.4"/>
	</g>
	<g>
		<path class="st0" d="M89.7,75.3h-7.5l3.7-8.4L89.7,75.3z"/>
		<path class="st0" d="M81.3,80l0.9-4.7h7.5l0.9,4.7H81.3z"/>
	</g>
	<g>
		<path class="st3" d="M76,61.4l-0.3-0.1l-0.9,3.7l7.5,10.3l3.7-8.4C82.1,66.9,78.5,64.7,76,61.4"/>
		<path class="st3" d="M96,61.4c-2.5,3.3-6.1,5.5-10,5.5l3.7,8.4l7.5-10.3l-0.9-3.7L96,61.4z"/>
	</g>
	<g>
		<path class="st2" d="M110.8,72.2c-5.1-2.7-10.1-4.8-14.5-5.3h-0.5l-6.1,8.4l0.9,4.7h-0.4l0,0H113v-4C113,74.4,112.2,73,110.8,72.2
			"/>
		<path class="st2" d="M76.2,66.9h-0.5c-4.5,0.6-9.4,2.6-14.5,5.3C59.8,73,59,74.4,59,76v4h22.4l0.9-4.7L76.2,66.9z"/>
	</g>
	<g>
		<path class="st2" d="M72.4,35.7l7.1,1.4l-1.4-6.8C75.7,31.6,73.8,33.5,72.4,35.7"/>
		<path class="st2" d="M99.6,35.7l-7.1,1.4l1.4-6.8C96.3,31.6,98.2,33.5,99.6,35.7"/>
	</g>
</g>
<g>
	<g>
		<path class="st2" d="M85.8,115.4l-2.3-1.2l2.5-4.9c-1.2,0-2.3-0.4-3.1-1.3c-0.9-0.9-1.3-2-1.3-3.3c0-1.3,0.4-2.3,1.3-3.2
			s1.9-1.3,3.2-1.3c1.3,0,2.4,0.5,3.2,1.4c0.9,0.9,1.3,1.9,1.3,3.1c0,0.4-0.1,0.9-0.2,1.3c-0.1,0.4-0.4,1.1-0.9,2.1L85.8,115.4z
			 M86.1,106.8c0.5,0,0.9-0.2,1.3-0.6c0.3-0.4,0.5-0.8,0.5-1.4c0-0.6-0.2-1-0.5-1.4c-0.4-0.4-0.8-0.6-1.3-0.6
			c-0.5,0-0.9,0.2-1.3,0.6c-0.4,0.4-0.5,0.8-0.5,1.4c0,0.6,0.2,1,0.5,1.4S85.6,106.8,86.1,106.8z"/>
		<path class="st2" d="M80.6,139.1l-4-10.6l-4.1,10.6h-2.9l5.6-14.4H78l5.5,14.4H80.6z"/>
		<path class="st2" d="M85.2,124.7H93v2.7h-5.1v2.6H93v2.6h-5.1v3.8H93v2.7h-7.9V124.7z"/>
		<path class="st2" d="M94.2,124.7h8v2.7h-2.6v11.7h-2.8v-11.7h-2.6V124.7z"/>
	</g>
</g>
</svg>
