<?xml version="1.0" encoding="utf-8"?>
<!-- Generator: Adobe Illustrator 21.1.0, SVG Export Plug-In . SVG Version: 6.00 Build 0)  -->
<svg version="1.1" id="Layer_1" xmlns="http://www.w3.org/2000/svg" xmlns:xlink="http://www.w3.org/1999/xlink" x="0px" y="0px"
	 viewBox="0 0 171 171" style="enable-background:new 0 0 171 171;" xml:space="preserve">
<style type="text/css">
	.st0{fill:#0068FF;}
	.st1{fill:#001840;}
	.st2{fill:#FFFFFF;}
	.st3{fill:#6EB0FF;}
</style>
<g>
	<rect x="25.9" y="25.9" transform="matrix(0.7071 -0.7071 0.7071 0.7071 -35.2082 85)" class="st0" width="118.2" height="118.2"/>
	<path class="st1" d="M85,2.8L167.2,85L85,167.2L2.8,85L85,2.8 M85,0L0,85l85,85l85-85L85,0L85,0z"/>
</g>
<path class="st2" d="M60.5,56.5h17v-17h-17V56.5z"/>
<path class="st3" d="M77.5,56.5h17v-17h-17V56.5z"/>
<path class="st2" d="M94.5,56.5h17v-17h-17V56.5z"/>
<path class="st3" d="M60.5,73.5h17v-17h-17V73.5z"/>
<path class="st2" d="M77.5,73.5h17v-17h-17V73.5z"/>
<path class="st3" d="M94.5,73.5h17v-17h-17V73.5z"/>
<path class="st2" d="M60.5,90.5h17v-17h-17V90.5z"/>
<path class="st3" d="M77.5,90.5h17v-17h-17V90.5z"/>
<path class="st2" d="M94.5,90.5h17v-17h-17V90.5z"/>
<g>
	<path class="st0" d="M63.3,45.1c-0.3,0-0.5-0.1-0.7-0.3c-0.4-0.4-0.4-0.9,0-1.3l1.9-1.9c0.4-0.4,0.9-0.4,1.3,0
		c0.4,0.4,0.4,0.9,0,1.3L64,44.8C63.8,45,63.6,45.1,63.3,45.1"/>
	<path class="st0" d="M63.3,49.8c-0.3,0-0.5-0.1-0.7-0.3c-0.4-0.4-0.4-0.9,0-1.3l1.9-1.9c0.4-0.4,0.9-0.4,1.3,0
		c0.4,0.4,0.4,0.9,0,1.3L64,49.5C63.8,49.7,63.6,49.8,63.3,49.8"/>
	<path class="st0" d="M68,45.1c-0.3,0-0.5-0.1-0.7-0.3c-0.4-0.4-0.4-0.9,0-1.3l1.9-1.9c0.4-0.4,0.9-0.4,1.3,0c0.4,0.4,0.4,0.9,0,1.3
		l-1.9,1.9C68.5,45,68.3,45.1,68,45.1"/>
</g>
<g>
	<path class="st0" d="M80.3,45.1c-0.3,0-0.5-0.1-0.7-0.3c-0.4-0.4-0.4-0.9,0-1.3l1.9-1.9c0.4-0.4,0.9-0.4,1.3,0
		c0.4,0.4,0.4,0.9,0,1.3L81,44.8C80.8,45,80.6,45.1,80.3,45.1"/>
	<path class="st0" d="M80.3,49.8c-0.3,0-0.5-0.1-0.7-0.3c-0.4-0.4-0.4-0.9,0-1.3l1.9-1.9c0.4-0.4,0.9-0.4,1.3,0
		c0.4,0.4,0.4,0.9,0,1.3L81,49.5C80.8,49.7,80.6,49.8,80.3,49.8"/>
	<path class="st0" d="M85.1,45.1c-0.3,0-0.5-0.1-0.7-0.3c-0.4-0.4-0.4-0.9,0-1.3l1.9-1.9c0.4-0.4,0.9-0.4,1.3,0
		c0.4,0.4,0.4,0.9,0,1.3l-1.9,1.9C85.5,45,85.3,45.1,85.1,45.1"/>
</g>
<g>
	<path class="st0" d="M97.4,45.1c-0.3,0-0.5-0.1-0.7-0.3c-0.4-0.4-0.4-0.9,0-1.3l1.9-1.9c0.4-0.4,0.9-0.4,1.3,0
		c0.4,0.4,0.4,0.9,0,1.3L98,44.8C97.8,45,97.6,45.1,97.4,45.1"/>
	<path class="st0" d="M97.4,49.8c-0.3,0-0.5-0.1-0.7-0.3c-0.4-0.4-0.4-0.9,0-1.3l1.9-1.9c0.4-0.4,0.9-0.4,1.3,0
		c0.4,0.4,0.4,0.9,0,1.3L98,49.5C97.8,49.7,97.6,49.8,97.4,49.8"/>
	<path class="st0" d="M102.1,45.1c-0.3,0-0.5-0.1-0.7-0.3c-0.4-0.4-0.4-0.9,0-1.3l1.9-1.9c0.4-0.4,0.9-0.4,1.3,0
		c0.4,0.4,0.4,0.9,0,1.3l-1.9,1.9C102.6,45,102.4,45.1,102.1,45.1"/>
</g>
<g>
	<path class="st0" d="M63.3,62.1c-0.3,0-0.5-0.1-0.7-0.3c-0.4-0.4-0.4-0.9,0-1.3l1.9-1.9c0.4-0.4,0.9-0.4,1.3,0
		c0.4,0.4,0.4,0.9,0,1.3L64,61.8C63.8,62,63.6,62.1,63.3,62.1"/>
	<path class="st0" d="M63.3,66.9c-0.3,0-0.5-0.1-0.7-0.3c-0.4-0.4-0.4-0.9,0-1.3l1.9-1.9c0.4-0.4,0.9-0.4,1.3,0
		c0.4,0.4,0.4,0.9,0,1.3L64,66.6C63.8,66.8,63.6,66.9,63.3,66.9"/>
	<path class="st0" d="M68,62.1c-0.3,0-0.5-0.1-0.7-0.3c-0.4-0.4-0.4-0.9,0-1.3l1.9-1.9c0.4-0.4,0.9-0.4,1.3,0c0.4,0.4,0.4,0.9,0,1.3
		l-1.9,1.9C68.5,62,68.3,62.1,68,62.1"/>
</g>
<g>
	<path class="st0" d="M80.3,62.1c-0.3,0-0.5-0.1-0.7-0.3c-0.4-0.4-0.4-0.9,0-1.3l1.9-1.9c0.4-0.4,0.9-0.4,1.3,0
		c0.4,0.4,0.4,0.9,0,1.3L81,61.8C80.8,62,80.6,62.1,80.3,62.1"/>
	<path class="st0" d="M80.3,66.9c-0.3,0-0.5-0.1-0.7-0.3c-0.4-0.4-0.4-0.9,0-1.3l1.9-1.9c0.4-0.4,0.9-0.4,1.3,0
		c0.4,0.4,0.4,0.9,0,1.3L81,66.6C80.8,66.8,80.6,66.9,80.3,66.9"/>
	<path class="st0" d="M85.1,62.1c-0.3,0-0.5-0.1-0.7-0.3c-0.4-0.4-0.4-0.9,0-1.3l1.9-1.9c0.4-0.4,0.9-0.4,1.3,0
		c0.4,0.4,0.4,0.9,0,1.3l-1.9,1.9C85.5,62,85.3,62.1,85.1,62.1"/>
</g>
<g>
	<path class="st0" d="M97.4,62.1c-0.3,0-0.5-0.1-0.7-0.3c-0.4-0.4-0.4-0.9,0-1.3l1.9-1.9c0.4-0.4,0.9-0.4,1.3,0
		c0.4,0.4,0.4,0.9,0,1.3L98,61.8C97.8,62,97.6,62.1,97.4,62.1"/>
	<path class="st0" d="M97.4,66.9c-0.3,0-0.5-0.1-0.7-0.3c-0.4-0.4-0.4-0.9,0-1.3l1.9-1.9c0.4-0.4,0.9-0.4,1.3,0
		c0.4,0.4,0.4,0.9,0,1.3L98,66.6C97.8,66.8,97.6,66.9,97.4,66.9"/>
	<path class="st0" d="M102.1,62.1c-0.3,0-0.5-0.1-0.7-0.3c-0.4-0.4-0.4-0.9,0-1.3l1.9-1.9c0.4-0.4,0.9-0.4,1.3,0
		c0.4,0.4,0.4,0.9,0,1.3l-1.9,1.9C102.6,62,102.4,62.1,102.1,62.1"/>
</g>
<g>
	<path class="st0" d="M63.3,79.2c-0.3,0-0.5-0.1-0.7-0.3c-0.4-0.4-0.4-0.9,0-1.3l1.9-1.9c0.4-0.4,0.9-0.4,1.3,0s0.4,0.9,0,1.3
		L64,78.9C63.8,79.1,63.6,79.2,63.3,79.2"/>
	<path class="st0" d="M63.3,83.9c-0.3,0-0.5-0.1-0.7-0.3c-0.4-0.4-0.4-0.9,0-1.3l1.9-1.9c0.4-0.4,0.9-0.4,1.3,0
		c0.4,0.4,0.4,0.9,0,1.3L64,83.6C63.8,83.8,63.6,83.9,63.3,83.9"/>
	<path class="st0" d="M68,79.2c-0.3,0-0.5-0.1-0.7-0.3c-0.4-0.4-0.4-0.9,0-1.3l1.9-1.9c0.4-0.4,0.9-0.4,1.3,0c0.4,0.4,0.4,0.9,0,1.3
		l-1.9,1.9C68.5,79.1,68.3,79.2,68,79.2"/>
</g>
<g>
	<path class="st0" d="M80.3,79.2c-0.3,0-0.5-0.1-0.7-0.3c-0.4-0.4-0.4-0.9,0-1.3l1.9-1.9c0.4-0.4,0.9-0.4,1.3,0
		c0.4,0.4,0.4,0.9,0,1.3L81,78.9C80.8,79.1,80.6,79.2,80.3,79.2"/>
	<path class="st0" d="M80.3,83.9c-0.3,0-0.5-0.1-0.7-0.3c-0.4-0.4-0.4-0.9,0-1.3l1.9-1.9c0.4-0.4,0.9-0.4,1.3,0
		c0.4,0.4,0.4,0.9,0,1.3L81,83.6C80.8,83.8,80.6,83.9,80.3,83.9"/>
	<path class="st0" d="M85.1,79.2c-0.3,0-0.5-0.1-0.7-0.3c-0.4-0.4-0.4-0.9,0-1.3l1.9-1.9c0.4-0.4,0.9-0.4,1.3,0s0.4,0.9,0,1.3
		l-1.9,1.9C85.5,79.1,85.3,79.2,85.1,79.2"/>
</g>
<g>
	<path class="st0" d="M97.4,79.2c-0.3,0-0.5-0.1-0.7-0.3c-0.4-0.4-0.4-0.9,0-1.3l1.9-1.9c0.4-0.4,0.9-0.4,1.3,0
		c0.4,0.4,0.4,0.9,0,1.3L98,78.9C97.8,79.1,97.6,79.2,97.4,79.2"/>
	<path class="st0" d="M97.4,83.9c-0.3,0-0.5-0.1-0.7-0.3c-0.4-0.4-0.4-0.9,0-1.3l1.9-1.9c0.4-0.4,0.9-0.4,1.3,0
		c0.4,0.4,0.4,0.9,0,1.3L98,83.6C97.8,83.8,97.6,83.9,97.4,83.9"/>
	<path class="st0" d="M102.1,79.2c-0.3,0-0.5-0.1-0.7-0.3c-0.4-0.4-0.4-0.9,0-1.3l1.9-1.9c0.4-0.4,0.9-0.4,1.3,0
		c0.4,0.4,0.4,0.9,0,1.3l-1.9,1.9C102.6,79.1,102.4,79.2,102.1,79.2"/>
</g>
<g>
	<g>
		<path class="st2" d="M69.7,107.8h2.7v9.3h1.3v2.5h-1.3v3h-2.7v-3h-6.3v-2.5L69.7,107.8z M69.8,117.1v-4.8l-3.3,4.8H69.8z"/>
		<path class="st2" d="M80.1,107.8l2.3,1.2l-2.5,4.9c1.2,0,2.3,0.4,3.1,1.3c0.9,0.9,1.3,2,1.3,3.3c0,1.3-0.4,2.3-1.3,3.2
			c-0.9,0.9-1.9,1.3-3.2,1.3c-1.3,0-2.4-0.5-3.2-1.4c-0.9-0.9-1.3-1.9-1.3-3.1c0-0.4,0.1-0.9,0.2-1.3c0.1-0.4,0.4-1.1,0.9-2.1
			L80.1,107.8z M79.7,116.5c-0.5,0-0.9,0.2-1.3,0.6c-0.3,0.4-0.5,0.8-0.5,1.4s0.2,1,0.5,1.4s0.8,0.6,1.3,0.6c0.5,0,0.9-0.2,1.3-0.6
			c0.4-0.4,0.5-0.8,0.5-1.4c0-0.6-0.2-1-0.5-1.4C80.7,116.6,80.3,116.5,79.7,116.5z"/>
		<path class="st2" d="M88.8,108.2h6.7v2.5h-4.7l-0.6,2.6c0.2,0,0.3-0.1,0.5-0.1c0.2,0,0.3,0,0.4,0c1.3,0,2.4,0.4,3.3,1.3
			s1.3,2,1.3,3.4c0,1.4-0.5,2.6-1.4,3.5c-1,1-2.1,1.4-3.5,1.4c-1.2,0-2.3-0.3-3.2-1c-0.9-0.7-1.5-1.7-1.7-2.9h2.9
			c0.2,0.4,0.5,0.8,0.9,1s0.8,0.3,1.2,0.3c0.6,0,1.1-0.2,1.5-0.7c0.4-0.4,0.6-1,0.6-1.7c0-0.7-0.2-1.2-0.6-1.6
			c-0.4-0.4-0.9-0.6-1.4-0.6c-0.3,0-0.6,0.1-0.9,0.2s-0.6,0.4-0.9,0.7l-2.2-0.5L88.8,108.2z"/>
		<path class="st2" d="M102.3,107.8c1.1,0,2,0.3,2.7,0.8c0.8,0.5,1.3,1.3,1.8,2.4c0.4,1.1,0.6,2.5,0.6,4.4c0,1.9-0.2,3.4-0.6,4.5
			c-0.4,1.1-1,1.8-1.7,2.3s-1.6,0.7-2.7,0.7c-1.1,0-2-0.3-2.7-0.8s-1.3-1.3-1.7-2.3c-0.4-1-0.6-2.5-0.6-4.4c0-2.6,0.4-4.6,1.2-5.7
			C99.4,108.5,100.7,107.8,102.3,107.8z M102.4,110.4c-0.5,0-0.9,0.1-1.2,0.4c-0.4,0.3-0.6,0.8-0.8,1.5c-0.2,0.7-0.3,1.8-0.3,3.2
			c0,1.8,0.2,3.1,0.6,3.8c0.4,0.7,1,1,1.7,1c0.7,0,1.2-0.3,1.6-1c0.5-0.8,0.7-2.1,0.7-4c0-1.9-0.2-3.2-0.6-3.9
			C103.6,110.8,103,110.4,102.4,110.4z"/>
		<path class="st2" d="M76.3,132.2h2.7l3.3,10l3.4-10h2.7l2.4,14.4h-2.6l-1.5-9.1l-3.1,9.1H81l-3-9.1l-1.6,9.1h-2.7L76.3,132.2z"/>
		<path class="st2" d="M93.3,134.2h-1.6c0-0.9,0.3-1.6,0.9-2.1c0.5-0.5,1.2-0.8,2-0.8c0.5,0,1,0.1,1.3,0.3c0.4,0.2,0.7,0.5,0.9,0.9
			s0.4,0.8,0.4,1.2c0,0.5-0.1,1-0.4,1.6c-0.3,0.6-0.8,1.3-1.6,2l-0.9,1h3v1.5h-5.8v-0.8l2.6-2.6c0.6-0.6,1-1.1,1.3-1.5
			c0.2-0.4,0.3-0.7,0.3-1c0-0.3-0.1-0.6-0.3-0.8c-0.2-0.2-0.5-0.3-0.8-0.3c-0.3,0-0.6,0.1-0.9,0.4C93.4,133.5,93.3,133.8,93.3,134.2
			z"/>
	</g>
</g>
</svg>
