<?xml version="1.0" encoding="utf-8"?>
<!-- Generator: Adobe Illustrator 21.1.0, SVG Export Plug-In . SVG Version: 6.00 Build 0)  -->
<svg version="1.1" id="Layer_1" xmlns="http://www.w3.org/2000/svg" xmlns:xlink="http://www.w3.org/1999/xlink" x="0px" y="0px"
	 viewBox="0 0 171 171" style="enable-background:new 0 0 171 171;" xml:space="preserve">
<style type="text/css">
	.st0{fill:#0068FF;}
	.st1{fill:#001840;}
	.st2{fill:#6EB0FF;}
	.st3{fill:#FFFFFF;}
	.st4{fill:#0068FF;stroke:#0068FF;stroke-width:0.25;stroke-miterlimit:10;}
	.st5{fill:#57ABFF;}
</style>
<g>
	
		<rect x="26.4" y="26.4" transform="matrix(0.7071 -0.7071 0.7071 0.7071 -35.4153 85.5)" class="st0" width="118.2" height="118.2"/>
	<path class="st1" d="M85.5,3.3l82.2,82.2l-82.2,82.2L3.3,85.5L85.5,3.3 M85.5,0.5l-85,85l85,85l85-85L85.5,0.5L85.5,0.5z"/>
</g>
<path class="st2" d="M100.5,68.1h17.7V48.9h-17.7V68.1z"/>
<g>
	<path class="st3" d="M102,57.7h6.5v-7.3H102V57.7z"/>
	<path class="st3" d="M110.1,57.7h6.5v-7.3h-6.5V57.7z"/>
	<path class="st3" d="M102,66.6h6.5v-7.3H102V66.6z"/>
	<path class="st3" d="M110.1,66.6h6.5v-7.3h-6.5V66.6z"/>
</g>
<g>
	<path class="st4" d="M103.6,50.4H102v7.3h1.5c1.3,0,2.3-5.6,2.3-7.3H103.6z"/>
	<path class="st4" d="M102,66.6v-7.3h1.2c0.9,0.5,1.5,3.6,1.5,7.3H102z"/>
	<path class="st4" d="M115.1,50.4h1.5v7.3h-1.5c-1.3,0-2.3-5.6-2.3-7.3H115.1z"/>
	<path class="st4" d="M116.6,66.6v-7.3h-1.2c-0.9,0.5-1.5,3.6-1.5,7.3H116.6z"/>
</g>
<g>
	<path class="st5" d="M118.9,68.1H99.7v0.8c0,0.4,0.3,0.8,0.8,0.8h17.7c0.4,0,0.8-0.3,0.8-0.8L118.9,68.1L118.9,68.1z"/>
	<path class="st5" d="M118.1,47.4h-17.7c-0.4,0-0.8,0.3-0.8,0.8s0.3,0.8,0.8,0.8h17.7c0.4,0,0.8-0.3,0.8-0.8S118.6,47.4,118.1,47.4"
		/>
	<path class="st5" d="M99.7,68.9H99c-0.2,0-0.4-0.2-0.4-0.4c0-0.2,0.2-0.4,0.4-0.4h0.8c0.2,0,0.4,0.2,0.4,0.4
		C100.1,68.7,99.9,68.9,99.7,68.9"/>
	<path class="st5" d="M119.7,68.9h-0.8c-0.2,0-0.4-0.2-0.4-0.4c0-0.2,0.2-0.4,0.4-0.4h0.8c0.2,0,0.4,0.2,0.4,0.4
		C120.1,68.7,119.9,68.9,119.7,68.9"/>
</g>
<path class="st2" d="M58.3,87.2H90v-46H58.3V87.2z"/>
<path class="st3" d="M61.5,87.2h25.4V44.4H61.5V87.2z"/>
<path class="st0" d="M80.5,67.4h3.2v-3.2h-3.2V67.4z"/>
<path class="st2" d="M80.5,66.6h-2.4c-0.5,0-0.8-0.3-0.8-0.8c0-0.5,0.3-0.8,0.8-0.8h2.4c0.5,0,0.8,0.3,0.8,0.8
	C81.3,66.3,81,66.6,80.5,66.6"/>
<path class="st5" d="M95.5,88H52.8c-0.5,0-0.8-0.3-0.8-0.8c0-0.5,0.3-0.8,0.8-0.8h42.8c0.5,0,0.8,0.3,0.8,0.8
	C96.3,87.7,96,88,95.5,88"/>
<g>
	<g>
		<path class="st3" d="M66.9,107.7H71v14.4h-2.7v-11.8h-3L66.9,107.7z"/>
		<path class="st3" d="M78.3,112.3h-2.7c0.1-1.6,0.6-2.8,1.5-3.7c0.9-0.9,2.1-1.3,3.5-1.3c0.9,0,1.6,0.2,2.3,0.6s1.2,0.9,1.6,1.6
			c0.4,0.7,0.6,1.4,0.6,2.1c0,0.9-0.2,1.8-0.7,2.8c-0.5,1-1.4,2.1-2.7,3.5l-1.6,1.7h5.1v2.5h-10v-1.3l4.5-4.5c1.1-1.1,1.8-2,2.1-2.6
			c0.4-0.7,0.5-1.3,0.5-1.8c0-0.6-0.2-1-0.6-1.4s-0.8-0.5-1.4-0.5c-0.6,0-1.1,0.2-1.5,0.7S78.3,111.6,78.3,112.3z"/>
		<path class="st3" d="M91.8,107.3l2.3,1.2l-2.5,4.9c1.2,0,2.3,0.4,3.1,1.3c0.9,0.9,1.3,2,1.3,3.3c0,1.3-0.4,2.3-1.3,3.2
			c-0.9,0.9-1.9,1.3-3.2,1.3c-1.3,0-2.4-0.5-3.2-1.4S87,119.1,87,118c0-0.4,0.1-0.9,0.2-1.3c0.1-0.4,0.4-1.1,0.9-2.1L91.8,107.3z
			 M91.5,116c-0.5,0-0.9,0.2-1.3,0.6c-0.3,0.4-0.5,0.8-0.5,1.4s0.2,1,0.5,1.4c0.4,0.4,0.8,0.6,1.3,0.6c0.5,0,0.9-0.2,1.3-0.6
			c0.4-0.4,0.5-0.8,0.5-1.4c0-0.6-0.2-1-0.5-1.4C92.4,116.1,92,116,91.5,116z"/>
		<path class="st3" d="M102.8,107.3c1.1,0,2,0.3,2.7,0.8c0.8,0.5,1.3,1.3,1.8,2.4c0.4,1.1,0.6,2.5,0.6,4.4c0,1.9-0.2,3.4-0.6,4.5
			c-0.4,1.1-1,1.8-1.7,2.3s-1.6,0.7-2.7,0.7c-1.1,0-2-0.3-2.7-0.8s-1.3-1.3-1.7-2.3c-0.4-1-0.6-2.5-0.6-4.4c0-2.6,0.4-4.6,1.2-5.7
			C99.9,108,101.2,107.3,102.8,107.3z M102.9,109.9c-0.5,0-0.9,0.1-1.2,0.4s-0.6,0.8-0.8,1.5c-0.2,0.7-0.3,1.8-0.3,3.2
			c0,1.8,0.2,3.1,0.6,3.8c0.4,0.7,1,1,1.7,1c0.7,0,1.2-0.3,1.6-1c0.5-0.8,0.7-2.1,0.7-4c0-1.9-0.2-3.2-0.6-3.9
			C104.1,110.3,103.5,109.9,102.9,109.9z"/>
		<path class="st3" d="M77.6,143.6v-11.9h2.8v11.9h3.9v-11.9H87v14.4H71v-14.4h2.8v11.9H77.6z"/>
		<path class="st3" d="M88.9,131.7h8v2.7h-2.6v11.7h-2.8v-11.7h-2.6V131.7z"/>
		<path class="st3" d="M99.9,143.3c0.4,0,0.8,0.1,1.1,0.4c0.3,0.3,0.4,0.7,0.4,1.1s-0.1,0.8-0.4,1.1c-0.3,0.3-0.7,0.4-1.1,0.4
			s-0.8-0.1-1.1-0.4s-0.4-0.7-0.4-1.1s0.1-0.8,0.4-1.1C99.1,143.5,99.5,143.3,99.9,143.3z"/>
	</g>
</g>
</svg>
