<?xml version="1.0" encoding="utf-8"?>
<!-- Generator: Adobe Illustrator 17.1.0, SVG Export Plug-In . SVG Version: 6.00 Build 0)  -->
<!DOCTYPE svg PUBLIC "-//W3C//DTD SVG 1.1//EN" "http://www.w3.org/Graphics/SVG/1.1/DTD/svg11.dtd">
<svg version="1.1" id="Layer_1" xmlns="http://www.w3.org/2000/svg" xmlns:xlink="http://www.w3.org/1999/xlink" x="0px" y="0px"
	 viewBox="0 0 76 76" enable-background="new 0 0 76 76" xml:space="preserve">
<rect x="12.4" y="12.2" transform="matrix(0.7071 0.7071 -0.7071 0.7071 38.0682 -15.9048)" fill="#0068FF" stroke="#001840" stroke-width="2" stroke-miterlimit="10" width="51.6" height="51.6"/>
<g display="none">
	<text transform="matrix(1 0 0 1 -482.4375 -193)" display="inline"><tspan x="0" y="0" fill="#0060FF" font-family="'SportsWorld'" font-size="12">это кардинальный способ внесения изменений в привычный облик вашей квартиры,  </tspan><tspan x="0" y="14.4" fill="#0060FF" font-family="'SportsWorld'" font-size="12">офиса или дома. Он включает в себя как отделочные, так и инженерные работы по замене сантехники,  </tspan><tspan x="0" y="28.8" fill="#0060FF" font-family="'SportsWorld'" font-size="12">электрики, окон, дверей, систем вентиляции и отопления, а также, при необходимости, полную перепланировку.</tspan></text>
</g>
<g display="none">
	<text transform="matrix(1 0 0 1 -482.4375 -81)" display="inline"><tspan x="0" y="0" fill="#0060FF" font-family="'SportsWorld'" font-size="12">отличный вариант для тех, кто по-настоящему ценит европейское качество.  </tspan><tspan x="0" y="14.4" fill="#0060FF" font-family="'SportsWorld'" font-size="12">В работе используются только качественные материалы и новые технологии.  </tspan><tspan x="0" y="28.8" fill="#0060FF" font-family="'SportsWorld'" font-size="12">После ремонта квартира будет соответствовать всем европейским стандартам.</tspan></text>
</g>
<g display="none">
	<text transform="matrix(1 0 0 1 -482.4375 32)" display="inline"><tspan x="0" y="0" fill="#0060FF" font-family="'SportsWorld'" font-size="12">вид ремонта по эксклюзивному проекту с использованием дорогих  </tspan><tspan x="0" y="14.4" fill="#0060FF" font-family="'SportsWorld'" font-size="12">отделочных материалов премиум-класса и новейших технологий,  </tspan><tspan x="0" y="28.8" fill="#0060FF" font-family="'SportsWorld'" font-size="12">профессионального инструмента и современного оборудования.</tspan></text>
</g>
<g display="none">
	<text transform="matrix(1 0 0 1 -482.4375 147)" display="inline"><tspan x="0" y="0" fill="#0060FF" font-family="'SportsWorld'" font-size="12">это комплекс работ, имеющий множество специфических нюансов. Основным моментом, который нужно учитывать при  </tspan><tspan x="0" y="14.4" fill="#0060FF" font-family="'SportsWorld'" font-size="12">осуществлении ремонта в новостройке -  это усадка здания и ее возможные последствия. Первые два года новые дома дают усадку,  </tspan><tspan x="0" y="28.8" fill="#0060FF" font-family="'SportsWorld'" font-size="12">которая негативно отражается на недавно выполненном ремонте, если он сделан неправильно. Так же для  </tspan><tspan x="0" y="43.2" fill="#0060FF" font-family="'SportsWorld'" font-size="12">новостроек характерно отсутствие всех коммуникаций. Данный вид ремонта требует опыта проведения всех необходимых действий,  </tspan><tspan x="0" y="57.6" fill="#0060FF" font-family="'SportsWorld'" font-size="12">поэтому это дело стоит доверить профессионалам.</tspan></text>
</g>
<g display="none">
	<text transform="matrix(1 0 0 1 -482.4375 259)" display="inline"><tspan x="0" y="0" fill="#0060FF" font-family="'SportsWorld'" font-size="12">офис является визитной карточкой компании, показателем ее статуса, успешности и стабильности.  </tspan><tspan x="0" y="14.4" fill="#0060FF" font-family="'SportsWorld'" font-size="12">Наша компания выполнит ремонт Вашего офиса таким образом, чтобы обеспечить не только комфорт для работы сотрудников,  </tspan><tspan x="0" y="28.8" fill="#0060FF" font-family="'SportsWorld'" font-size="12">но и уникальный интерьер, который выделит вас из многих аналогичных компаний. Эффектный интерьер в данном случае –  </tspan><tspan x="0" y="43.2" fill="#0060FF" font-family="'SportsWorld'" font-size="12">это хороший инструмент маркетинга, которая позволит создать максимально благоприятное впечатление на клиентов.</tspan></text>
</g>
<text transform="matrix(1 0 0 1 -482.4375 372)" display="none"><tspan x="0" y="0" display="inline" fill="#0060FF" font-family="'SportsWorld'" font-size="12">наши специалисты имеют многолетний опыт и хорошо знакомы со спецификой ремонта коттеджей.  </tspan><tspan x="0" y="14.4" display="inline" fill="#0060FF" font-family="'SportsWorld'" font-size="12">Мы соблюдаем все нормы усадки и усыхания деревянных домов. К внутренним работам наши специалисты приступают  </tspan><tspan x="0" y="28.8" display="inline" fill="#0060FF" font-family="'SportsWorld'" font-size="12">исключительно после проведения основных инженерных коммуникаций: вентиляции, систем отопления, канализации и прочего.  </tspan><tspan x="0" y="43.2" display="inline" fill="#0060FF" font-family="'SportsWorld'" font-size="12">Профессиональная отделка коттеджей проводится в строгом соответствии с согласованным проектом и с соблюдением  </tspan><tspan x="0" y="57.6" display="inline" fill="#0060FF" font-family="'SportsWorld'" font-size="12">установленных временных рамок. Это позволяет четко распланировать закупки материалов и тщательно контролировать  </tspan><tspan x="0" y="72" display="inline" fill="#0060FF" font-family="'SportsWorld'" font-size="12">качество и соблюдение всех строительных норм ремонта.</tspan></text>
<g>
	<path fill="#FFFFFF" d="M46.9,36.7H29.6c-0.3,0-0.5,0.2-0.5,0.5c0,3.1,2.6,5.7,5.7,5.7h0.4V51c0,1.7,1.3,3,3,3c1.7,0,3-1.3,3-3
		v-8.2h0.4c3.1,0,5.7-2.6,5.7-5.7C47.4,36.9,47.2,36.7,46.9,36.7z"/>
	<path fill="#FFFFFF" d="M46.9,36.7h-1.4c0,3.1-2.6,5.6-5.7,5.6h-0.4v8.2c0,1.6-1.3,2.9-2.8,3c0.5,0.4,1.1,0.6,1.7,0.6
		c1.7,0,3-1.3,3-3v-8.2h0.4c3.1,0,5.7-2.6,5.7-5.7C47.4,36.9,47.2,36.7,46.9,36.7z"/>
	<path fill="#FFFFFF" d="M46.9,22.3H29.6c-0.3,0-0.5,0.2-0.5,0.5V34c0,0.3,0.2,0.5,0.5,0.5h17.3c0.3,0,0.5-0.2,0.5-0.5V22.8
		C47.4,22.5,47.2,22.3,46.9,22.3z"/>
	<path fill="#FFFFFF" d="M46.9,22.3h-1.5v12.1h1.5c0.3,0,0.5-0.2,0.5-0.5V22.8C47.4,22.5,47.2,22.3,46.9,22.3z"/>
	<g>
		<path fill="#FFFFFF" d="M35.8,27.1c-0.5,0-0.9,0.5-0.9,0.9v2.2c0,0.9-0.6,1.6-1.3,1.8c0.2,0.1,0.4,0.1,0.6,0.1c1.1,0,2-0.8,2-1.9
			V28c0-0.3,0.1-0.5,0.3-0.7C36.3,27.2,36.1,27.1,35.8,27.1z"/>
	</g>
	<g>
		<path fill="#FFFFFF" d="M25.4,31.8l-1.1-0.5c-0.4-0.2-0.7-0.5-0.8-0.8l-0.5-1.1c-0.1-0.2-0.2-0.3-0.4-0.3s-0.3,0.1-0.4,0.3
			l-0.5,1.1c-0.2,0.4-0.5,0.7-0.8,0.8l-1.1,0.5c-0.2,0.1-0.3,0.2-0.3,0.4c0,0.2,0.1,0.3,0.3,0.4l1.1,0.5c0.4,0.2,0.7,0.5,0.8,0.8
			l0.5,1.1c0.1,0.2,0.2,0.3,0.4,0.3c0.2,0,0.3-0.1,0.4-0.3l0.5-1.1c0.2-0.4,0.5-0.7,0.8-0.8l1.1-0.5c0.2-0.1,0.3-0.2,0.3-0.4
			C25.6,32,25.5,31.8,25.4,31.8z"/>
		<path fill="#FFFFFF" d="M56.4,28.3l-1.1-0.5c-0.4-0.2-0.7-0.5-0.8-0.8L54,25.8c-0.1-0.2-0.2-0.3-0.4-0.3c-0.2,0-0.3,0.1-0.4,0.3
			L52.6,27c-0.2,0.4-0.5,0.7-0.8,0.8l-1.1,0.5c-0.2,0.1-0.3,0.2-0.3,0.4c0,0.2,0.1,0.3,0.3,0.4l1.1,0.5c0.4,0.2,0.7,0.5,0.8,0.8
			l0.5,1.1c0.1,0.2,0.2,0.3,0.4,0.3c0.2,0,0.3-0.1,0.4-0.3l0.5-1.1c0.2-0.4,0.5-0.7,0.8-0.8l1.1-0.5c0.2-0.1,0.3-0.2,0.3-0.4
			S56.6,28.4,56.4,28.3z"/>
		<path fill="#FFFFFF" d="M52.9,45.5L51.8,45c-0.4-0.2-0.7-0.5-0.8-0.8l-0.5-1.1c-0.1-0.2-0.2-0.3-0.4-0.3c-0.2,0-0.3,0.1-0.4,0.3
			l-0.5,1.1c-0.2,0.4-0.5,0.7-0.8,0.8l-1.1,0.5c-0.2,0.1-0.3,0.2-0.3,0.4c0,0.2,0.1,0.3,0.3,0.4l1.1,0.5c0.4,0.2,0.7,0.5,0.8,0.8
			l0.5,1.1c0.1,0.2,0.2,0.3,0.4,0.3c0.2,0,0.3-0.1,0.4-0.3l0.5-1.1c0.2-0.4,0.5-0.7,0.8-0.8l1.1-0.5c0.2-0.1,0.3-0.2,0.3-0.4
			C53.2,45.8,53.1,45.6,52.9,45.5z"/>
	</g>
	<path fill="#FFFFFF" d="M27.5,45.3c-0.1-0.1-0.2-0.2-0.4-0.2c-0.1,0-0.3,0.1-0.4,0.2c-0.3,0.3-2.6,3.1-2.6,4.6c0,1.7,1.3,3,3,3
		s3-1.3,3-3C30.1,48.4,27.7,45.6,27.5,45.3z"/>
	<path fill="#FFFFFF" d="M47.7,33.5H28.8c-0.3,0-0.5,0.2-0.5,0.5v3.2c0,0.3,0.2,0.5,0.5,0.5h18.9c0.3,0,0.5-0.2,0.5-0.5V34
		C48.2,33.7,48,33.5,47.7,33.5z"/>
	<path fill="#FFFFFF" d="M47.7,33.5h-1.5v4.1h1.5c0.3,0,0.5-0.2,0.5-0.5V34C48.2,33.7,48,33.5,47.7,33.5z"/>
</g>
</svg>
