<?xml version="1.0" encoding="utf-8"?>
<!-- Generator: Adobe Illustrator 17.1.0, SVG Export Plug-In . SVG Version: 6.00 Build 0)  -->
<!DOCTYPE svg PUBLIC "-//W3C//DTD SVG 1.1//EN" "http://www.w3.org/Graphics/SVG/1.1/DTD/svg11.dtd">
<svg version="1.1" id="Layer_1" xmlns="http://www.w3.org/2000/svg" xmlns:xlink="http://www.w3.org/1999/xlink" x="0px" y="0px"
	 viewBox="0 0 76 76" enable-background="new 0 0 76 76" xml:space="preserve">
<rect x="12.3" y="104.4" transform="matrix(0.7071 0.7071 -0.7071 0.7071 103.257 11.1867)" fill="#94CAFF" stroke="#001840" stroke-width="2" stroke-miterlimit="10" width="51.6" height="51.6"/>
<g display="none">
	<text transform="matrix(1 0 0 1 -482.4375 -193)" display="inline"><tspan x="0" y="0" fill="#0060FF" font-family="'SportsWorld'" font-size="12">это кардинальный способ внесения изменений в привычный облик вашей квартиры,  </tspan><tspan x="0" y="14.4" fill="#0060FF" font-family="'SportsWorld'" font-size="12">офиса или дома. Он включает в себя как отделочные, так и инженерные работы по замене сантехники,  </tspan><tspan x="0" y="28.8" fill="#0060FF" font-family="'SportsWorld'" font-size="12">электрики, окон, дверей, систем вентиляции и отопления, а также, при необходимости, полную перепланировку.</tspan></text>
</g>
<g display="none">
	<text transform="matrix(1 0 0 1 -482.4375 -81)" display="inline"><tspan x="0" y="0" fill="#0060FF" font-family="'SportsWorld'" font-size="12">отличный вариант для тех, кто по-настоящему ценит европейское качество.  </tspan><tspan x="0" y="14.4" fill="#0060FF" font-family="'SportsWorld'" font-size="12">В работе используются только качественные материалы и новые технологии.  </tspan><tspan x="0" y="28.8" fill="#0060FF" font-family="'SportsWorld'" font-size="12">После ремонта квартира будет соответствовать всем европейским стандартам.</tspan></text>
</g>
<g display="none">
	<text transform="matrix(1 0 0 1 -482.4375 32)" display="inline"><tspan x="0" y="0" fill="#0060FF" font-family="'SportsWorld'" font-size="12">вид ремонта по эксклюзивному проекту с использованием дорогих  </tspan><tspan x="0" y="14.4" fill="#0060FF" font-family="'SportsWorld'" font-size="12">отделочных материалов премиум-класса и новейших технологий,  </tspan><tspan x="0" y="28.8" fill="#0060FF" font-family="'SportsWorld'" font-size="12">профессионального инструмента и современного оборудования.</tspan></text>
</g>
<g display="none">
	<text transform="matrix(1 0 0 1 -482.4375 147)" display="inline"><tspan x="0" y="0" fill="#0060FF" font-family="'SportsWorld'" font-size="12">это комплекс работ, имеющий множество специфических нюансов. Основным моментом, который нужно учитывать при  </tspan><tspan x="0" y="14.4" fill="#0060FF" font-family="'SportsWorld'" font-size="12">осуществлении ремонта в новостройке -  это усадка здания и ее возможные последствия. Первые два года новые дома дают усадку,  </tspan><tspan x="0" y="28.8" fill="#0060FF" font-family="'SportsWorld'" font-size="12">которая негативно отражается на недавно выполненном ремонте, если он сделан неправильно. Так же для  </tspan><tspan x="0" y="43.2" fill="#0060FF" font-family="'SportsWorld'" font-size="12">новостроек характерно отсутствие всех коммуникаций. Данный вид ремонта требует опыта проведения всех необходимых действий,  </tspan><tspan x="0" y="57.6" fill="#0060FF" font-family="'SportsWorld'" font-size="12">поэтому это дело стоит доверить профессионалам.</tspan></text>
</g>
<g display="none">
	<text transform="matrix(1 0 0 1 -482.4375 259)" display="inline"><tspan x="0" y="0" fill="#0060FF" font-family="'SportsWorld'" font-size="12">офис является визитной карточкой компании, показателем ее статуса, успешности и стабильности.  </tspan><tspan x="0" y="14.4" fill="#0060FF" font-family="'SportsWorld'" font-size="12">Наша компания выполнит ремонт Вашего офиса таким образом, чтобы обеспечить не только комфорт для работы сотрудников,  </tspan><tspan x="0" y="28.8" fill="#0060FF" font-family="'SportsWorld'" font-size="12">но и уникальный интерьер, который выделит вас из многих аналогичных компаний. Эффектный интерьер в данном случае –  </tspan><tspan x="0" y="43.2" fill="#0060FF" font-family="'SportsWorld'" font-size="12">это хороший инструмент маркетинга, которая позволит создать максимально благоприятное впечатление на клиентов.</tspan></text>
</g>
<text transform="matrix(1 0 0 1 -482.4375 372)" display="none"><tspan x="0" y="0" display="inline" fill="#0060FF" font-family="'SportsWorld'" font-size="12">наши специалисты имеют многолетний опыт и хорошо знакомы со спецификой ремонта коттеджей.  </tspan><tspan x="0" y="14.4" display="inline" fill="#0060FF" font-family="'SportsWorld'" font-size="12">Мы соблюдаем все нормы усадки и усыхания деревянных домов. К внутренним работам наши специалисты приступают  </tspan><tspan x="0" y="28.8" display="inline" fill="#0060FF" font-family="'SportsWorld'" font-size="12">исключительно после проведения основных инженерных коммуникаций: вентиляции, систем отопления, канализации и прочего.  </tspan><tspan x="0" y="43.2" display="inline" fill="#0060FF" font-family="'SportsWorld'" font-size="12">Профессиональная отделка коттеджей проводится в строгом соответствии с согласованным проектом и с соблюдением  </tspan><tspan x="0" y="57.6" display="inline" fill="#0060FF" font-family="'SportsWorld'" font-size="12">установленных временных рамок. Это позволяет четко распланировать закупки материалов и тщательно контролировать  </tspan><tspan x="0" y="72" display="inline" fill="#0060FF" font-family="'SportsWorld'" font-size="12">качество и соблюдение всех строительных норм ремонта.</tspan></text>
<g>
	<path fill="#FFFFFF" stroke="#9FCBFF" stroke-width="0.1" stroke-miterlimit="10" d="M52.9,142h-0.7v-15.6l0.4,0.2
		c0.1,0,0.2,0.1,0.3,0.1c0.1,0,0.2,0,0.3-0.1c0.2-0.1,0.3-0.3,0.3-0.5v-2.5c0-0.2-0.1-0.5-0.4-0.6l-2.1-1v-4c0-0.3-0.3-0.6-0.6-0.6
		h-3.7c-0.3,0-0.6,0.3-0.6,0.6v1.7l-11.5-5.4c-0.2-0.1-0.4-0.1-0.6,0L23,120.6c-0.2,0.1-0.3,0.3-0.3,0.5v2.5c0,0.2,0.1,0.4,0.3,0.5
		c0.2,0.1,0.4,0.1,0.6,0l0.3-0.2v18h-0.6c-0.3,0-0.6,0.3-0.6,0.6s0.3,0.6,0.6,0.6h1.2h27h1.3c0.3,0,0.6-0.3,0.6-0.6
		S53.3,142,52.9,142z M47.3,120.3v-1.7h2.4v2.8L47.3,120.3C47.3,120.3,47.3,120.3,47.3,120.3z M23.9,121.5l10.5-5.9l17.8,8.3v1.1
		l-17.6-8.2c-0.1,0-0.2-0.1-0.3-0.1c-0.1,0-0.2,0-0.3,0.1l-10.1,5.7V121.5z M25.2,142v-18.7c0,0,0,0,0,0l9.2-5.2l16.6,7.7V142H25.2z
		"/>
	<path fill="#FFFFFF" stroke="#9FCBFF" stroke-width="0.1" stroke-miterlimit="10" d="M36.8,131.5H27c-0.3,0-0.6,0.3-0.6,0.6v8
		c0,0.3,0.3,0.6,0.6,0.6h9.8c0.3,0,0.6-0.3,0.6-0.6v-8C37.5,131.8,37.2,131.5,36.8,131.5z M27.6,132.8h3.7v6.8h-3.7V132.8z
		 M36.2,139.5h-3.7v-6.8h3.7V139.5z"/>
	<path fill="#FFFFFF" stroke="#9FCBFF" stroke-width="0.1" stroke-miterlimit="10" d="M49.2,131.5h-9.8c-0.3,0-0.6,0.3-0.6,0.6v8
		c0,0.3,0.3,0.6,0.6,0.6h9.8c0.3,0,0.6-0.3,0.6-0.6v-8C49.8,131.8,49.5,131.5,49.2,131.5z M39.9,132.8h3.7v6.8h-3.7V132.8z
		 M48.5,139.5h-3.7v-6.8h3.7V139.5z"/>
	<path fill="#FFFFFF" stroke="#9FCBFF" stroke-width="0.1" stroke-miterlimit="10" d="M49.4,126.6l-9.8-4.6c-0.1,0-0.2-0.1-0.3-0.1
		c-0.3,0-0.6,0.3-0.6,0.6v7.1c0,0.3,0.3,0.6,0.6,0.6h9.8c0.3,0,0.6-0.3,0.6-0.6v-2.5C49.8,126.9,49.6,126.7,49.4,126.6z M39.9,123.5
		l3.7,1.7v3.8h-3.7V123.5z M48.5,129.1h-3.7v-3.3l3.7,1.7V129.1z"/>
	<path fill="#FFFFFF" stroke="#9FCBFF" stroke-width="0.1" stroke-miterlimit="10" d="M37.5,121.4C37.5,121.4,37.5,121.3,37.5,121.4
		C37.5,121.3,37.5,121.3,37.5,121.4C37.4,121.3,37.4,121.3,37.5,121.4c0-0.1,0-0.1,0-0.1c0,0,0,0,0,0c0,0,0,0,0,0c0,0,0,0,0,0
		c0,0,0,0,0,0c0,0,0,0,0,0c0,0,0,0,0,0c0,0,0,0,0,0c0,0,0,0,0,0c0,0,0,0,0,0c0,0,0,0,0,0c0,0,0,0,0,0c0,0,0,0,0,0c0,0,0,0,0,0
		c0,0,0,0,0,0c0,0,0,0,0,0c0,0,0,0,0,0c0,0,0,0,0,0c0,0,0,0,0,0l-2.1-1c-0.2-0.1-0.5-0.1-0.6,0.1c0,0,0,0,0,0l-7.6,4.3
		c-0.2,0.1-0.3,0.3-0.3,0.6c0,0,0,0,0,0v4.9c0,0.3,0.3,0.6,0.6,0.6h9.8c0.3,0,0.6-0.3,0.6-0.6L37.5,121.4
		C37.5,121.4,37.5,121.4,37.5,121.4C37.5,121.4,37.5,121.4,37.5,121.4z M27.6,125.1l3.7-2.1v6h-3.7V125.1z M32.6,129.1v-6.7l2.2-1.2
		l1.5,0.7v7.3L32.6,129.1L32.6,129.1z"/>
</g>
</svg>
