<?xml version="1.0" encoding="utf-8"?>
<!-- Generator: Adobe Illustrator 17.1.0, SVG Export Plug-In . SVG Version: 6.00 Build 0)  -->
<!DOCTYPE svg PUBLIC "-//W3C//DTD SVG 1.1//EN" "http://www.w3.org/Graphics/SVG/1.1/DTD/svg11.dtd">
<svg version="1.1" id="Layer_1" xmlns="http://www.w3.org/2000/svg" xmlns:xlink="http://www.w3.org/1999/xlink" x="0px" y="0px"
	 viewBox="0 0 76 76" enable-background="new 0 0 76 76" xml:space="preserve">
<rect x="12.3" y="12.4" transform="matrix(0.7071 0.7071 -0.7071 0.7071 38.1689 -15.7737)" fill="#83BBFF" stroke="#001840" stroke-width="2" stroke-miterlimit="10" width="51.6" height="51.6"/>
<g display="none">
	<text transform="matrix(1 0 0 1 -482.4375 -193)" display="inline"><tspan x="0" y="0" fill="#0060FF" font-family="'SportsWorld'" font-size="12">это кардинальный способ внесения изменений в привычный облик вашей квартиры,  </tspan><tspan x="0" y="14.4" fill="#0060FF" font-family="'SportsWorld'" font-size="12">офиса или дома. Он включает в себя как отделочные, так и инженерные работы по замене сантехники,  </tspan><tspan x="0" y="28.8" fill="#0060FF" font-family="'SportsWorld'" font-size="12">электрики, окон, дверей, систем вентиляции и отопления, а также, при необходимости, полную перепланировку.</tspan></text>
</g>
<g display="none">
	<text transform="matrix(1 0 0 1 -482.4375 -81)" display="inline"><tspan x="0" y="0" fill="#0060FF" font-family="'SportsWorld'" font-size="12">отличный вариант для тех, кто по-настоящему ценит европейское качество.  </tspan><tspan x="0" y="14.4" fill="#0060FF" font-family="'SportsWorld'" font-size="12">В работе используются только качественные материалы и новые технологии.  </tspan><tspan x="0" y="28.8" fill="#0060FF" font-family="'SportsWorld'" font-size="12">После ремонта квартира будет соответствовать всем европейским стандартам.</tspan></text>
</g>
<g display="none">
	<text transform="matrix(1 0 0 1 -482.4375 32)" display="inline"><tspan x="0" y="0" fill="#0060FF" font-family="'SportsWorld'" font-size="12">вид ремонта по эксклюзивному проекту с использованием дорогих  </tspan><tspan x="0" y="14.4" fill="#0060FF" font-family="'SportsWorld'" font-size="12">отделочных материалов премиум-класса и новейших технологий,  </tspan><tspan x="0" y="28.8" fill="#0060FF" font-family="'SportsWorld'" font-size="12">профессионального инструмента и современного оборудования.</tspan></text>
</g>
<g display="none">
	<text transform="matrix(1 0 0 1 -482.4375 147)" display="inline"><tspan x="0" y="0" fill="#0060FF" font-family="'SportsWorld'" font-size="12">это комплекс работ, имеющий множество специфических нюансов. Основным моментом, который нужно учитывать при  </tspan><tspan x="0" y="14.4" fill="#0060FF" font-family="'SportsWorld'" font-size="12">осуществлении ремонта в новостройке -  это усадка здания и ее возможные последствия. Первые два года новые дома дают усадку,  </tspan><tspan x="0" y="28.8" fill="#0060FF" font-family="'SportsWorld'" font-size="12">которая негативно отражается на недавно выполненном ремонте, если он сделан неправильно. Так же для  </tspan><tspan x="0" y="43.2" fill="#0060FF" font-family="'SportsWorld'" font-size="12">новостроек характерно отсутствие всех коммуникаций. Данный вид ремонта требует опыта проведения всех необходимых действий,  </tspan><tspan x="0" y="57.6" fill="#0060FF" font-family="'SportsWorld'" font-size="12">поэтому это дело стоит доверить профессионалам.</tspan></text>
</g>
<g display="none">
	<text transform="matrix(1 0 0 1 -482.4375 259)" display="inline"><tspan x="0" y="0" fill="#0060FF" font-family="'SportsWorld'" font-size="12">офис является визитной карточкой компании, показателем ее статуса, успешности и стабильности.  </tspan><tspan x="0" y="14.4" fill="#0060FF" font-family="'SportsWorld'" font-size="12">Наша компания выполнит ремонт Вашего офиса таким образом, чтобы обеспечить не только комфорт для работы сотрудников,  </tspan><tspan x="0" y="28.8" fill="#0060FF" font-family="'SportsWorld'" font-size="12">но и уникальный интерьер, который выделит вас из многих аналогичных компаний. Эффектный интерьер в данном случае –  </tspan><tspan x="0" y="43.2" fill="#0060FF" font-family="'SportsWorld'" font-size="12">это хороший инструмент маркетинга, которая позволит создать максимально благоприятное впечатление на клиентов.</tspan></text>
</g>
<text transform="matrix(1 0 0 1 -482.4375 372)" display="none"><tspan x="0" y="0" display="inline" fill="#0060FF" font-family="'SportsWorld'" font-size="12">наши специалисты имеют многолетний опыт и хорошо знакомы со спецификой ремонта коттеджей.  </tspan><tspan x="0" y="14.4" display="inline" fill="#0060FF" font-family="'SportsWorld'" font-size="12">Мы соблюдаем все нормы усадки и усыхания деревянных домов. К внутренним работам наши специалисты приступают  </tspan><tspan x="0" y="28.8" display="inline" fill="#0060FF" font-family="'SportsWorld'" font-size="12">исключительно после проведения основных инженерных коммуникаций: вентиляции, систем отопления, канализации и прочего.  </tspan><tspan x="0" y="43.2" display="inline" fill="#0060FF" font-family="'SportsWorld'" font-size="12">Профессиональная отделка коттеджей проводится в строгом соответствии с согласованным проектом и с соблюдением  </tspan><tspan x="0" y="57.6" display="inline" fill="#0060FF" font-family="'SportsWorld'" font-size="12">установленных временных рамок. Это позволяет четко распланировать закупки материалов и тщательно контролировать  </tspan><tspan x="0" y="72" display="inline" fill="#0060FF" font-family="'SportsWorld'" font-size="12">качество и соблюдение всех строительных норм ремонта.</tspan></text>
<g>
	<path fill="#FFFFFF" d="M43.6,23.6h-1h-8.1h-1h-9.1V52h9.1h1h8.1h1h9.1V23.6H43.6z M33.5,51h-8.1V24.6h8.1V51z M42.6,51h-8.1V24.6
		h8.1V51z M51.7,51h-8.1V24.6h8.1V51z"/>
	<path fill="#FFFFFF" d="M32.4,25.6h-6.1v11.2h6.1V25.6z M31.4,35.7h-4.1v-9.1h4.1V35.7z"/>
	<path fill="#FFFFFF" d="M41.6,25.6h-6.1v11.2h6.1V25.6z M40.6,35.7h-4.1v-9.1h4.1V35.7z"/>
	<path fill="#FFFFFF" d="M50.7,25.6h-6.1v11.2h6.1V25.6z M49.7,35.7h-4.1v-9.1h4.1V35.7z"/>
	<path fill="#FFFFFF" d="M29.4,49.4c1.7,0,3-1.4,3-3c0-1.7-1.4-3-3-3c-1.7,0-3,1.4-3,3C26.4,48.1,27.7,49.4,29.4,49.4z M29.4,44.4
		c1.1,0,2,0.9,2,2s-0.9,2-2,2c-1.1,0-2-0.9-2-2S28.3,44.4,29.4,44.4z"/>
	<path fill="#FFFFFF" d="M38.5,49.4c1.7,0,3-1.4,3-3c0-1.7-1.4-3-3-3c-1.7,0-3,1.4-3,3C35.5,48.1,36.9,49.4,38.5,49.4z M38.5,44.4
		c1.1,0,2,0.9,2,2s-0.9,2-2,2c-1.1,0-2-0.9-2-2S37.4,44.4,38.5,44.4z"/>
	<path fill="#FFFFFF" d="M47.7,49.4c1.7,0,3-1.4,3-3c0-1.7-1.4-3-3-3c-1.7,0-3,1.4-3,3C44.6,48.1,46,49.4,47.7,49.4z M47.7,44.4
		c1.1,0,2,0.9,2,2s-0.9,2-2,2s-2-0.9-2-2S46.5,44.4,47.7,44.4z"/>
</g>
</svg>
