<?xml version="1.0" encoding="utf-8"?>
<!-- Generator: Adobe Illustrator 17.1.0, SVG Export Plug-In . SVG Version: 6.00 Build 0)  -->
<!DOCTYPE svg PUBLIC "-//W3C//DTD SVG 1.1//EN" "http://www.w3.org/Graphics/SVG/1.1/DTD/svg11.dtd">
<svg version="1.1" id="Layer_1" xmlns="http://www.w3.org/2000/svg" xmlns:xlink="http://www.w3.org/1999/xlink" x="0px" y="0px"
	 viewBox="662 -580 480 260" enable-background="new 662 -580 480 260" xml:space="preserve">
<polyline fill="none" stroke="#0055FF" stroke-width="11" stroke-miterlimit="10" points="1134.9,-460.9 1134.9,-496.5 
	902.2,-567.9 670.6,-496.7 670.6,-460.9 "/>
<polyline fill="none" stroke="#0055FF" stroke-width="11" stroke-miterlimit="10" points="670.6,-366.7 670.6,-331 902.2,-330.9 
	1134.9,-330.9 1134.9,-366.7 "/>
<g>
	<path fill="#0055FF" d="M664.9-438.7h12.3l10.9,46.7h0.2l9.9-46.7h15.9l10.3,46.7h0.2l11-46.7h11.4l-15.2,58.4h-15L706-427h-0.2
		l-10.4,46.7h-15.1L664.9-438.7z"/>
	<path fill="#0055FF" d="M754.4-438.7h34.4v9.2h-22.7v14.4H787v9.2h-20.8v16.4H789v9.2h-34.6V-438.7z"/>
	<path fill="#0055FF" d="M800.9-438.7h11.7v49.2h22.7v9.2h-34.4V-438.7z"/>
	<path fill="#0055FF" d="M842.7-438.7h11.7v49.2h22.7v9.2h-34.4V-438.7z"/>
	<path fill="#0055FF" d="M915.8-428c-3.7-1.6-7.8-2.5-11.9-2.5c-4,0-9.2,1.8-9.2,8.1c0,10.1,25.6,5.9,25.6,25.4
		c0,12.8-10.1,17.7-21.9,17.7c-6.4,0-9.2-0.8-15-2.3l1.1-10.5c4,2.2,8.6,3.6,13.2,3.6c4.4,0,10.4-2.3,10.4-7.5
		c0-11.1-25.6-6.5-25.6-25.8c0-13,10.1-17.8,20.4-17.8c5,0,9.7,0.7,14,2.1L915.8-428z"/>
	<path fill="#0055FF" d="M941.6-429.5h-16.7v-9.2H970v9.2h-16.7v49.2h-11.7V-429.5z"/>
	<path fill="#0055FF" d="M976.4-438.7h12.6c12.5,0,27.5-0.4,27.5,15.8c0,6.9-4.6,12.5-12,13.6v0.2c3.2,0.3,5,3.4,6.2,6l9.4,22.8h-13
		l-7-18.2c-1.7-4.3-3.2-6-8.1-6h-3.8v24.3h-11.7V-438.7z M988.1-413.8h3.8c5.8,0,12.4-0.8,12.4-8.1c0-7-6.5-7.6-12.4-7.6h-3.8
		V-413.8z"/>
	<path fill="#0055FF" d="M1054.3-439.7c18.3,0,28.6,12.4,28.6,30c0,17.6-10.1,30.4-28.6,30.4c-18.7,0-28.6-12.5-28.6-30.4
		C1025.7-427.6,1035.7-439.7,1054.3-439.7z M1054.3-388.6c12,0,16.4-10.6,16.4-21.2c0-10.3-4.8-20.8-16.4-20.8
		c-11.6,0-16.4,10.5-16.4,20.8C1037.9-399.2,1042.3-388.6,1054.3-388.6z"/>
	<path fill="#0055FF" d="M1109-403.4l-21.3-35.3h13.7l13.8,24.5l14-24.5h12.4l-20.9,35.3v23.1H1109V-403.4z"/>
</g>
</svg>
