<?xml version="1.0" encoding="utf-8"?>
<!-- Generator: Adobe Illustrator 17.1.0, SVG Export Plug-In . SVG Version: 6.00 Build 0)  -->
<!DOCTYPE svg PUBLIC "-//W3C//DTD SVG 1.1//EN" "http://www.w3.org/Graphics/SVG/1.1/DTD/svg11.dtd">
<svg version="1.1" id="Layer_1" xmlns="http://www.w3.org/2000/svg" xmlns:xlink="http://www.w3.org/1999/xlink" x="0px" y="0px"
	 viewBox="137.3 -10.7 489.3 410.7" enable-background="new 137.3 -10.7 489.3 410.7" xml:space="preserve">
<polyline fill="none" stroke="#0055FF" stroke-width="8" stroke-miterlimit="10" points="514,133.7 579,133.7 382.4,0.8 
	187.2,133.7 251.9,133.7 251.9,392.4 508.7,392.4 514,392.4 "/>
<polyline fill="none" stroke="#0055FF" stroke-width="8" stroke-miterlimit="10" points="289.7,63.8 289.7,30 251.8,30 251.8,89.7 
	"/>
<g>
	<path fill="#0055FF" d="M273.6,129.7h19.2v3.4v-3.4l9.2,110.8l9.2-110.8h19.4l9.4,110.8l8.1-107.4l0,0l0.3-3.4h6l0,0l-0.3,3.4
		l-11.3,128.7h-19.4l-9.1-108.9l-8.7,108.9h-19.4l-13-132.1"/>
	<path fill="#0055FF" d="M425.6,261.8H371v-3.4h0.1V133.1l0,0v-3.4h54.4v39.6h-19.4v-36.2h-15.7v57.2h22.9v3.4h-22.9v64.7h15.7
		v-36.2h19.4V261.8z"/>
	<path fill="#0055FF" d="M440.4,261.8V133.1h0v-3.4h18.8v132.1 M434.3,261.8 M465.3,261.8"/>
	<path fill="#0055FF" d="M362.4,188.4h53.1v0h1.4V203h-54.6 M362.4,183.7 M362.4,207.8"/>
	<path fill="#0055FF" d="M476.6,261.8V133.1h-0.1v-3.4h18.9v132.1"/>
	<path fill="#0055FF" d="M309.3,355.9c0,3.4-1.7,6.2-5,8.6s-7.5,3.5-12.5,3.5c-5,0-9.2-1.2-12.6-3.5s-5-5.2-5-8.6v-13.4h12.2v18.7
		c0,3.2,1.8,4.8,5.4,4.8c3.5,0,5.3-1.6,5.3-4.8v-14.5c0-4-1.2-7.4-3.7-10.4l-15.3-18.6c-2.6-3.2-4-6.8-4-10.7v-11.3
		c0-3.4,1.7-6.2,5-8.6s7.5-3.5,12.6-3.5c5,0,9.1,1.2,12.5,3.5s5,5.2,5,8.6V309h-12.2v-18.7c0-3.2-1.8-4.8-5.3-4.8
		c-3.6,0-5.4,1.6-5.4,4.8v14c0,3.9,1.2,7.4,3.7,10.4l15.3,18.6c2.6,3.2,4,6.8,4,10.8V355.9z"/>
	<path fill="#0055FF" d="M361.4,309h-11.3v-22.9h-5.5v79.1l0,0v2.2h-12.2v-2.2l0,0v-79.1h-5.5V309h-11.3v-25h45.8V309z"/>
	<path fill="#0055FF" d="M409.5,367.5h-5.3c-7.2,0-10.7-2.9-10.7-8.7v-29.5c0-1.3-0.6-2.4-1.8-3.4c-1.2-0.9-2.6-1.4-4.3-1.4H382
		v40.8l0,0v2.2h-12.2v-2.2l0,0v-79.1l0,0V284h17.5c5.1,0,9.4,1.2,13,3.6c3.6,2.4,5.4,5.2,5.4,8.6v16.1c0,5.2-3.6,8.9-10.7,11.1
		c7.1,2.3,10.7,6,10.7,11.1v27.6c0,2.1,1.2,3.2,3.5,3.2h0.3V367.5z M393.5,317.5V291c0-1.3-0.6-2.4-1.8-3.4
		c-1.2-0.9-2.6-1.4-4.3-1.4H382v36.1h5.3c1.7,0,3.1-0.5,4.3-1.4C392.9,320,393.5,318.9,393.5,317.5z"/>
	<path fill="#0055FF" d="M452.3,355.9c0,3.3-1.8,6.2-5.4,8.6c-3.6,2.4-7.9,3.6-13,3.6c-5,0-9.3-1.2-12.9-3.6
		c-3.6-2.4-5.4-5.2-5.4-8.6v-60.3c0-3.3,1.8-6.2,5.4-8.6c3.6-2.4,7.9-3.6,12.9-3.6c5.1,0,9.4,1.2,13,3.6c3.6,2.4,5.4,5.2,5.4,8.6
		V355.9z M440,361.1v-70.7c0-1.3-0.6-2.4-1.8-3.4c-1.2-0.9-2.6-1.4-4.3-1.4c-1.7,0-3.1,0.5-4.3,1.4c-1.2,0.9-1.8,2.1-1.8,3.4v70.7
		c0,1.3,0.6,2.4,1.8,3.4c1.2,0.9,2.6,1.4,4.3,1.4c1.7,0,3.1-0.5,4.3-1.4C439.4,363.6,440,362.4,440,361.1z"/>
	<path fill="#0055FF" d="M495.7,286.2L495.7,286.2l-11.4,47.5v31.6h0v2.2h-12.2v-2.2h0v-31.6l-10.7-47.5l0,0l-0.4-2.2h11.9l0.5,2.2
		l0,0l9,41.5l9.8-41.5l0,0l0.6-2.2h3.6L495.7,286.2z"/>
</g>
<path fill="none" stroke="#3670FF" stroke-width="6" stroke-miterlimit="10" d="M511.2,351.2"/>
</svg>
