<?xml version="1.0" encoding="utf-8"?>
<!-- Generator: Adobe Illustrator 21.1.0, SVG Export Plug-In . SVG Version: 6.00 Build 0)  -->
<svg version="1.1" id="Layer_1" xmlns="http://www.w3.org/2000/svg" xmlns:xlink="http://www.w3.org/1999/xlink" x="0px" y="0px"
	 viewBox="0 0 171 171" style="enable-background:new 0 0 171 171;" xml:space="preserve">
<style type="text/css">
	.st0{fill:#0068FF;}
	.st1{fill:#001840;}
	.st2{fill:#FFFFFF;}
	.st3{fill:#57ABFF;}
	.st4{fill:#6EB0FF;}
</style>
<g>
	<rect x="25.9" y="25.9" transform="matrix(0.7071 -0.7071 0.7071 0.7071 -35.2082 85)" class="st0" width="118.2" height="118.2"/>
	<path class="st1" d="M85,2.8L167.2,85L85,167.2L2.8,85L85,2.8 M85,0L0,85l85,85l85-85L85,0L85,0z"/>
</g>
<g transform="translate(-1)">
	<g>
		<path class="st2" d="M113.8,71.2c-5.1-2.7-10.1-4.8-14.5-5.3h-0.5l-17.1,8.4l0.9,4.7h10.6l0,0h22.8v-4
			C116.1,73.4,115.2,72,113.8,71.2"/>
		<path class="st2" d="M79.2,65.9h-0.5c-4.5,0.6-9.4,2.6-14.5,5.3C62.8,72,62,73.4,62,75v4h34.4l0.9-4.7L79.2,65.9z"/>
	</g>
	<path class="st2" d="M75,44.5v4.7c0,8.2,6.2,16.8,14,16.8s14-8.6,14-16.8v-4.7H75z"/>
	<g>
		<path class="st3" d="M106.7,45.4H71.3c-0.6,0-0.9-0.4-0.9-0.9s0.4-0.9,0.9-0.9h35.4c0.6,0,0.9,0.4,0.9,0.9S107.3,45.4,106.7,45.4"
			/>
	</g>
	<g>
		<path class="st4" d="M79,60.4l-0.3-0.1l-0.9,3.7l7.5,10.3l3.7-8.4C85.1,65.9,81.5,63.7,79,60.4"/>
		<path class="st4" d="M99,60.4c-2.5,3.3-6.1,5.5-10,5.5l3.7,8.4l7.5-10.3l-0.9-3.7L99,60.4z"/>
	</g>
</g>
<g transform="matrix(1.25 0 0 -1.25 0 45)">
	<g>
		<g>
			<path class="st0" d="M66.4-10.5c0-0.1,0.7-2.7,4.5-2.7c3.8,0,4.5,2.5,4.5,2.7c0,0.1,0,0.3-0.1,0.3c-0.1,0.1-0.3,0-0.4,0
				c0,0-1.2-1.1-4-1.1c-2.8,0-4,1.1-4,1.1c-0.1,0.1-0.1,0.1-0.2,0.1c-0.1,0-0.1,0-0.1,0C66.5-10.3,66.4-10.4,66.4-10.5"/>
			<path id="SVGCleanerId_0" class="st0" d="M68.1-4.4c0-1.2-0.7-2.1-1.5-2.1c-0.8,0-1.5,0.9-1.5,2.1c0,1.2,0.7,2.1,1.5,2.1
				C67.4-2.2,68.1-3.2,68.1-4.4"/>
			<g transform="translate(12)">
				<path id="SVGCleanerId_0_1_" class="st0" d="M64-4.4c0-1.2-0.7-2.1-1.5-2.1S61-5.5,61-4.4c0,1.2,0.7,2.1,1.5,2.1S64-3.2,64-4.4"
					/>
			</g>
		</g>
	</g>
</g>
<path class="st4" d="M74,44.9v-7.8c0-2.3,1.9-4.2,4.2-6.2h19.7c2.3,2,4.2,3.9,4.2,6.2v7.8H74z"/>
<polygon class="st2" points="88.3,70.6 86.3,69.7 88,66 89.8,69.9 "/>
<g>
	<g>
		<path class="st2" d="M75.7,104.3H73c0.1-1.6,0.6-2.8,1.5-3.7s2.1-1.3,3.5-1.3c0.9,0,1.6,0.2,2.3,0.6c0.7,0.4,1.2,0.9,1.6,1.6
			c0.4,0.7,0.6,1.4,0.6,2.1c0,0.9-0.2,1.8-0.7,2.8c-0.5,1-1.4,2.1-2.7,3.5l-1.6,1.7h5.1v2.5h-10v-1.3l4.5-4.5c1.1-1.1,1.8-2,2.1-2.6
			c0.4-0.7,0.5-1.3,0.5-1.8c0-0.6-0.2-1-0.6-1.4c-0.4-0.4-0.8-0.5-1.4-0.5c-0.6,0-1.1,0.2-1.5,0.7C75.9,103,75.7,103.5,75.7,104.3z"
			/>
		<path class="st2" d="M86.7,99.7h4.1v14.4h-2.7v-11.8h-3L86.7,99.7z"/>
		<path class="st2" d="M98.1,104.3h-2.7c0.1-1.6,0.6-2.8,1.5-3.7s2.1-1.3,3.5-1.3c0.9,0,1.6,0.2,2.3,0.6c0.7,0.4,1.2,0.9,1.6,1.6
			c0.4,0.7,0.6,1.4,0.6,2.1c0,0.9-0.2,1.8-0.7,2.8c-0.5,1-1.4,2.1-2.7,3.5l-1.6,1.7h5.1v2.5H95v-1.3l4.5-4.5c1.1-1.1,1.8-2,2.1-2.6
			c0.4-0.7,0.5-1.3,0.5-1.8c0-0.6-0.2-1-0.6-1.4c-0.4-0.4-0.8-0.5-1.4-0.5c-0.6,0-1.1,0.2-1.5,0.7C98.3,103,98.1,103.5,98.1,104.3z"
			/>
		<path class="st2" d="M85.2,127.2c0.4,0,0.8,0.1,1.1,0.4s0.4,0.7,0.4,1.1c0,0.4-0.1,0.8-0.4,1.1c-0.3,0.3-0.7,0.5-1.1,0.5
			s-0.8-0.1-1.1-0.4c-0.3-0.3-0.4-0.7-0.4-1.1s0.1-0.8,0.4-1.1C84.4,127.3,84.8,127.2,85.2,127.2z M85.2,135.3
			c0.4,0,0.8,0.1,1.1,0.4s0.4,0.7,0.4,1.1s-0.1,0.8-0.4,1.1s-0.7,0.4-1.1,0.4s-0.8-0.1-1.1-0.4c-0.3-0.3-0.4-0.7-0.4-1.1
			s0.1-0.8,0.4-1.1C84.4,135.5,84.8,135.3,85.2,135.3z"/>
		<path class="st2" d="M91.9,142.3h-3.4c1.2-1.3,2-2.7,2.6-4.3c0.6-1.5,0.9-3.3,0.9-5.3c0-2.1-0.3-4-0.9-5.6
			c-0.5-1.2-1.3-2.6-2.5-4.1h3.4c1,1.7,1.8,3.2,2.2,4.7c0.4,1.4,0.6,3.1,0.6,5.1c0,1.9-0.2,3.6-0.7,5
			C93.6,139.3,92.9,140.8,91.9,142.3z"/>
	</g>
</g>
</svg>
